<svg width="52" height="52" viewBox="0 0 52 52" fill="none" xmlns="http://www.w3.org/2000/svg">
<path d="M33.1787 19.3729L35.8794 1.09681C35.9017 0.928665 35.9578 0.766522 36.0447 0.619812C36.1315 0.473102 36.2472 0.344751 36.3852 0.242219C36.5231 0.139688 36.6805 0.065022 36.8481 0.0225617C37.0158 -0.0198986 37.1904 -0.0293064 37.3618 -0.00511422C37.5333 0.0190779 37.6981 0.0763873 37.8467 0.163482C37.9952 0.250577 38.1247 0.36572 38.2274 0.502218C38.3302 0.638716 38.4042 0.793845 38.4451 0.958588C38.4861 1.12333 38.4932 1.2944 38.466 1.46186L35.8193 19.3729" fill="#D12C5F"/>
<path d="M41.3392 19.3729L46.9436 1.40901C46.9921 1.2464 47.073 1.09481 47.1817 0.963051C47.2904 0.83129 47.4248 0.721976 47.577 0.641451C47.7292 0.560925 47.8962 0.510792 48.0684 0.493959C48.2405 0.477125 48.4144 0.493928 48.5799 0.543392C48.7453 0.592855 48.8991 0.673994 49.0323 0.782101C49.1655 0.890209 49.2754 1.02313 49.3557 1.17316C49.436 1.32319 49.4851 1.48734 49.5001 1.65608C49.5151 1.82483 49.4957 1.99481 49.4431 2.15616L44.0722 19.3729" fill="#D12C5F"/>
<path d="M47.1126 23.4089L46.0323 29.6769C46.0235 29.7264 46.0259 29.7771 46.0394 29.8256C46.0529 29.874 46.0771 29.919 46.1104 29.9572C46.1437 29.9954 46.1852 30.0259 46.232 30.0466C46.2787 30.0673 46.3295 30.0777 46.3808 30.0769H51.6516C51.715 30.0776 51.7773 30.0613 51.832 30.0298C51.8866 29.9983 51.9315 29.9529 51.9617 29.8983C51.9919 29.8437 52.0063 29.7821 52.0034 29.7201C52.0005 29.6581 51.9803 29.598 51.9451 29.5464L47.7495 23.2784C47.7113 23.2204 47.656 23.1751 47.591 23.1485C47.5259 23.122 47.4542 23.1153 47.3852 23.1294C47.3163 23.1435 47.2533 23.1778 47.2046 23.2277C47.1559 23.2776 47.1239 23.3408 47.1126 23.4089Z" fill="#D12C5F"/>
<path d="M26.5272 35.2796C26.2691 36.0014 25.7885 36.627 25.1519 37.07C24.5152 37.513 23.7538 37.7517 22.9727 37.7531H6.48962L8.62406 51.1352C8.66007 51.3872 8.7926 51.6164 8.99481 51.7764C9.19702 51.9363 9.45377 52.0151 9.71305 51.9966H27.8688V44.4654C27.9124 43.8684 28.4177 43.3737 29.0275 43.3737C29.1734 43.3742 29.3178 43.4028 29.4524 43.4579C29.587 43.513 29.7091 43.5936 29.8119 43.695C29.9147 43.7964 29.996 43.9166 30.0513 44.0488C30.1065 44.181 30.1346 44.3226 30.1339 44.4654V51.9966H39.0027C39.2633 51.9983 39.516 51.9091 39.7155 51.745C39.9151 51.5809 40.0484 51.3526 40.0917 51.101L45.1708 21.5478H31.3971L26.5272 35.2796Z" fill="#D12C5F"/>
<path d="M0.0688735 33.6676C-0.00331888 33.8926 -0.0204323 34.131 0.0189172 34.3636C0.0582667 34.5963 0.152975 34.8166 0.295385 35.0067C0.436749 35.1981 0.622758 35.3537 0.837935 35.4605C1.05311 35.5673 1.29123 35.6223 1.53248 35.6208V35.6293H22.9814C23.3002 35.6279 23.6106 35.5295 23.8698 35.3476C24.1289 35.1658 24.3238 34.9095 24.4275 34.6144L29.0275 21.6417H3.95441L0.0688735 33.6676Z" fill="#D12C5F"/>
</svg>
