<svg width="49" height="53" viewBox="0 0 49 53" fill="none" xmlns="http://www.w3.org/2000/svg">
<path d="M47.044 22.8793L46.4288 22.4863L47.044 21.9851C47.7706 21.4271 48.2173 20.4783 48.2173 19.5304V13.9546C48.2233 13.4158 48.087 12.885 47.8222 12.4155C47.5574 11.9461 47.1733 11.5545 46.7087 11.2803L28.7169 0.456657C27.5996 -0.212675 26.1464 -0.152859 25.1407 0.68002L1.67338 19.5887C1.30472 19.895 1.00839 20.2788 0.805552 20.7127C0.602716 21.1466 0.498387 21.6198 0.500019 22.0987V27.7319C0.500019 28.792 1.11439 29.852 2.00863 30.4093L2.623 30.8L2.00863 31.302C1.64628 31.6016 1.35363 31.9764 1.151 32.4003C0.948372 32.8242 0.840632 33.287 0.835266 33.7567V39.334C0.83452 39.8798 0.972532 40.4168 1.23638 40.8949C1.50023 41.373 1.88129 41.7763 2.34388 42.0673L19.553 52.3867C20.2796 52.7774 21.0054 53 21.7882 53C22.7803 52.9921 23.7423 52.659 24.5263 52.052L47.3231 33.6446C47.6943 33.3537 47.9933 32.9812 48.1969 32.5561C48.4004 32.131 48.5029 31.6648 48.4964 31.1937V25.5566C48.5526 24.4966 47.9374 23.4366 47.0432 22.8793H47.044ZM34.0247 10.1589C34.1325 10.2716 34.1927 10.4215 34.1927 10.5773C34.1927 10.7331 34.1325 10.8829 34.0247 10.9956L30.2816 14.4604C30.2011 14.5424 30.1559 14.6526 30.1559 14.7674C30.1559 14.8822 30.2011 14.9925 30.2816 15.0745L30.5607 15.3531C30.6427 15.4335 30.753 15.4785 30.8679 15.4785C30.9828 15.4785 31.0931 15.4335 31.1751 15.3531L34.8636 11.8951C34.9768 11.7954 35.1238 11.7426 35.2747 11.7475C35.4255 11.7524 35.5688 11.8146 35.6753 11.9213C35.7818 12.0281 35.8434 12.1715 35.8476 12.3221C35.8518 12.4727 35.7983 12.6193 35.6979 12.7318L31.9548 16.1898C31.8743 16.2716 31.8292 16.3817 31.8292 16.4964C31.8292 16.6111 31.8743 16.7212 31.9548 16.8031L32.2339 17.1377C32.3159 17.2181 32.4262 17.2631 32.5411 17.2631C32.656 17.2631 32.7663 17.2181 32.8483 17.1377L36.5368 13.6798C36.6495 13.5733 36.7988 13.5139 36.9539 13.5139C37.1091 13.5139 37.2584 13.5733 37.3711 13.6798C37.4267 13.7362 37.4697 13.8038 37.4972 13.878C37.5248 13.9523 37.5364 14.0315 37.5312 14.1105C37.5259 14.1895 37.504 14.2665 37.4669 14.3364C37.4298 14.4064 37.3783 14.4677 37.3157 14.5164L32.9575 18.5877C32.3432 19.1457 31.3928 19.1457 30.8338 18.5324L30.5607 18.2462L22.4587 26.8393C22.1234 27.2299 21.6244 27.3973 21.1177 27.3973C20.6153 27.3909 20.1349 27.1909 19.7767 26.8393L19.7213 26.784C19.3941 26.4149 19.215 25.9382 19.2185 25.4453C19.2672 24.9474 19.5072 24.4877 19.8882 24.1627L28.996 16.688L29.0521 16.6327L28.7723 16.3533C28.5105 16.0587 28.3706 15.6758 28.3811 15.2822C28.3915 14.8886 28.5514 14.5136 28.8284 14.2332L33.1866 10.1612C33.2995 10.0536 33.4496 9.99356 33.6056 9.99356C33.7617 9.99356 33.9118 10.0536 34.0247 10.1612V10.1589ZM12.5158 21.262C12.5431 21.0037 12.6275 20.7547 12.7629 20.5329C12.8982 20.3111 13.0812 20.1221 13.2986 19.9794L19.6698 15.684L19.1669 15.182C19.0232 15.0365 18.9135 14.861 18.8458 14.6682C18.7782 14.4753 18.7541 14.2699 18.7755 14.0667C18.7755 13.6207 18.9985 13.286 19.2784 13.0066L23.1337 9.65998C23.998 8.8929 25.0647 8.38964 26.2071 8.21001C27.3393 8.03171 28.4989 8.16684 29.5596 8.6007C29.6157 8.65598 29.7272 8.65598 29.7272 8.76804C29.7956 8.85279 29.852 8.94655 29.8948 9.04667C29.9237 9.13729 29.9231 9.23472 29.8929 9.32494C29.8628 9.41516 29.8048 9.4935 29.7272 9.54867L15.5308 22.768C15.1799 23.0956 14.7146 23.2732 14.2342 23.2629C13.7539 23.2525 13.2967 23.0551 12.9603 22.7127C12.79 22.5146 12.6626 22.2834 12.5861 22.0337C12.5096 21.7841 12.4857 21.5213 12.5158 21.262V21.262ZM3.06974 27.7327L3.01589 24.9312L19.8897 35.081C20.3834 35.3638 20.9407 35.5173 21.5098 35.5269C22.2456 35.533 22.9593 35.2757 23.5213 34.8016L45.593 17.0082L45.6476 19.5887C45.6473 19.6833 45.6272 19.7767 45.5887 19.8632C45.5501 19.9496 45.494 20.0271 45.4239 20.0907L22.6263 38.4973C22.321 38.7188 21.9579 38.8472 21.581 38.8669C21.204 38.8867 20.8295 38.797 20.5026 38.6086L3.34962 28.2355C3.12207 28.1242 3.06974 27.9568 3.06974 27.7335V27.7327ZM45.9821 31.1937C45.9821 31.4163 45.9267 31.5844 45.7591 31.6957L23.0177 50.0471C22.4587 50.5491 21.6206 50.6051 20.9501 50.2144L3.74099 39.892C3.65355 39.8276 3.58261 39.7435 3.53397 39.6465C3.48533 39.5495 3.46036 39.4424 3.46111 39.334L3.40726 36.6839L20.3372 46.8321C20.8307 47.1153 21.3882 47.2688 21.9573 47.2781C22.684 47.2781 23.3544 46.9995 23.9134 46.5535L45.9851 28.7602L46.0405 31.1937H45.9821Z" fill="#D12C5F"/>
</svg>
