<svg xmlns="http://www.w3.org/2000/svg" xmlns:xlink="http://www.w3.org/1999/xlink" viewBox="0 0 1260 2640"><defs><style>.cls-1{fill:url(#linear-gradient);}.cls-2{fill:url(#linear-gradient-2);}.cls-3{fill:url(#linear-gradient-3);}.cls-4{fill:url(#linear-gradient-4);}.cls-5{fill:url(#linear-gradient-5);}.cls-6{fill:url(#linear-gradient-6);}.cls-7{fill:url(#linear-gradient-7);}.cls-8{fill:url(#linear-gradient-8);}.cls-9{fill:url(#linear-gradient-9);}.cls-10{fill:url(#linear-gradient-10);}.cls-11{fill:url(#linear-gradient-11);}.cls-12{fill:url(#linear-gradient-12);}.cls-13{fill:url(#linear-gradient-13);}.cls-14{fill:url(#linear-gradient-14);}.cls-15{fill:url(#linear-gradient-15);}.cls-16{fill:url(#linear-gradient-16);}.cls-17{fill:url(#linear-gradient-17);}.cls-18{fill:url(#linear-gradient-18);}.cls-19{fill:url(#linear-gradient-19);}.cls-20{fill:url(#linear-gradient-20);}.cls-21{fill:url(#linear-gradient-21);}.cls-22{fill:url(#linear-gradient-22);}.cls-23{fill:url(#linear-gradient-23);}.cls-24{fill:url(#linear-gradient-24);}.cls-25{fill:url(#linear-gradient-25);}.cls-26{fill:url(#linear-gradient-26);}.cls-27{fill:url(#linear-gradient-27);}.cls-28{fill:url(#linear-gradient-28);}.cls-29{fill:url(#linear-gradient-29);}.cls-30{fill:url(#linear-gradient-30);}.cls-31{fill:url(#linear-gradient-31);}.cls-32{fill:url(#linear-gradient-32);}.cls-33{fill:url(#linear-gradient-33);}.cls-34{fill:url(#linear-gradient-34);}.cls-35{fill:url(#linear-gradient-35);}.cls-36{fill:url(#linear-gradient-36);}.cls-37{fill:url(#linear-gradient-37);}.cls-38{fill:url(#linear-gradient-38);}.cls-39{fill:url(#linear-gradient-39);}.cls-40{fill:url(#linear-gradient-40);}.cls-41{fill:url(#linear-gradient-41);}.cls-42{fill:url(#linear-gradient-42);}.cls-43{fill:url(#linear-gradient-43);}.cls-44{fill:url(#linear-gradient-44);}.cls-45{fill:url(#linear-gradient-45);}.cls-46{fill:url(#linear-gradient-46);}.cls-47{fill:url(#linear-gradient-47);}.cls-48{fill:url(#linear-gradient-48);}.cls-49{fill:url(#linear-gradient-49);}.cls-50{fill:url(#linear-gradient-50);}.cls-51{fill:url(#linear-gradient-51);}.cls-52{fill:url(#linear-gradient-52);}.cls-53{fill:url(#linear-gradient-53);}.cls-54{fill:url(#linear-gradient-54);}.cls-55{fill:url(#linear-gradient-55);}.cls-56{fill:url(#linear-gradient-56);}.cls-57{fill:url(#linear-gradient-57);}.cls-58{fill:url(#linear-gradient-58);}.cls-59{fill:url(#linear-gradient-59);}.cls-60{fill:url(#linear-gradient-60);}.cls-61{fill:url(#linear-gradient-61);}.cls-62{fill:url(#linear-gradient-62);}.cls-63{fill:url(#linear-gradient-63);}.cls-64{fill:url(#linear-gradient-64);}.cls-65{fill:url(#linear-gradient-65);}.cls-66{fill:url(#linear-gradient-66);}.cls-67{fill:url(#linear-gradient-67);}.cls-68{fill:url(#linear-gradient-68);}.cls-69{fill:url(#linear-gradient-69);}.cls-70{fill:url(#linear-gradient-70);}.cls-71{fill:url(#linear-gradient-71);}.cls-72{fill:url(#linear-gradient-72);}.cls-73{fill:url(#linear-gradient-73);}.cls-74{fill:url(#linear-gradient-74);}.cls-75{fill:url(#linear-gradient-75);}.cls-76{fill:url(#linear-gradient-76);}.cls-77{fill:url(#linear-gradient-77);}.cls-78{fill:url(#linear-gradient-78);}.cls-79{fill:url(#linear-gradient-79);}.cls-80{fill:url(#linear-gradient-80);}.cls-81{fill:url(#linear-gradient-81);}.cls-82{fill:url(#linear-gradient-82);}.cls-83{fill:url(#linear-gradient-83);}.cls-84{fill:url(#linear-gradient-84);}.cls-85{fill:url(#linear-gradient-85);}.cls-86{fill:url(#linear-gradient-86);}.cls-87{fill:url(#linear-gradient-87);}.cls-88{fill:url(#linear-gradient-88);}.cls-89{fill:url(#linear-gradient-89);}.cls-90{fill:url(#linear-gradient-90);}.cls-91{fill:url(#linear-gradient-91);}.cls-92{fill:url(#linear-gradient-92);}.cls-93{fill:url(#linear-gradient-93);}.cls-94{fill:url(#linear-gradient-94);}.cls-95{fill:url(#linear-gradient-95);}.cls-96{fill:url(#linear-gradient-96);}.cls-97{fill:url(#linear-gradient-97);}.cls-98{fill:url(#linear-gradient-98);}.cls-99{fill:url(#linear-gradient-99);}.cls-100{fill:url(#linear-gradient-100);}.cls-101{fill:url(#linear-gradient-101);}.cls-102{fill:url(#linear-gradient-102);}.cls-103{fill:url(#linear-gradient-103);}.cls-104{fill:url(#linear-gradient-104);}.cls-105{fill:url(#linear-gradient-105);}.cls-106{fill:url(#linear-gradient-106);}.cls-107{fill:url(#linear-gradient-107);}.cls-108{fill:url(#linear-gradient-108);}.cls-109{fill:url(#linear-gradient-109);}.cls-110{fill:url(#linear-gradient-110);}.cls-111{fill:url(#linear-gradient-111);}.cls-112{fill:url(#linear-gradient-112);}.cls-113{fill:url(#linear-gradient-113);}.cls-114{fill:url(#linear-gradient-114);}.cls-115{fill:url(#linear-gradient-115);}.cls-116{fill:url(#linear-gradient-116);}.cls-117{fill:url(#linear-gradient-117);}.cls-118{fill:url(#linear-gradient-118);}.cls-119{fill:url(#linear-gradient-119);}.cls-120{fill:url(#linear-gradient-120);}.cls-121{fill:url(#linear-gradient-121);}.cls-122{fill:url(#linear-gradient-122);}.cls-123{fill:url(#linear-gradient-123);}.cls-124{fill:url(#linear-gradient-124);}.cls-125{fill:url(#linear-gradient-125);}.cls-126{fill:url(#linear-gradient-126);}.cls-127{fill:url(#linear-gradient-127);}.cls-128{fill:url(#linear-gradient-128);}.cls-129{fill:url(#linear-gradient-129);}.cls-130{fill:url(#linear-gradient-130);}.cls-131{fill:url(#linear-gradient-131);}.cls-132{fill:url(#linear-gradient-132);}.cls-133{fill:url(#linear-gradient-133);}.cls-134{fill:url(#linear-gradient-134);}.cls-135{fill:url(#linear-gradient-135);}.cls-136{fill:url(#linear-gradient-136);}.cls-137{fill:url(#linear-gradient-137);}.cls-138{fill:url(#linear-gradient-138);}.cls-139{fill:url(#linear-gradient-139);}.cls-140{fill:url(#linear-gradient-140);}.cls-141{fill:url(#linear-gradient-141);}.cls-142{fill:url(#linear-gradient-142);}.cls-143{fill:url(#linear-gradient-143);}.cls-144{fill:url(#linear-gradient-144);}.cls-145{font-size:200px;fill:#fff3f6;font-family:Santhony;letter-spacing:0.04em;}.cls-146{stroke:#fff3f6;stroke-miterlimit:10;stroke-width:2.63px;fill:url(#radial-gradient);}.cls-147{fill:#bf2e5b;}.cls-148{fill:#d12c5f;}</style><linearGradient id="linear-gradient" x1="44.11" y1="2639.49" x2="135.89" y2="2480.51" gradientUnits="userSpaceOnUse"><stop offset="0" stop-color="#66141e"/><stop offset="1" stop-color="#59101a"/></linearGradient><linearGradient id="linear-gradient-2" x1="179.11" y1="2559.49" x2="270.89" y2="2400.51" xlink:href="#linear-gradient"/><linearGradient id="linear-gradient-3" x1="314.11" y1="2639.49" x2="405.89" y2="2480.51" xlink:href="#linear-gradient"/><linearGradient id="linear-gradient-4" x1="449.11" y1="2559.49" x2="540.89" y2="2400.51" xlink:href="#linear-gradient"/><linearGradient id="linear-gradient-5" x1="584.11" y1="2639.49" x2="675.89" y2="2480.51" xlink:href="#linear-gradient"/><linearGradient id="linear-gradient-6" x1="719.11" y1="2559.49" x2="810.89" y2="2400.51" xlink:href="#linear-gradient"/><linearGradient id="linear-gradient-7" x1="854.11" y1="2639.49" x2="945.89" y2="2480.51" xlink:href="#linear-gradient"/><linearGradient id="linear-gradient-8" x1="989.11" y1="2559.49" x2="1080.89" y2="2400.51" xlink:href="#linear-gradient"/><linearGradient id="linear-gradient-9" x1="1124.11" y1="2639.49" x2="1215.89" y2="2480.51" xlink:href="#linear-gradient"/><linearGradient id="linear-gradient-10" x1="44.11" y1="2479.49" x2="135.89" y2="2320.51" xlink:href="#linear-gradient"/><linearGradient id="linear-gradient-11" x1="179.11" y1="2399.49" x2="270.89" y2="2240.51" xlink:href="#linear-gradient"/><linearGradient id="linear-gradient-12" x1="314.11" y1="2479.49" x2="405.89" y2="2320.51" xlink:href="#linear-gradient"/><linearGradient id="linear-gradient-13" x1="449.11" y1="2399.49" x2="540.89" y2="2240.51" xlink:href="#linear-gradient"/><linearGradient id="linear-gradient-14" x1="584.11" y1="2479.49" x2="675.89" y2="2320.51" xlink:href="#linear-gradient"/><linearGradient id="linear-gradient-15" x1="719.11" y1="2399.49" x2="810.89" y2="2240.51" xlink:href="#linear-gradient"/><linearGradient id="linear-gradient-16" x1="854.11" y1="2479.49" x2="945.89" y2="2320.51" xlink:href="#linear-gradient"/><linearGradient id="linear-gradient-17" x1="1124.11" y1="2479.49" x2="1215.89" y2="2320.51" xlink:href="#linear-gradient"/><linearGradient id="linear-gradient-18" x1="989.11" y1="2399.49" x2="1080.89" y2="2240.51" xlink:href="#linear-gradient"/><linearGradient id="linear-gradient-19" x1="44.11" y1="2319.49" x2="135.89" y2="2160.51" gradientUnits="userSpaceOnUse"><stop offset="0" stop-color="#741323"/><stop offset="1" stop-color="#68101e"/></linearGradient><linearGradient id="linear-gradient-20" x1="179.11" y1="2239.49" x2="270.89" y2="2080.51" xlink:href="#linear-gradient-19"/><linearGradient id="linear-gradient-21" x1="314.11" y1="2319.49" x2="405.89" y2="2160.51" xlink:href="#linear-gradient-19"/><linearGradient id="linear-gradient-22" x1="449.11" y1="2239.49" x2="540.89" y2="2080.51" xlink:href="#linear-gradient-19"/><linearGradient id="linear-gradient-23" x1="584.11" y1="2319.49" x2="675.89" y2="2160.51" xlink:href="#linear-gradient-19"/><linearGradient id="linear-gradient-24" x1="719.11" y1="2239.49" x2="810.89" y2="2080.51" xlink:href="#linear-gradient-19"/><linearGradient id="linear-gradient-25" x1="854.11" y1="2319.49" x2="945.89" y2="2160.51" xlink:href="#linear-gradient-19"/><linearGradient id="linear-gradient-26" x1="1124.11" y1="2319.49" x2="1215.89" y2="2160.51" xlink:href="#linear-gradient-19"/><linearGradient id="linear-gradient-27" x1="989.11" y1="2239.49" x2="1080.89" y2="2080.51" xlink:href="#linear-gradient-19"/><linearGradient id="linear-gradient-28" x1="44.11" y1="2159.49" x2="135.89" y2="2000.51" gradientUnits="userSpaceOnUse"><stop offset="0" stop-color="#831128"/><stop offset="1" stop-color="#781123"/></linearGradient><linearGradient id="linear-gradient-29" x1="179.11" y1="2079.49" x2="270.89" y2="1920.51" xlink:href="#linear-gradient-28"/><linearGradient id="linear-gradient-30" x1="314.11" y1="2159.49" x2="405.89" y2="2000.51" xlink:href="#linear-gradient-28"/><linearGradient id="linear-gradient-31" x1="449.11" y1="2079.49" x2="540.89" y2="1920.51" xlink:href="#linear-gradient-28"/><linearGradient id="linear-gradient-32" x1="584.11" y1="2159.49" x2="675.89" y2="2000.51" xlink:href="#linear-gradient-28"/><linearGradient id="linear-gradient-33" x1="719.11" y1="2079.49" x2="810.89" y2="1920.51" xlink:href="#linear-gradient-28"/><linearGradient id="linear-gradient-34" x1="854.11" y1="2159.49" x2="945.89" y2="2000.51" xlink:href="#linear-gradient-28"/><linearGradient id="linear-gradient-35" x1="1124.11" y1="2159.49" x2="1215.89" y2="2000.51" xlink:href="#linear-gradient-28"/><linearGradient id="linear-gradient-36" x1="989.11" y1="2079.49" x2="1080.89" y2="1920.51" xlink:href="#linear-gradient-28"/><linearGradient id="linear-gradient-37" x1="44.11" y1="1999.49" x2="135.89" y2="1840.51" gradientUnits="userSpaceOnUse"><stop offset="0" stop-color="#96122e"/><stop offset="1" stop-color="#891229"/></linearGradient><linearGradient id="linear-gradient-38" x1="179.11" y1="1919.49" x2="270.89" y2="1760.51" xlink:href="#linear-gradient-37"/><linearGradient id="linear-gradient-39" x1="314.11" y1="1999.49" x2="405.89" y2="1840.51" xlink:href="#linear-gradient-37"/><linearGradient id="linear-gradient-40" x1="449.11" y1="1919.49" x2="540.89" y2="1760.51" xlink:href="#linear-gradient-37"/><linearGradient id="linear-gradient-41" x1="584.11" y1="1999.49" x2="675.89" y2="1840.51" xlink:href="#linear-gradient-37"/><linearGradient id="linear-gradient-42" x1="719.11" y1="1919.49" x2="810.89" y2="1760.51" xlink:href="#linear-gradient-37"/><linearGradient id="linear-gradient-43" x1="854.11" y1="1999.49" x2="945.89" y2="1840.51" xlink:href="#linear-gradient-37"/><linearGradient id="linear-gradient-44" x1="1124.11" y1="1999.49" x2="1215.89" y2="1840.51" xlink:href="#linear-gradient-37"/><linearGradient id="linear-gradient-45" x1="989.11" y1="1919.49" x2="1080.89" y2="1760.51" xlink:href="#linear-gradient-37"/><linearGradient id="linear-gradient-46" x1="44.11" y1="1839.49" x2="135.89" y2="1680.51" gradientUnits="userSpaceOnUse"><stop offset="0" stop-color="#a91434"/><stop offset="1" stop-color="#9c142f"/></linearGradient><linearGradient id="linear-gradient-47" x1="179.11" y1="1759.49" x2="270.89" y2="1600.51" xlink:href="#linear-gradient-46"/><linearGradient id="linear-gradient-48" x1="314.11" y1="1839.49" x2="405.89" y2="1680.51" xlink:href="#linear-gradient-46"/><linearGradient id="linear-gradient-49" x1="449.11" y1="1759.49" x2="540.89" y2="1600.51" xlink:href="#linear-gradient-46"/><linearGradient id="linear-gradient-50" x1="584.11" y1="1839.49" x2="675.89" y2="1680.51" xlink:href="#linear-gradient-46"/><linearGradient id="linear-gradient-51" x1="719.11" y1="1759.49" x2="810.89" y2="1600.51" xlink:href="#linear-gradient-46"/><linearGradient id="linear-gradient-52" x1="854.11" y1="1839.49" x2="945.89" y2="1680.51" xlink:href="#linear-gradient-46"/><linearGradient id="linear-gradient-53" x1="1124.11" y1="1839.49" x2="1215.89" y2="1680.51" xlink:href="#linear-gradient-46"/><linearGradient id="linear-gradient-54" x1="989.11" y1="1759.49" x2="1080.89" y2="1600.51" xlink:href="#linear-gradient-46"/><linearGradient id="linear-gradient-55" x1="44.11" y1="1679.49" x2="135.89" y2="1520.51" gradientUnits="userSpaceOnUse"><stop offset="0" stop-color="#b61637"/><stop offset="1" stop-color="#a9152f"/></linearGradient><linearGradient id="linear-gradient-56" x1="179.11" y1="1599.49" x2="270.89" y2="1440.51" xlink:href="#linear-gradient-55"/><linearGradient id="linear-gradient-57" x1="314.11" y1="1679.49" x2="405.89" y2="1520.51" xlink:href="#linear-gradient-55"/><linearGradient id="linear-gradient-58" x1="449.11" y1="1599.49" x2="540.89" y2="1440.51" xlink:href="#linear-gradient-55"/><linearGradient id="linear-gradient-59" x1="584.11" y1="1679.49" x2="675.89" y2="1520.51" xlink:href="#linear-gradient-55"/><linearGradient id="linear-gradient-60" x1="719.11" y1="1599.49" x2="810.89" y2="1440.51" xlink:href="#linear-gradient-55"/><linearGradient id="linear-gradient-61" x1="854.11" y1="1679.49" x2="945.89" y2="1520.51" xlink:href="#linear-gradient-55"/><linearGradient id="linear-gradient-62" x1="1124.11" y1="1679.49" x2="1215.89" y2="1520.51" xlink:href="#linear-gradient-55"/><linearGradient id="linear-gradient-63" x1="989.11" y1="1599.49" x2="1080.89" y2="1440.51" xlink:href="#linear-gradient-55"/><linearGradient id="linear-gradient-64" x1="44.11" y1="1519.49" x2="135.89" y2="1360.51" gradientUnits="userSpaceOnUse"><stop offset="0" stop-color="#c4193c"/><stop offset="1" stop-color="#b51630"/></linearGradient><linearGradient id="linear-gradient-65" x1="179.11" y1="1439.49" x2="270.89" y2="1280.51" xlink:href="#linear-gradient-64"/><linearGradient id="linear-gradient-66" x1="314.11" y1="1519.49" x2="405.89" y2="1360.51" xlink:href="#linear-gradient-64"/><linearGradient id="linear-gradient-67" x1="449.11" y1="1439.49" x2="540.89" y2="1280.51" xlink:href="#linear-gradient-64"/><linearGradient id="linear-gradient-68" x1="584.11" y1="1519.49" x2="675.89" y2="1360.51" xlink:href="#linear-gradient-64"/><linearGradient id="linear-gradient-69" x1="719.11" y1="1439.49" x2="810.89" y2="1280.51" xlink:href="#linear-gradient-64"/><linearGradient id="linear-gradient-70" x1="854.11" y1="1519.49" x2="945.89" y2="1360.51" xlink:href="#linear-gradient-64"/><linearGradient id="linear-gradient-71" x1="1124.11" y1="1519.49" x2="1215.89" y2="1360.51" xlink:href="#linear-gradient-64"/><linearGradient id="linear-gradient-72" x1="989.11" y1="1439.49" x2="1080.89" y2="1280.51" xlink:href="#linear-gradient-64"/><linearGradient id="linear-gradient-73" x1="44.11" y1="1359.49" x2="135.89" y2="1200.51" gradientUnits="userSpaceOnUse"><stop offset="0" stop-color="#d0223a"/><stop offset="1" stop-color="#c21a2b"/></linearGradient><linearGradient id="linear-gradient-74" x1="179.11" y1="1279.49" x2="270.89" y2="1120.51" xlink:href="#linear-gradient-73"/><linearGradient id="linear-gradient-75" x1="314.11" y1="1359.49" x2="405.89" y2="1200.51" xlink:href="#linear-gradient-73"/><linearGradient id="linear-gradient-76" x1="449.11" y1="1279.49" x2="540.89" y2="1120.51" xlink:href="#linear-gradient-73"/><linearGradient id="linear-gradient-77" x1="584.11" y1="1359.49" x2="675.89" y2="1200.51" xlink:href="#linear-gradient-73"/><linearGradient id="linear-gradient-78" x1="719.11" y1="1279.49" x2="810.89" y2="1120.51" xlink:href="#linear-gradient-73"/><linearGradient id="linear-gradient-79" x1="854.11" y1="1359.49" x2="945.89" y2="1200.51" xlink:href="#linear-gradient-73"/><linearGradient id="linear-gradient-80" x1="1124.11" y1="1359.49" x2="1215.89" y2="1200.51" xlink:href="#linear-gradient-73"/><linearGradient id="linear-gradient-81" x1="989.11" y1="1279.49" x2="1080.89" y2="1120.51" xlink:href="#linear-gradient-73"/><linearGradient id="linear-gradient-82" x1="44.11" y1="1199.49" x2="135.89" y2="1040.51" gradientUnits="userSpaceOnUse"><stop offset="0" stop-color="#dc2c37"/><stop offset="1" stop-color="#d01f26"/></linearGradient><linearGradient id="linear-gradient-83" x1="179.11" y1="1119.49" x2="270.89" y2="960.51" xlink:href="#linear-gradient-82"/><linearGradient id="linear-gradient-84" x1="314.11" y1="1199.49" x2="405.89" y2="1040.51" xlink:href="#linear-gradient-82"/><linearGradient id="linear-gradient-85" x1="449.11" y1="1119.49" x2="540.89" y2="960.51" xlink:href="#linear-gradient-82"/><linearGradient id="linear-gradient-86" x1="584.11" y1="1199.49" x2="675.89" y2="1040.51" xlink:href="#linear-gradient-82"/><linearGradient id="linear-gradient-87" x1="719.11" y1="1119.49" x2="810.89" y2="960.51" xlink:href="#linear-gradient-82"/><linearGradient id="linear-gradient-88" x1="854.11" y1="1199.49" x2="945.89" y2="1040.51" xlink:href="#linear-gradient-82"/><linearGradient id="linear-gradient-89" x1="1124.11" y1="1199.49" x2="1215.89" y2="1040.51" xlink:href="#linear-gradient-82"/><linearGradient id="linear-gradient-90" x1="989.11" y1="1119.49" x2="1080.89" y2="960.51" xlink:href="#linear-gradient-82"/><linearGradient id="linear-gradient-91" x1="44.11" y1="1039.49" x2="135.89" y2="880.51" gradientUnits="userSpaceOnUse"><stop offset="0" stop-color="#e3362f"/><stop offset="1" stop-color="#db2728"/></linearGradient><linearGradient id="linear-gradient-92" x1="179.11" y1="959.49" x2="270.89" y2="800.51" xlink:href="#linear-gradient-91"/><linearGradient id="linear-gradient-93" x1="314.11" y1="1039.49" x2="405.89" y2="880.51" xlink:href="#linear-gradient-91"/><linearGradient id="linear-gradient-94" x1="449.11" y1="959.49" x2="540.89" y2="800.51" xlink:href="#linear-gradient-91"/><linearGradient id="linear-gradient-95" x1="584.11" y1="1039.49" x2="675.89" y2="880.51" xlink:href="#linear-gradient-91"/><linearGradient id="linear-gradient-96" x1="719.11" y1="959.49" x2="810.89" y2="800.51" xlink:href="#linear-gradient-91"/><linearGradient id="linear-gradient-97" x1="854.11" y1="1039.49" x2="945.89" y2="880.51" xlink:href="#linear-gradient-91"/><linearGradient id="linear-gradient-98" x1="1124.11" y1="1039.49" x2="1215.89" y2="880.51" xlink:href="#linear-gradient-91"/><linearGradient id="linear-gradient-99" x1="989.11" y1="959.49" x2="1080.89" y2="800.51" xlink:href="#linear-gradient-91"/><linearGradient id="linear-gradient-100" x1="44.11" y1="879.49" x2="135.89" y2="720.51" gradientUnits="userSpaceOnUse"><stop offset="0" stop-color="#ea4227"/><stop offset="1" stop-color="#e6302c"/></linearGradient><linearGradient id="linear-gradient-101" x1="179.11" y1="799.49" x2="270.89" y2="640.51" xlink:href="#linear-gradient-100"/><linearGradient id="linear-gradient-102" x1="314.11" y1="879.49" x2="405.89" y2="720.51" xlink:href="#linear-gradient-100"/><linearGradient id="linear-gradient-103" x1="449.11" y1="799.49" x2="540.89" y2="640.51" xlink:href="#linear-gradient-100"/><linearGradient id="linear-gradient-104" x1="584.11" y1="879.49" x2="675.89" y2="720.51" xlink:href="#linear-gradient-100"/><linearGradient id="linear-gradient-105" x1="719.11" y1="799.49" x2="810.89" y2="640.51" xlink:href="#linear-gradient-100"/><linearGradient id="linear-gradient-106" x1="854.11" y1="879.49" x2="945.89" y2="720.51" xlink:href="#linear-gradient-100"/><linearGradient id="linear-gradient-107" x1="1124.11" y1="879.49" x2="1215.89" y2="720.51" xlink:href="#linear-gradient-100"/><linearGradient id="linear-gradient-108" x1="989.11" y1="799.49" x2="1080.89" y2="640.51" xlink:href="#linear-gradient-100"/><linearGradient id="linear-gradient-109" x1="44.11" y1="719.49" x2="135.89" y2="560.51" gradientUnits="userSpaceOnUse"><stop offset="0" stop-color="#ef5127"/><stop offset="1" stop-color="#eb412a"/></linearGradient><linearGradient id="linear-gradient-110" x1="179.11" y1="639.49" x2="270.89" y2="480.51" xlink:href="#linear-gradient-109"/><linearGradient id="linear-gradient-111" x1="314.11" y1="719.49" x2="405.89" y2="560.51" xlink:href="#linear-gradient-109"/><linearGradient id="linear-gradient-112" x1="449.11" y1="639.49" x2="540.89" y2="480.51" xlink:href="#linear-gradient-109"/><linearGradient id="linear-gradient-113" x1="584.11" y1="719.49" x2="675.89" y2="560.51" xlink:href="#linear-gradient-109"/><linearGradient id="linear-gradient-114" x1="719.11" y1="639.49" x2="810.89" y2="480.51" xlink:href="#linear-gradient-109"/><linearGradient id="linear-gradient-115" x1="854.11" y1="719.49" x2="945.89" y2="560.51" xlink:href="#linear-gradient-109"/><linearGradient id="linear-gradient-116" x1="1124.11" y1="719.49" x2="1215.89" y2="560.51" xlink:href="#linear-gradient-109"/><linearGradient id="linear-gradient-117" x1="989.11" y1="639.49" x2="1080.89" y2="480.51" xlink:href="#linear-gradient-109"/><linearGradient id="linear-gradient-118" x1="44.11" y1="559.49" x2="135.89" y2="400.51" gradientUnits="userSpaceOnUse"><stop offset="0" stop-color="#f56126"/><stop offset="1" stop-color="#f25527"/></linearGradient><linearGradient id="linear-gradient-119" x1="179.11" y1="479.49" x2="270.89" y2="320.51" xlink:href="#linear-gradient-118"/><linearGradient id="linear-gradient-120" x1="314.11" y1="559.49" x2="405.89" y2="400.51" xlink:href="#linear-gradient-118"/><linearGradient id="linear-gradient-121" x1="449.11" y1="479.49" x2="540.89" y2="320.51" xlink:href="#linear-gradient-118"/><linearGradient id="linear-gradient-122" x1="584.11" y1="559.49" x2="675.89" y2="400.51" xlink:href="#linear-gradient-118"/><linearGradient id="linear-gradient-123" x1="719.11" y1="479.49" x2="810.89" y2="320.51" xlink:href="#linear-gradient-118"/><linearGradient id="linear-gradient-124" x1="854.11" y1="559.49" x2="945.89" y2="400.51" xlink:href="#linear-gradient-118"/><linearGradient id="linear-gradient-125" x1="1124.11" y1="559.49" x2="1215.89" y2="400.51" xlink:href="#linear-gradient-118"/><linearGradient id="linear-gradient-126" x1="989.11" y1="479.49" x2="1080.89" y2="320.51" xlink:href="#linear-gradient-118"/><linearGradient id="linear-gradient-127" x1="44.11" y1="399.49" x2="135.89" y2="240.51" gradientUnits="userSpaceOnUse"><stop offset="0" stop-color="#f56c34"/><stop offset="1" stop-color="#f2592b"/></linearGradient><linearGradient id="linear-gradient-128" x1="179.11" y1="319.49" x2="270.89" y2="160.51" xlink:href="#linear-gradient-127"/><linearGradient id="linear-gradient-129" x1="314.11" y1="399.49" x2="405.89" y2="240.51" xlink:href="#linear-gradient-127"/><linearGradient id="linear-gradient-130" x1="449.11" y1="319.49" x2="540.89" y2="160.51" xlink:href="#linear-gradient-127"/><linearGradient id="linear-gradient-131" x1="584.11" y1="399.49" x2="675.89" y2="240.51" xlink:href="#linear-gradient-127"/><linearGradient id="linear-gradient-132" x1="719.11" y1="319.49" x2="810.89" y2="160.51" xlink:href="#linear-gradient-127"/><linearGradient id="linear-gradient-133" x1="854.11" y1="399.49" x2="945.89" y2="240.51" xlink:href="#linear-gradient-127"/><linearGradient id="linear-gradient-134" x1="1124.11" y1="399.49" x2="1215.89" y2="240.51" xlink:href="#linear-gradient-127"/><linearGradient id="linear-gradient-135" x1="989.11" y1="319.49" x2="1080.89" y2="160.51" xlink:href="#linear-gradient-127"/><linearGradient id="linear-gradient-136" x1="44.11" y1="239.49" x2="135.89" y2="80.51" gradientUnits="userSpaceOnUse"><stop offset="0.01" stop-color="#f47742"/><stop offset="1" stop-color="#f36030"/></linearGradient><linearGradient id="linear-gradient-137" x1="179.11" y1="159.49" x2="270.89" y2="0.51" xlink:href="#linear-gradient-136"/><linearGradient id="linear-gradient-138" x1="314.11" y1="239.49" x2="405.89" y2="80.51" xlink:href="#linear-gradient-136"/><linearGradient id="linear-gradient-139" x1="449.11" y1="159.49" x2="540.89" y2="0.51" xlink:href="#linear-gradient-136"/><linearGradient id="linear-gradient-140" x1="584.11" y1="239.49" x2="675.89" y2="80.51" xlink:href="#linear-gradient-136"/><linearGradient id="linear-gradient-141" x1="719.11" y1="159.49" x2="810.89" y2="0.51" xlink:href="#linear-gradient-136"/><linearGradient id="linear-gradient-142" x1="854.11" y1="239.49" x2="945.89" y2="80.51" xlink:href="#linear-gradient-136"/><linearGradient id="linear-gradient-143" x1="1124.11" y1="239.49" x2="1215.89" y2="80.51" xlink:href="#linear-gradient-136"/><linearGradient id="linear-gradient-144" x1="989.11" y1="159.49" x2="1080.89" y2="0.51" xlink:href="#linear-gradient-136"/><radialGradient id="radial-gradient" cx="576.15" cy="989.03" fx="551.0580373030227" fy="1023.63622325988" r="106.97" gradientUnits="userSpaceOnUse"><stop offset="0.16" stop-color="#ebcdd3"/><stop offset="1" stop-color="#fbfafc"/></radialGradient></defs><g id="Layer_1" data-name="Layer 1"><polygon class="cls-1" points="135 2480 45 2480 0 2560 45 2640 135 2640 180 2560 135 2480"/><polygon class="cls-2" points="270 2400 180 2400 135 2480 180 2560 270 2560 315 2480 270 2400"/><polygon class="cls-3" points="405 2480 315 2480 270 2560 315 2640 405 2640 450 2560 405 2480"/><polygon class="cls-4" points="540 2400 450 2400 405 2480 450 2560 540 2560 585 2480 540 2400"/><polygon class="cls-5" points="675 2480 585 2480 540 2560 585 2640 675 2640 720 2560 675 2480"/><polygon class="cls-6" points="810 2400 720 2400 675 2480 720 2560 810 2560 855 2480 810 2400"/><polygon class="cls-7" points="945 2480 855 2480 810 2560 855 2640 945 2640 990 2560 945 2480"/><polygon class="cls-8" points="1080 2400 990 2400 945 2480 990 2560 1080 2560 1125 2480 1080 2400"/><polygon class="cls-9" points="1215 2480 1125 2480 1080 2560 1125 2640 1215 2640 1260 2560 1215 2480"/><polygon class="cls-10" points="135 2320 45 2320 0 2400 45 2480 135 2480 180 2400 135 2320"/><polygon class="cls-11" points="270 2240 180 2240 135 2320 180 2400 270 2400 315 2320 270 2240"/><polygon class="cls-12" points="405 2320 315 2320 270 2400 315 2480 405 2480 450 2400 405 2320"/><polygon class="cls-13" points="540 2240 450 2240 405 2320 450 2400 540 2400 585 2320 540 2240"/><polygon class="cls-14" points="675 2320 585 2320 540 2400 585 2480 675 2480 720 2400 675 2320"/><polygon class="cls-15" points="810 2240 720 2240 675 2320 720 2400 810 2400 855 2320 810 2240"/><polygon class="cls-16" points="945 2320 855 2320 810 2400 855 2480 945 2480 990 2400 945 2320"/><polygon class="cls-17" points="1215 2320 1125 2320 1080 2400 1125 2480 1215 2480 1260 2400 1215 2320"/><polygon class="cls-18" points="1080 2240 990 2240 945 2320 990 2400 1080 2400 1125 2320 1080 2240"/><polygon class="cls-19" points="135 2160 45 2160 0 2240 45 2320 135 2320 180 2240 135 2160"/><polygon class="cls-20" points="270 2080 180 2080 135 2160 180 2240 270 2240 315 2160 270 2080"/><polygon class="cls-21" points="405 2160 315 2160 270 2240 315 2320 405 2320 450 2240 405 2160"/><polygon class="cls-22" points="540 2080 450 2080 405 2160 450 2240 540 2240 585 2160 540 2080"/><polygon class="cls-23" points="675 2160 585 2160 540 2240 585 2320 675 2320 720 2240 675 2160"/><polygon class="cls-24" points="810 2080 720 2080 675 2160 720 2240 810 2240 855 2160 810 2080"/><polygon class="cls-25" points="945 2160 855 2160 810 2240 855 2320 945 2320 990 2240 945 2160"/><polygon class="cls-26" points="1215 2160 1125 2160 1080 2240 1125 2320 1215 2320 1260 2240 1215 2160"/><polygon class="cls-27" points="1080 2080 990 2080 945 2160 990 2240 1080 2240 1125 2160 1080 2080"/><polygon class="cls-28" points="135 2000 45 2000 0 2080 45 2160 135 2160 180 2080 135 2000"/><polygon class="cls-29" points="270 1920 180 1920 135 2000 180 2080 270 2080 315 2000 270 1920"/><polygon class="cls-30" points="405 2000 315 2000 270 2080 315 2160 405 2160 450 2080 405 2000"/><polygon class="cls-31" points="540 1920 450 1920 405 2000 450 2080 540 2080 585 2000 540 1920"/><polygon class="cls-32" points="675 2000 585 2000 540 2080 585 2160 675 2160 720 2080 675 2000"/><polygon class="cls-33" points="810 1920 720 1920 675 2000 720 2080 810 2080 855 2000 810 1920"/><polygon class="cls-34" points="945 2000 855 2000 810 2080 855 2160 945 2160 990 2080 945 2000"/><polygon class="cls-35" points="1215 2000 1125 2000 1080 2080 1125 2160 1215 2160 1260 2080 1215 2000"/><polygon class="cls-36" points="1080 1920 990 1920 945 2000 990 2080 1080 2080 1125 2000 1080 1920"/><polygon class="cls-37" points="135 1840 45 1840 0 1920 45 2000 135 2000 180 1920 135 1840"/><polygon class="cls-38" points="270 1760 180 1760 135 1840 180 1920 270 1920 315 1840 270 1760"/><polygon class="cls-39" points="405 1840 315 1840 270 1920 315 2000 405 2000 450 1920 405 1840"/><polygon class="cls-40" points="540 1760 450 1760 405 1840 450 1920 540 1920 585 1840 540 1760"/><polygon class="cls-41" points="675 1840 585 1840 540 1920 585 2000 675 2000 720 1920 675 1840"/><polygon class="cls-42" points="810 1760 720 1760 675 1840 720 1920 810 1920 855 1840 810 1760"/><polygon class="cls-43" points="945 1840 855 1840 810 1920 855 2000 945 2000 990 1920 945 1840"/><polygon class="cls-44" points="1215 1840 1125 1840 1080 1920 1125 2000 1215 2000 1260 1920 1215 1840"/><polygon class="cls-45" points="1080 1760 990 1760 945 1840 990 1920 1080 1920 1125 1840 1080 1760"/><polygon class="cls-46" points="135 1680 45 1680 0 1760 45 1840 135 1840 180 1760 135 1680"/><polygon class="cls-47" points="270 1600 180 1600 135 1680 180 1760 270 1760 315 1680 270 1600"/><polygon class="cls-48" points="405 1680 315 1680 270 1760 315 1840 405 1840 450 1760 405 1680"/><polygon class="cls-49" points="540 1600 450 1600 405 1680 450 1760 540 1760 585 1680 540 1600"/><polygon class="cls-50" points="675 1680 585 1680 540 1760 585 1840 675 1840 720 1760 675 1680"/><polygon class="cls-51" points="810 1600 720 1600 675 1680 720 1760 810 1760 855 1680 810 1600"/><polygon class="cls-52" points="945 1680 855 1680 810 1760 855 1840 945 1840 990 1760 945 1680"/><polygon class="cls-53" points="1215 1680 1125 1680 1080 1760 1125 1840 1215 1840 1260 1760 1215 1680"/><polygon class="cls-54" points="1080 1600 990 1600 945 1680 990 1760 1080 1760 1125 1680 1080 1600"/><polygon class="cls-55" points="135 1520 45 1520 0 1600 45 1680 135 1680 180 1600 135 1520"/><polygon class="cls-56" points="270 1440 180 1440 135 1520 180 1600 270 1600 315 1520 270 1440"/><polygon class="cls-57" points="405 1520 315 1520 270 1600 315 1680 405 1680 450 1600 405 1520"/><polygon class="cls-58" points="540 1440 450 1440 405 1520 450 1600 540 1600 585 1520 540 1440"/><polygon class="cls-59" points="675 1520 585 1520 540 1600 585 1680 675 1680 720 1600 675 1520"/><polygon class="cls-60" points="810 1440 720 1440 675 1520 720 1600 810 1600 855 1520 810 1440"/><polygon class="cls-61" points="945 1520 855 1520 810 1600 855 1680 945 1680 990 1600 945 1520"/><polygon class="cls-62" points="1215 1520 1125 1520 1080 1600 1125 1680 1215 1680 1260 1600 1215 1520"/><polygon class="cls-63" points="1080 1440 990 1440 945 1520 990 1600 1080 1600 1125 1520 1080 1440"/><polygon class="cls-64" points="135 1360 45 1360 0 1440 45 1520 135 1520 180 1440 135 1360"/><polygon class="cls-65" points="270 1280 180 1280 135 1360 180 1440 270 1440 315 1360 270 1280"/><polygon class="cls-66" points="405 1360 315 1360 270 1440 315 1520 405 1520 450 1440 405 1360"/><polygon class="cls-67" points="540 1280 450 1280 405 1360 450 1440 540 1440 585 1360 540 1280"/><polygon class="cls-68" points="675 1360 585 1360 540 1440 585 1520 675 1520 720 1440 675 1360"/><polygon class="cls-69" points="810 1280 720 1280 675 1360 720 1440 810 1440 855 1360 810 1280"/><polygon class="cls-70" points="945 1360 855 1360 810 1440 855 1520 945 1520 990 1440 945 1360"/><polygon class="cls-71" points="1215 1360 1125 1360 1080 1440 1125 1520 1215 1520 1260 1440 1215 1360"/><polygon class="cls-72" points="1080 1280 990 1280 945 1360 990 1440 1080 1440 1125 1360 1080 1280"/><polygon class="cls-73" points="135 1200 45 1200 0 1280 45 1360 135 1360 180 1280 135 1200"/><polygon class="cls-74" points="270 1120 180 1120 135 1200 180 1280 270 1280 315 1200 270 1120"/><polygon class="cls-75" points="405 1200 315 1200 270 1280 315 1360 405 1360 450 1280 405 1200"/><polygon class="cls-76" points="540 1120 450 1120 405 1200 450 1280 540 1280 585 1200 540 1120"/><polygon class="cls-77" points="675 1200 585 1200 540 1280 585 1360 675 1360 720 1280 675 1200"/><polygon class="cls-78" points="810 1120 720 1120 675 1200 720 1280 810 1280 855 1200 810 1120"/><polygon class="cls-79" points="945 1200 855 1200 810 1280 855 1360 945 1360 990 1280 945 1200"/><polygon class="cls-80" points="1215 1200 1125 1200 1080 1280 1125 1360 1215 1360 1260 1280 1215 1200"/><polygon class="cls-81" points="1080 1120 990 1120 945 1200 990 1280 1080 1280 1125 1200 1080 1120"/><polygon class="cls-82" points="135 1040 45 1040 0 1120 45 1200 135 1200 180 1120 135 1040"/><polygon class="cls-83" points="270 960 180 960 135 1040 180 1120 270 1120 315 1040 270 960"/><polygon class="cls-84" points="405 1040 315 1040 270 1120 315 1200 405 1200 450 1120 405 1040"/><polygon class="cls-85" points="540 960 450 960 405 1040 450 1120 540 1120 585 1040 540 960"/><polygon class="cls-86" points="675 1040 585 1040 540 1120 585 1200 675 1200 720 1120 675 1040"/><polygon class="cls-87" points="810 960 720 960 675 1040 720 1120 810 1120 855 1040 810 960"/><polygon class="cls-88" points="945 1040 855 1040 810 1120 855 1200 945 1200 990 1120 945 1040"/><polygon class="cls-89" points="1215 1040 1125 1040 1080 1120 1125 1200 1215 1200 1260 1120 1215 1040"/><polygon class="cls-90" points="1080 960 990 960 945 1040 990 1120 1080 1120 1125 1040 1080 960"/><polygon class="cls-91" points="135 880 45 880 0 960 45 1040 135 1040 180 960 135 880"/><polygon class="cls-92" points="270 800 180 800 135 880 180 960 270 960 315 880 270 800"/><polygon class="cls-93" points="405 880 315 880 270 960 315 1040 405 1040 450 960 405 880"/><polygon class="cls-94" points="540 800 450 800 405 880 450 960 540 960 585 880 540 800"/><polygon class="cls-95" points="675 880 585 880 540 960 585 1040 675 1040 720 960 675 880"/><polygon class="cls-96" points="810 800 720 800 675 880 720 960 810 960 855 880 810 800"/><polygon class="cls-97" points="945 880 855 880 810 960 855 1040 945 1040 990 960 945 880"/><polygon class="cls-98" points="1215 880 1125 880 1080 960 1125 1040 1215 1040 1260 960 1215 880"/><polygon class="cls-99" points="1080 800 990 800 945 880 990 960 1080 960 1125 880 1080 800"/><polygon class="cls-100" points="135 720 45 720 0 800 45 880 135 880 180 800 135 720"/><polygon class="cls-101" points="270 640 180 640 135 720 180 800 270 800 315 720 270 640"/><polygon class="cls-102" points="405 720 315 720 270 800 315 880 405 880 450 800 405 720"/><polygon class="cls-103" points="540 640 450 640 405 720 450 800 540 800 585 720 540 640"/><polygon class="cls-104" points="675 720 585 720 540 800 585 880 675 880 720 800 675 720"/><polygon class="cls-105" points="810 640 720 640 675 720 720 800 810 800 855 720 810 640"/><polygon class="cls-106" points="945 720 855 720 810 800 855 880 945 880 990 800 945 720"/><polygon class="cls-107" points="1215 720 1125 720 1080 800 1125 880 1215 880 1260 800 1215 720"/><polygon class="cls-108" points="1080 640 990 640 945 720 990 800 1080 800 1125 720 1080 640"/><polygon class="cls-109" points="135 560 45 560 0 640 45 720 135 720 180 640 135 560"/><polygon class="cls-110" points="270 480 180 480 135 560 180 640 270 640 315 560 270 480"/><polygon class="cls-111" points="405 560 315 560 270 640 315 720 405 720 450 640 405 560"/><polygon class="cls-112" points="540 480 450 480 405 560 450 640 540 640 585 560 540 480"/><polygon class="cls-113" points="675 560 585 560 540 640 585 720 675 720 720 640 675 560"/><polygon class="cls-114" points="810 480 720 480 675 560 720 640 810 640 855 560 810 480"/><polygon class="cls-115" points="945 560 855 560 810 640 855 720 945 720 990 640 945 560"/><polygon class="cls-116" points="1215 560 1125 560 1080 640 1125 720 1215 720 1260 640 1215 560"/><polygon class="cls-117" points="1080 480 990 480 945 560 990 640 1080 640 1125 560 1080 480"/><polygon class="cls-118" points="135 400 45 400 0 480 45 560 135 560 180 480 135 400"/><polygon class="cls-119" points="270 320 180 320 135 400 180 480 270 480 315 400 270 320"/><polygon class="cls-120" points="405 400 315 400 270 480 315 560 405 560 450 480 405 400"/><polygon class="cls-121" points="540 320 450 320 405 400 450 480 540 480 585 400 540 320"/><polygon class="cls-122" points="675 400 585 400 540 480 585 560 675 560 720 480 675 400"/><polygon class="cls-123" points="810 320 720 320 675 400 720 480 810 480 855 400 810 320"/><polygon class="cls-124" points="945 400 855 400 810 480 855 560 945 560 990 480 945 400"/><polygon class="cls-125" points="1215 400 1125 400 1080 480 1125 560 1215 560 1260 480 1215 400"/><polygon class="cls-126" points="1080 320 990 320 945 400 990 480 1080 480 1125 400 1080 320"/><polygon class="cls-127" points="135 240 45 240 0 320 45 400 135 400 180 320 135 240"/><polygon class="cls-128" points="270 160 180 160 135 240 180 320 270 320 315 240 270 160"/><polygon class="cls-129" points="405 240 315 240 270 320 315 400 405 400 450 320 405 240"/><polygon class="cls-130" points="540 160 450 160 405 240 450 320 540 320 585 240 540 160"/><polygon class="cls-131" points="675 240 585 240 540 320 585 400 675 400 720 320 675 240"/><polygon class="cls-132" points="810 160 720 160 675 240 720 320 810 320 855 240 810 160"/><polygon class="cls-133" points="945 240 855 240 810 320 855 400 945 400 990 320 945 240"/><polygon class="cls-134" points="1215 240 1125 240 1080 320 1125 400 1215 400 1260 320 1215 240"/><polygon class="cls-135" points="1080 160 990 160 945 240 990 320 1080 320 1125 240 1080 160"/><polygon class="cls-136" points="135 80 45 80 0 160 45 240 135 240 180 160 135 80"/><polygon class="cls-137" points="270 0 180 0 135 80 180 160 270 160 315 80 270 0"/><polygon class="cls-138" points="405 80 315 80 270 160 315 240 405 240 450 160 405 80"/><polygon class="cls-139" points="540 0 450 0 405 80 450 160 540 160 585 80 540 0"/><polygon class="cls-140" points="675 80 585 80 540 160 585 240 675 240 720 160 675 80"/><polygon class="cls-141" points="810 0 720 0 675 80 720 160 810 160 855 80 810 0"/><polygon class="cls-142" points="945 80 855 80 810 160 855 240 945 240 990 160 945 80"/><polygon class="cls-143" points="1215 80 1125 80 1080 160 1125 240 1215 240 1260 160 1215 80"/><polygon class="cls-144" points="1080 0 990 0 945 80 990 160 1080 160 1125 80 1080 0"/></g><g id="Layer_2" data-name="Layer 2"><text class="cls-145" transform="translate(378.15 1377.32)">Gump</text><path class="cls-146" d="M568.5,863.19l-83,47.94a28.09,28.09,0,0,0-14,24.32v95.89a28.09,28.09,0,0,0,14,24.32l83,47.94a28.06,28.06,0,0,0,28.08,0l83-47.94a28.09,28.09,0,0,0,14-24.32V935.45a28.09,28.09,0,0,0-14-24.32l-83-47.94A28.06,28.06,0,0,0,568.5,863.19Z" transform="translate(74.5 99)"/><circle class="cls-147" cx="636.1" cy="1032.21" r="21.08"/><circle class="cls-147" cx="636.1" cy="1079.1" r="21.08"/><circle class="cls-147" cx="635.83" cy="1126" r="21.08"/><circle class="cls-147" cx="678.25" cy="1055.13" r="21.08"/><circle class="cls-147" cx="678.25" cy="1102.02" r="21.08"/><circle class="cls-147" cx="678.25" cy="1148.92" r="21.08"/><path class="cls-147" d="M540.52,955.73A21.08,21.08,0,0,1,519,977.2c-15.41,0-15.41,0-15.41-20.67,0-21.48,0-21.47,16.21-21.47A21.15,21.15,0,0,1,540.52,955.73Z" transform="translate(74.5 99)"/><path class="cls-147" d="M624.79,980.5A21.08,21.08,0,0,1,646.27,959c15.4,0,15.41,0,15.4,20.67,0,21.48,0,21.48-16.21,21.48A21.16,21.16,0,0,1,624.79,980.5Z" transform="translate(74.5 99)"/><circle class="cls-148" cx="636.83" cy="1034.92" r="20.1"/><path class="cls-148" d="M582.43,980.64a20.1,20.1,0,1,1-20.1-20.1A20.1,20.1,0,0,1,582.43,980.64Z" transform="translate(74.5 99)"/><circle class="cls-148" cx="636.83" cy="1124.35" r="20.1"/><circle class="cls-148" cx="677.02" cy="1056.77" r="20.1"/><circle class="cls-148" cx="677.02" cy="1101.49" r="20.1"/><circle class="cls-148" cx="677.02" cy="1146.21" r="20.1"/><path class="cls-148" d="M542.23,957.39a20.11,20.11,0,0,1-20.48,20.48c-14.69,0-14.69,0-14.69-19.71,0-20.48,0-20.48,15.46-20.48A20.17,20.17,0,0,1,542.23,957.39Z" transform="translate(74.5 99)"/><path class="cls-148" d="M622.59,981a20.11,20.11,0,0,1,20.48-20.48c14.69,0,14.69,0,14.69,19.71,0,20.48,0,20.48-15.46,20.48A20.17,20.17,0,0,1,622.59,981Z" transform="translate(74.5 99)"/></g></svg>