<svg xmlns="http://www.w3.org/2000/svg" xmlns:xlink="http://www.w3.org/1999/xlink" viewBox="0 0 1024 1024"><defs><style>.cls-1{fill:#d12c5f;}.cls-2{stroke:#fff3f6;stroke-miterlimit:10;stroke-width:10px;fill:url(#radial-gradient);}.cls-3{fill:#bf2e5b;}</style><radialGradient id="radial-gradient" cx="488.26" cy="533.89" fx="393.0033088423482" fy="665.23467615462" r="406.02" gradientUnits="userSpaceOnUse"><stop offset="0.16" stop-color="#ebcdd3"/><stop offset="1" stop-color="#fbfafc"/></radialGradient></defs><g id="Layer_4" data-name="Layer 4"><rect class="cls-1" width="1024" height="1024"/></g><g id="Layer_1" data-name="Layer 1"><path class="cls-2" d="M459.2,56.23,144,238.21a106.59,106.59,0,0,0-53.3,92.31v364A106.59,106.59,0,0,0,144,786.79l315.19,182a106.61,106.61,0,0,0,106.6,0L881,786.79a106.59,106.59,0,0,0,53.3-92.31v-364A106.59,106.59,0,0,0,881,238.21L565.8,56.23A106.61,106.61,0,0,0,459.2,56.23Z" transform="translate(0 0)"/></g><g id="Layer_3" data-name="Layer 3"><circle class="cls-3" cx="433" cy="322" r="80"/><circle class="cls-3" cx="433" cy="500" r="80"/><circle class="cls-3" cx="432" cy="678" r="80"/><circle class="cls-3" cx="593" cy="409" r="80"/><circle class="cls-3" cx="593" cy="587" r="80"/><circle class="cls-3" cx="593" cy="765" r="80"/><path class="cls-3" d="M353,407.48A80,80,0,0,1,271.48,489C213,489,213,489,213,410.52,213,329,213,329,274.52,329A80.29,80.29,0,0,1,353,407.48Z" transform="translate(0 0)"/><path class="cls-3" d="M672.87,501.52A80,80,0,0,1,754.38,420c58.48,0,58.49,0,58.48,78.47,0,81.52,0,81.5-61.52,81.5A80.27,80.27,0,0,1,672.87,501.52Z" transform="translate(0 0)"/><circle class="cls-1" cx="435.78" cy="332.29" r="76.29"/><path class="cls-1" d="M512.07,502a76.29,76.29,0,1,1-76.29-76.29A76.29,76.29,0,0,1,512.07,502Z" transform="translate(0 0)"/><circle class="cls-1" cx="435.78" cy="671.75" r="76.29"/><circle class="cls-1" cx="588.35" cy="415.25" r="76.29"/><circle class="cls-1" cx="588.35" cy="584.98" r="76.29"/><circle class="cls-1" cx="588.35" cy="754.71" r="76.29"/><path class="cls-1" d="M359.49,413.8a76.3,76.3,0,0,1-77.73,77.72c-55.76,0-55.77,0-55.76-74.83C226,339,226,339,284.66,339A76.56,76.56,0,0,1,359.49,413.8Z" transform="translate(0 0)"/><path class="cls-1" d="M664.52,503.47a76.3,76.3,0,0,1,77.72-77.73c55.77,0,55.78,0,55.77,74.83,0,77.73,0,77.72-58.67,77.72A76.55,76.55,0,0,1,664.52,503.47Z" transform="translate(0 0)"/></g></svg>