<svg id="Layer_5" data-name="Layer 5" xmlns="http://www.w3.org/2000/svg" xmlns:xlink="http://www.w3.org/1999/xlink" viewBox="0 0 1125.39 2436.61"><defs><style>.cls-1{fill:url(#linear-gradient);}.cls-2{fill:url(#linear-gradient-2);}.cls-3{fill:url(#linear-gradient-3);}.cls-4{fill:url(#linear-gradient-4);}.cls-5{fill:url(#linear-gradient-5);}.cls-6{fill:url(#linear-gradient-6);}.cls-7{fill:url(#linear-gradient-7);}.cls-8{fill:url(#linear-gradient-8);}.cls-9{fill:url(#linear-gradient-9);}.cls-10{fill:url(#linear-gradient-10);}.cls-11{fill:url(#linear-gradient-11);}.cls-12{fill:url(#linear-gradient-12);}.cls-13{fill:url(#linear-gradient-13);}.cls-14{fill:url(#linear-gradient-14);}.cls-15{fill:url(#linear-gradient-15);}.cls-16{fill:url(#linear-gradient-16);}.cls-17{fill:url(#linear-gradient-17);}.cls-18{fill:url(#linear-gradient-18);}.cls-19{fill:url(#linear-gradient-19);}.cls-20{fill:url(#linear-gradient-20);}.cls-21{fill:url(#linear-gradient-21);}.cls-22{fill:url(#linear-gradient-22);}.cls-23{fill:url(#linear-gradient-23);}.cls-24{fill:url(#linear-gradient-24);}.cls-25{fill:url(#linear-gradient-25);}.cls-26{fill:url(#linear-gradient-26);}.cls-27{fill:url(#linear-gradient-27);}.cls-28{fill:url(#linear-gradient-28);}.cls-29{fill:url(#linear-gradient-29);}.cls-30{fill:url(#linear-gradient-30);}.cls-31{fill:url(#linear-gradient-31);}.cls-32{fill:url(#linear-gradient-32);}.cls-33{fill:url(#linear-gradient-33);}.cls-34{fill:url(#linear-gradient-34);}.cls-35{fill:url(#linear-gradient-35);}.cls-36{fill:url(#linear-gradient-36);}.cls-37{fill:url(#linear-gradient-37);}.cls-38{fill:url(#linear-gradient-38);}.cls-39{fill:url(#linear-gradient-39);}.cls-40{fill:url(#linear-gradient-40);}.cls-41{fill:url(#linear-gradient-41);}.cls-42{fill:url(#linear-gradient-42);}.cls-43{fill:url(#linear-gradient-43);}.cls-44{fill:url(#linear-gradient-44);}.cls-45{fill:url(#linear-gradient-45);}.cls-46{fill:url(#linear-gradient-46);}.cls-47{fill:url(#linear-gradient-47);}.cls-48{fill:url(#linear-gradient-48);}.cls-49{fill:url(#linear-gradient-49);}.cls-50{fill:url(#linear-gradient-50);}.cls-51{fill:url(#linear-gradient-51);}.cls-52{fill:url(#linear-gradient-52);}.cls-53{fill:url(#linear-gradient-53);}.cls-54{fill:url(#linear-gradient-54);}.cls-55{fill:url(#linear-gradient-55);}.cls-56{fill:url(#linear-gradient-56);}.cls-57{fill:url(#linear-gradient-57);}.cls-58{fill:url(#linear-gradient-58);}.cls-59{fill:url(#linear-gradient-59);}.cls-60{fill:url(#linear-gradient-60);}.cls-61{fill:url(#linear-gradient-61);}.cls-62{fill:url(#linear-gradient-62);}.cls-63{fill:url(#linear-gradient-63);}.cls-64{fill:url(#linear-gradient-64);}.cls-65{fill:url(#linear-gradient-65);}.cls-66{fill:url(#linear-gradient-66);}.cls-67{fill:url(#linear-gradient-67);}.cls-68{fill:url(#linear-gradient-68);}.cls-69{fill:url(#linear-gradient-69);}.cls-70{fill:url(#linear-gradient-70);}.cls-71{fill:url(#linear-gradient-71);}.cls-72{fill:url(#linear-gradient-72);}.cls-73{fill:url(#linear-gradient-73);}.cls-74{fill:url(#linear-gradient-74);}.cls-75{fill:url(#linear-gradient-75);}.cls-76{fill:url(#linear-gradient-76);}.cls-77{fill:url(#linear-gradient-77);}.cls-78{fill:url(#linear-gradient-78);}.cls-79{fill:url(#linear-gradient-79);}.cls-80{fill:url(#linear-gradient-80);}.cls-81{fill:url(#linear-gradient-81);}.cls-82{fill:url(#linear-gradient-82);}.cls-83{fill:url(#linear-gradient-83);}.cls-84{fill:url(#linear-gradient-84);}.cls-85{fill:url(#linear-gradient-85);}.cls-86{fill:url(#linear-gradient-86);}.cls-87{fill:url(#linear-gradient-87);}.cls-88{fill:url(#linear-gradient-88);}.cls-89{fill:url(#linear-gradient-89);}.cls-90{fill:url(#linear-gradient-90);}.cls-91{fill:url(#linear-gradient-91);}.cls-92{fill:url(#linear-gradient-92);}.cls-93{fill:url(#linear-gradient-93);}.cls-94{fill:url(#linear-gradient-94);}.cls-95{fill:url(#linear-gradient-95);}.cls-96{fill:url(#linear-gradient-96);}.cls-97{fill:url(#linear-gradient-97);}.cls-98{fill:url(#linear-gradient-98);}.cls-99{fill:url(#linear-gradient-99);}.cls-100{fill:url(#linear-gradient-100);}.cls-101{fill:url(#linear-gradient-101);}.cls-102{fill:url(#linear-gradient-102);}.cls-103{fill:url(#linear-gradient-103);}.cls-104{fill:url(#linear-gradient-104);}.cls-105{fill:url(#linear-gradient-105);}.cls-106{fill:url(#linear-gradient-106);}.cls-107{fill:url(#linear-gradient-107);}.cls-108{fill:url(#linear-gradient-108);}.cls-109{fill:url(#linear-gradient-109);}.cls-110{fill:url(#linear-gradient-110);}.cls-111{fill:url(#linear-gradient-111);}.cls-112{fill:url(#linear-gradient-112);}.cls-113{fill:url(#linear-gradient-113);}.cls-114{fill:url(#linear-gradient-114);}.cls-115{fill:url(#linear-gradient-115);}.cls-116{fill:url(#linear-gradient-116);}.cls-117{fill:url(#linear-gradient-117);}.cls-118{fill:url(#linear-gradient-118);}.cls-119{fill:url(#linear-gradient-119);}.cls-120{fill:url(#linear-gradient-120);}.cls-121{fill:url(#linear-gradient-121);}.cls-122{fill:url(#linear-gradient-122);}.cls-123{fill:url(#linear-gradient-123);}.cls-124{fill:url(#linear-gradient-124);}.cls-125{fill:url(#linear-gradient-125);}.cls-126{fill:url(#linear-gradient-126);}.cls-127{fill:url(#linear-gradient-127);}.cls-128{fill:url(#linear-gradient-128);}.cls-129{fill:url(#linear-gradient-129);}.cls-130{fill:url(#linear-gradient-130);}.cls-131{fill:url(#linear-gradient-131);}.cls-132{fill:url(#linear-gradient-132);}.cls-133{fill:url(#linear-gradient-133);}.cls-134{fill:url(#linear-gradient-134);}.cls-135{fill:url(#linear-gradient-135);}.cls-136{fill:url(#linear-gradient-136);}.cls-137{fill:url(#linear-gradient-137);}.cls-138{fill:url(#linear-gradient-138);}.cls-139{fill:url(#linear-gradient-139);}.cls-140{fill:url(#linear-gradient-140);}.cls-141{fill:url(#linear-gradient-141);}.cls-142{fill:url(#linear-gradient-142);}.cls-143{fill:url(#linear-gradient-143);}.cls-144{fill:url(#linear-gradient-144);}.cls-145{fill:url(#linear-gradient-145);}.cls-146{fill:url(#linear-gradient-146);}.cls-147{fill:url(#linear-gradient-147);}.cls-148{fill:url(#linear-gradient-148);}.cls-149{fill:url(#linear-gradient-149);}.cls-150{fill:url(#linear-gradient-150);}.cls-151{fill:url(#linear-gradient-151);}.cls-152{fill:url(#linear-gradient-152);}.cls-153{fill:url(#linear-gradient-153);}.cls-154{fill:url(#linear-gradient-154);}.cls-155{fill:url(#linear-gradient-155);}.cls-156{fill:url(#linear-gradient-156);}.cls-157{fill:url(#linear-gradient-157);}.cls-158{fill:url(#linear-gradient-158);}.cls-159{fill:url(#linear-gradient-159);}.cls-160{fill:url(#linear-gradient-160);}.cls-161{fill:url(#linear-gradient-161);}.cls-162{fill:url(#linear-gradient-162);}.cls-163{fill:url(#linear-gradient-163);}.cls-164{fill:url(#linear-gradient-164);}.cls-165{fill:url(#linear-gradient-165);}.cls-166{fill:url(#linear-gradient-166);}.cls-167{fill:url(#linear-gradient-167);}.cls-168{fill:url(#linear-gradient-168);}.cls-169{fill:url(#linear-gradient-169);}.cls-170{fill:url(#linear-gradient-170);}.cls-171{fill:url(#linear-gradient-171);}.cls-172{fill:url(#linear-gradient-172);}.cls-173{fill:url(#linear-gradient-173);}.cls-174{fill:url(#linear-gradient-174);}.cls-175{fill:url(#linear-gradient-175);}.cls-176{fill:url(#linear-gradient-176);}.cls-177{fill:url(#linear-gradient-177);}.cls-178{fill:url(#linear-gradient-178);}.cls-179{fill:url(#linear-gradient-179);}.cls-180{fill:url(#linear-gradient-180);}.cls-181{fill:url(#linear-gradient-181);}.cls-182{fill:url(#linear-gradient-182);}.cls-183{fill:url(#linear-gradient-183);}.cls-184{fill:url(#linear-gradient-184);}.cls-185{fill:url(#linear-gradient-185);}.cls-186{fill:url(#linear-gradient-186);}.cls-187{fill:url(#linear-gradient-187);}.cls-188{fill:url(#linear-gradient-188);}.cls-189{fill:url(#linear-gradient-189);}.cls-190{fill:url(#linear-gradient-190);}.cls-191{fill:url(#linear-gradient-191);}.cls-192{fill:url(#linear-gradient-192);}.cls-193{fill:url(#linear-gradient-193);}.cls-194{fill:url(#linear-gradient-194);}.cls-195{fill:url(#linear-gradient-195);}.cls-196{fill:url(#linear-gradient-196);}.cls-197{fill:url(#linear-gradient-197);}.cls-198{fill:url(#linear-gradient-198);}.cls-199{fill:url(#linear-gradient-199);}.cls-200{fill:url(#linear-gradient-200);}.cls-201{fill:url(#linear-gradient-201);}.cls-202{fill:url(#linear-gradient-202);}.cls-203{fill:url(#linear-gradient-203);}.cls-204{fill:url(#linear-gradient-204);}.cls-205{fill:url(#linear-gradient-205);}.cls-206{fill:url(#linear-gradient-206);}.cls-207{fill:url(#linear-gradient-207);}.cls-208{fill:url(#linear-gradient-208);}.cls-209{fill:url(#linear-gradient-209);}.cls-210{fill:url(#linear-gradient-210);}.cls-211{fill:url(#linear-gradient-211);}.cls-212{fill:url(#linear-gradient-212);}.cls-213{fill:url(#linear-gradient-213);}.cls-214{fill:url(#linear-gradient-214);}.cls-215{fill:url(#linear-gradient-215);}.cls-216{fill:url(#linear-gradient-216);}.cls-217{fill:url(#linear-gradient-217);}.cls-218{fill:url(#linear-gradient-218);}.cls-219{fill:url(#linear-gradient-219);}.cls-220{fill:url(#linear-gradient-220);}.cls-221{fill:url(#linear-gradient-221);}.cls-222{fill:url(#linear-gradient-222);}.cls-223{fill:url(#linear-gradient-223);}.cls-224{fill:url(#linear-gradient-224);}.cls-225{fill:url(#linear-gradient-225);}.cls-226{fill:url(#linear-gradient-226);}.cls-227{fill:url(#linear-gradient-227);}.cls-228{fill:url(#linear-gradient-228);}.cls-229{fill:url(#linear-gradient-229);}.cls-230{fill:url(#linear-gradient-230);}.cls-231{fill:url(#linear-gradient-231);}.cls-232{fill:url(#linear-gradient-232);}.cls-233{fill:url(#linear-gradient-233);}.cls-234{fill:url(#linear-gradient-234);}.cls-235{fill:url(#linear-gradient-235);}.cls-236{fill:url(#linear-gradient-236);}.cls-237{fill:url(#linear-gradient-237);}.cls-238{fill:url(#linear-gradient-238);}.cls-239{fill:url(#linear-gradient-239);}.cls-240{fill:url(#linear-gradient-240);}.cls-241{fill:url(#linear-gradient-241);}.cls-242{fill:url(#linear-gradient-242);}.cls-243{fill:url(#linear-gradient-243);}.cls-244{fill:url(#linear-gradient-244);}.cls-245{fill:url(#linear-gradient-245);}.cls-246{fill:url(#linear-gradient-246);}.cls-247{fill:url(#linear-gradient-247);}.cls-248{fill:url(#linear-gradient-248);}.cls-249{fill:url(#linear-gradient-249);}.cls-250{fill:url(#linear-gradient-250);}.cls-251{fill:url(#linear-gradient-251);}.cls-252{fill:url(#linear-gradient-252);}.cls-253{fill:url(#linear-gradient-253);}.cls-254{fill:url(#linear-gradient-254);}.cls-255{fill:url(#linear-gradient-255);}.cls-256{fill:url(#linear-gradient-256);}.cls-257{fill:url(#linear-gradient-257);}.cls-258{fill:url(#linear-gradient-258);}.cls-259{fill:url(#linear-gradient-259);}.cls-260{fill:url(#linear-gradient-260);}.cls-261{fill:url(#linear-gradient-261);}.cls-262{fill:url(#linear-gradient-262);}.cls-263{fill:url(#linear-gradient-263);}.cls-264{fill:url(#linear-gradient-264);}.cls-265{fill:url(#linear-gradient-265);}.cls-266{fill:url(#linear-gradient-266);}.cls-267{fill:url(#linear-gradient-267);}.cls-268{fill:url(#linear-gradient-268);}.cls-269{fill:url(#linear-gradient-269);}.cls-270{fill:url(#linear-gradient-270);}.cls-271{fill:url(#linear-gradient-271);}.cls-272{fill:url(#linear-gradient-272);}.cls-273{fill:url(#linear-gradient-273);}.cls-274{fill:url(#linear-gradient-274);}.cls-275{fill:url(#linear-gradient-275);}.cls-276{fill:url(#linear-gradient-276);}.cls-277{fill:url(#linear-gradient-277);}.cls-278{fill:url(#linear-gradient-278);}.cls-279{fill:url(#linear-gradient-279);}.cls-280{fill:url(#linear-gradient-280);}.cls-281{fill:url(#linear-gradient-281);}.cls-282{fill:url(#linear-gradient-282);}.cls-283{fill:url(#linear-gradient-283);}.cls-284{fill:url(#linear-gradient-284);}.cls-285{fill:url(#linear-gradient-285);}.cls-286{fill:url(#linear-gradient-286);}.cls-287{fill:url(#linear-gradient-287);}.cls-288{fill:url(#linear-gradient-288);}.cls-289{fill:url(#linear-gradient-289);}.cls-290{fill:url(#linear-gradient-290);}.cls-291{fill:url(#linear-gradient-291);}.cls-292{fill:url(#linear-gradient-292);}.cls-293{fill:url(#linear-gradient-293);}.cls-294{fill:url(#linear-gradient-294);}.cls-295{fill:url(#linear-gradient-295);}.cls-296{fill:url(#linear-gradient-296);}.cls-297{fill:url(#linear-gradient-297);}.cls-298{fill:url(#linear-gradient-298);}.cls-299{fill:url(#linear-gradient-299);}.cls-300{fill:url(#linear-gradient-300);}.cls-301{fill:url(#linear-gradient-301);}.cls-302{fill:url(#linear-gradient-302);}.cls-303{fill:url(#linear-gradient-303);}.cls-304{fill:url(#linear-gradient-304);}.cls-305{fill:url(#linear-gradient-305);}.cls-306{fill:url(#linear-gradient-306);}.cls-307{fill:url(#linear-gradient-307);}.cls-308{fill:url(#linear-gradient-308);}.cls-309{fill:url(#linear-gradient-309);}.cls-310{fill:url(#linear-gradient-310);}.cls-311{fill:url(#linear-gradient-311);}.cls-312{fill:url(#linear-gradient-312);}.cls-313{fill:url(#linear-gradient-313);}</style><linearGradient id="linear-gradient" x1="562.89" y1="2436.61" x2="562.89" y2="0.61" gradientUnits="userSpaceOnUse"><stop offset="0" stop-color="#5f121c"/><stop offset="0.52" stop-color="#bf1838"/><stop offset="1" stop-color="#f36635"/></linearGradient><linearGradient id="linear-gradient-2" x1="-57.34" y1="2538.89" x2="40.88" y2="2368.77" gradientTransform="matrix(1, 0.02, -0.02, 1, 19.12, -8.55)" gradientUnits="userSpaceOnUse"><stop offset="0" stop-color="#66141e"/><stop offset="1" stop-color="#59101a"/></linearGradient><linearGradient id="linear-gradient-3" x1="31.89" y1="2436.61" x2="31.89" y2="0.61" xlink:href="#linear-gradient"/><linearGradient id="linear-gradient-4" x1="-33.78" y1="2552.49" x2="64.44" y2="2382.37" xlink:href="#linear-gradient-2"/><linearGradient id="linear-gradient-5" x1="119.17" y1="2436.61" x2="119.17" y2="0.61" xlink:href="#linear-gradient"/><linearGradient id="linear-gradient-6" x1="88.45" y1="2454.06" x2="186.18" y2="2284.8" xlink:href="#linear-gradient-2"/><linearGradient id="linear-gradient-7" x1="260.29" y1="2436.61" x2="260.29" y2="0.61" xlink:href="#linear-gradient"/><linearGradient id="linear-gradient-8" x1="224.64" y1="2535.27" x2="322.57" y2="2365.66" xlink:href="#linear-gradient-2"/><linearGradient id="linear-gradient-9" x1="406.2" y1="2436.61" x2="406.2" y2="0.61" xlink:href="#linear-gradient"/><linearGradient id="linear-gradient-10" x1="375.62" y1="2453.78" x2="473.05" y2="2285.02" xlink:href="#linear-gradient-2"/><linearGradient id="linear-gradient-11" x1="547.91" y1="2436.61" x2="547.91" y2="0.61" xlink:href="#linear-gradient"/><linearGradient id="linear-gradient-12" x1="510.26" y1="2533.76" x2="607.89" y2="2364.66" xlink:href="#linear-gradient-2"/><linearGradient id="linear-gradient-13" x1="693.23" y1="2436.61" x2="693.23" y2="0.61" xlink:href="#linear-gradient"/><linearGradient id="linear-gradient-14" x1="662.76" y1="2453.48" x2="759.89" y2="2285.23" xlink:href="#linear-gradient-2"/><linearGradient id="linear-gradient-15" x1="835.46" y1="2436.61" x2="835.46" y2="0.61" xlink:href="#linear-gradient"/><linearGradient id="linear-gradient-16" x1="795.86" y1="2532.23" x2="893.2" y2="2363.64" xlink:href="#linear-gradient-2"/><linearGradient id="linear-gradient-17" x1="980.26" y1="2436.61" x2="980.26" y2="0.61" xlink:href="#linear-gradient"/><linearGradient id="linear-gradient-18" x1="949.87" y1="2453.17" x2="1046.72" y2="2285.43" xlink:href="#linear-gradient-2"/><linearGradient id="linear-gradient-19" x1="1083.73" y1="2436.61" x2="1083.73" y2="0.61" xlink:href="#linear-gradient"/><linearGradient id="linear-gradient-20" x1="1052.28" y1="2513.87" x2="1149.33" y2="2345.78" xlink:href="#linear-gradient-2"/><linearGradient id="linear-gradient-21" x1="-37.32" y1="2378.86" x2="60.2" y2="2209.95" xlink:href="#linear-gradient-2"/><linearGradient id="linear-gradient-22" x1="37.01" y1="2436.61" x2="37.01" y2="0.61" xlink:href="#linear-gradient"/><linearGradient id="linear-gradient-23" x1="-28.51" y1="2383.95" x2="69.01" y2="2215.04" xlink:href="#linear-gradient-2"/><linearGradient id="linear-gradient-24" x1="123.57" y1="2436.61" x2="123.57" y2="0.61" xlink:href="#linear-gradient"/><linearGradient id="linear-gradient-25" x1="90.5" y1="2284.69" x2="187.52" y2="2116.63" xlink:href="#linear-gradient-2"/><linearGradient id="linear-gradient-26" x1="264.6" y1="2436.61" x2="264.6" y2="0.61" xlink:href="#linear-gradient"/><linearGradient id="linear-gradient-27" x1="232.84" y1="2369.1" x2="330.07" y2="2200.7" xlink:href="#linear-gradient-2"/><linearGradient id="linear-gradient-28" x1="409.44" y1="2436.61" x2="409.44" y2="0.61" xlink:href="#linear-gradient"/><linearGradient id="linear-gradient-29" x1="376.62" y1="2284.48" x2="473.36" y2="2116.93" xlink:href="#linear-gradient-2"/><linearGradient id="linear-gradient-30" x1="551.05" y1="2436.61" x2="551.05" y2="0.61" xlink:href="#linear-gradient"/><linearGradient id="linear-gradient-31" x1="519.47" y1="2368.85" x2="616.41" y2="2200.95" xlink:href="#linear-gradient-2"/><linearGradient id="linear-gradient-32" x1="695.3" y1="2436.61" x2="695.3" y2="0.61" xlink:href="#linear-gradient"/><linearGradient id="linear-gradient-33" x1="662.67" y1="2284.23" x2="759.11" y2="2117.18" xlink:href="#linear-gradient-2"/><linearGradient id="linear-gradient-34" x1="837.49" y1="2436.61" x2="837.49" y2="0.61" xlink:href="#linear-gradient"/><linearGradient id="linear-gradient-35" x1="806.1" y1="2368.6" x2="902.74" y2="2201.21" xlink:href="#linear-gradient-2"/><linearGradient id="linear-gradient-36" x1="1076.73" y1="2436.61" x2="1076.73" y2="0.61" xlink:href="#linear-gradient"/><linearGradient id="linear-gradient-37" x1="1075.24" y1="2358.25" x2="1171.6" y2="2191.36" xlink:href="#linear-gradient-2"/><linearGradient id="linear-gradient-38" x1="981.17" y1="2436.61" x2="981.17" y2="0.61" xlink:href="#linear-gradient"/><linearGradient id="linear-gradient-39" x1="948.71" y1="2283.98" x2="1044.87" y2="2117.43" xlink:href="#linear-gradient-2"/><linearGradient id="linear-gradient-40" x1="-38.38" y1="2208.06" x2="58.45" y2="2040.35" gradientTransform="matrix(1, 0.02, -0.02, 1, 19.12, -8.55)" gradientUnits="userSpaceOnUse"><stop offset="0" stop-color="#741323"/><stop offset="1" stop-color="#68101e"/></linearGradient><linearGradient id="linear-gradient-41" x1="39.3" y1="2436.61" x2="39.3" y2="0.61" xlink:href="#linear-gradient"/><linearGradient id="linear-gradient-42" x1="-27.69" y1="2214.23" x2="69.13" y2="2046.52" xlink:href="#linear-gradient-40"/><linearGradient id="linear-gradient-43" x1="127.94" y1="2436.61" x2="127.94" y2="0.61" xlink:href="#linear-gradient"/><linearGradient id="linear-gradient-44" x1="92.51" y1="2116.69" x2="188.85" y2="1949.82" xlink:href="#linear-gradient-40"/><linearGradient id="linear-gradient-45" x1="268.4" y1="2436.61" x2="268.4" y2="0.61" xlink:href="#linear-gradient"/><linearGradient id="linear-gradient-46" x1="234.34" y1="2200.45" x2="330.88" y2="2033.25" xlink:href="#linear-gradient-40"/><linearGradient id="linear-gradient-47" x1="412.65" y1="2436.61" x2="412.65" y2="0.61" xlink:href="#linear-gradient"/><linearGradient id="linear-gradient-48" x1="377.54" y1="2116.52" x2="473.59" y2="1950.15" xlink:href="#linear-gradient-40"/><linearGradient id="linear-gradient-49" x1="553.69" y1="2436.61" x2="553.69" y2="0.61" xlink:href="#linear-gradient"/><linearGradient id="linear-gradient-50" x1="519.81" y1="2200.21" x2="616.06" y2="2033.5" xlink:href="#linear-gradient-40"/><linearGradient id="linear-gradient-51" x1="697.35" y1="2436.61" x2="697.35" y2="0.61" xlink:href="#linear-gradient"/><linearGradient id="linear-gradient-52" x1="662.43" y1="2116.27" x2="758.19" y2="1950.4" xlink:href="#linear-gradient-40"/><linearGradient id="linear-gradient-53" x1="838.97" y1="2436.61" x2="838.97" y2="0.61" xlink:href="#linear-gradient"/><linearGradient id="linear-gradient-54" x1="805.28" y1="2199.96" x2="901.24" y2="2033.75" xlink:href="#linear-gradient-40"/><linearGradient id="linear-gradient-55" x1="1077.08" y1="2436.61" x2="1077.08" y2="0.61" xlink:href="#linear-gradient"/><linearGradient id="linear-gradient-56" x1="1073.22" y1="2189.58" x2="1168.89" y2="2023.88" xlink:href="#linear-gradient-40"/><linearGradient id="linear-gradient-57" x1="982.06" y1="2436.61" x2="982.06" y2="0.61" xlink:href="#linear-gradient"/><linearGradient id="linear-gradient-58" x1="947.32" y1="2116.02" x2="1042.79" y2="1950.65" xlink:href="#linear-gradient-40"/><linearGradient id="linear-gradient-59" x1="-39.42" y1="2038.65" x2="56.72" y2="1872.12" gradientTransform="matrix(1, 0.02, -0.02, 1, 19.12, -8.55)" gradientUnits="userSpaceOnUse"><stop offset="0" stop-color="#831128"/><stop offset="1" stop-color="#781123"/></linearGradient><linearGradient id="linear-gradient-60" x1="41.57" y1="2436.61" x2="41.57" y2="0.61" xlink:href="#linear-gradient"/><linearGradient id="linear-gradient-61" x1="-26.89" y1="2045.88" x2="69.26" y2="1879.36" xlink:href="#linear-gradient-59"/><linearGradient id="linear-gradient-62" x1="132.27" y1="2436.61" x2="132.27" y2="0.61" xlink:href="#linear-gradient"/><linearGradient id="linear-gradient-63" x1="94.57" y1="1950.08" x2="190.23" y2="1784.39" xlink:href="#linear-gradient-59"/><linearGradient id="linear-gradient-64" x1="272.17" y1="2436.61" x2="272.17" y2="0.61" xlink:href="#linear-gradient"/><linearGradient id="linear-gradient-65" x1="235.77" y1="2033.13" x2="331.62" y2="1867.1" xlink:href="#linear-gradient-59"/><linearGradient id="linear-gradient-66" x1="415.83" y1="2436.61" x2="415.83" y2="0.61" xlink:href="#linear-gradient"/><linearGradient id="linear-gradient-67" x1="378.45" y1="1949.91" x2="473.82" y2="1784.72" xlink:href="#linear-gradient-59"/><linearGradient id="linear-gradient-68" x1="556.31" y1="2436.61" x2="556.31" y2="0.61" xlink:href="#linear-gradient"/><linearGradient id="linear-gradient-69" x1="520.15" y1="2032.92" x2="615.72" y2="1867.4" xlink:href="#linear-gradient-59"/><linearGradient id="linear-gradient-70" x1="699.39" y1="2436.61" x2="699.39" y2="0.61" xlink:href="#linear-gradient"/><linearGradient id="linear-gradient-71" x1="662.19" y1="1949.67" x2="757.28" y2="1784.97" xlink:href="#linear-gradient-59"/><linearGradient id="linear-gradient-72" x1="840.44" y1="2436.61" x2="840.44" y2="0.61" xlink:href="#linear-gradient"/><linearGradient id="linear-gradient-73" x1="804.47" y1="2032.68" x2="899.75" y2="1867.64" xlink:href="#linear-gradient-59"/><linearGradient id="linear-gradient-74" x1="1077.43" y1="2436.61" x2="1077.43" y2="0.61" xlink:href="#linear-gradient"/><linearGradient id="linear-gradient-75" x1="1071.2" y1="2022.28" x2="1166.2" y2="1857.74" xlink:href="#linear-gradient-59"/><linearGradient id="linear-gradient-76" x1="982.95" y1="2436.61" x2="982.95" y2="0.61" xlink:href="#linear-gradient"/><linearGradient id="linear-gradient-77" x1="945.93" y1="1949.42" x2="1040.74" y2="1785.22" xlink:href="#linear-gradient-59"/><linearGradient id="linear-gradient-78" x1="-40.46" y1="1870.59" x2="55" y2="1705.24" gradientTransform="matrix(1, 0.02, -0.02, 1, 19.12, -8.55)" gradientUnits="userSpaceOnUse"><stop offset="0" stop-color="#96122e"/><stop offset="1" stop-color="#891229"/></linearGradient><linearGradient id="linear-gradient-79" x1="43.82" y1="2436.61" x2="43.82" y2="0.61" xlink:href="#linear-gradient"/><linearGradient id="linear-gradient-80" x1="-26.09" y1="1878.89" x2="69.38" y2="1713.54" xlink:href="#linear-gradient-78"/><linearGradient id="linear-gradient-81" x1="136.56" y1="2436.61" x2="136.56" y2="0.61" xlink:href="#linear-gradient"/><linearGradient id="linear-gradient-82" x1="96.61" y1="1784.81" x2="191.6" y2="1620.29" xlink:href="#linear-gradient-78"/><linearGradient id="linear-gradient-83" x1="275.91" y1="2436.61" x2="275.91" y2="0.61" xlink:href="#linear-gradient"/><linearGradient id="linear-gradient-84" x1="237.18" y1="1867.16" x2="332.36" y2="1702.3" xlink:href="#linear-gradient-78"/><linearGradient id="linear-gradient-85" x1="418.98" y1="2436.61" x2="418.98" y2="0.61" xlink:href="#linear-gradient"/><linearGradient id="linear-gradient-86" x1="379.28" y1="1784.6" x2="473.99" y2="1620.57" xlink:href="#linear-gradient-78"/><linearGradient id="linear-gradient-87" x1="558.9" y1="2436.61" x2="558.9" y2="0.61" xlink:href="#linear-gradient"/><linearGradient id="linear-gradient-88" x1="520.49" y1="1866.99" x2="615.39" y2="1702.63" xlink:href="#linear-gradient-78"/><linearGradient id="linear-gradient-89" x1="701.41" y1="2436.61" x2="701.41" y2="0.61" xlink:href="#linear-gradient"/><linearGradient id="linear-gradient-90" x1="661.96" y1="1784.4" x2="756.38" y2="1620.86" xlink:href="#linear-gradient-78"/><linearGradient id="linear-gradient-91" x1="841.89" y1="2436.61" x2="841.89" y2="0.61" xlink:href="#linear-gradient"/><linearGradient id="linear-gradient-92" x1="803.66" y1="1866.74" x2="898.27" y2="1702.87" xlink:href="#linear-gradient-78"/><linearGradient id="linear-gradient-93" x1="1077.78" y1="2436.61" x2="1077.78" y2="0.61" xlink:href="#linear-gradient"/><linearGradient id="linear-gradient-94" x1="1069.2" y1="1856.32" x2="1163.53" y2="1692.94" xlink:href="#linear-gradient-78"/><linearGradient id="linear-gradient-95" x1="983.83" y1="2436.61" x2="983.83" y2="0.61" xlink:href="#linear-gradient"/><linearGradient id="linear-gradient-96" x1="944.56" y1="1784.16" x2="1038.7" y2="1621.1" xlink:href="#linear-gradient-78"/><linearGradient id="linear-gradient-97" x1="-41.49" y1="1703.89" x2="53.3" y2="1539.7" gradientTransform="matrix(1, 0.02, -0.02, 1, 19.12, -8.55)" gradientUnits="userSpaceOnUse"><stop offset="0" stop-color="#a91434"/><stop offset="1" stop-color="#9c142f"/></linearGradient><linearGradient id="linear-gradient-98" x1="46.05" y1="2436.61" x2="46.05" y2="0.61" xlink:href="#linear-gradient"/><linearGradient id="linear-gradient-99" x1="-25.3" y1="1713.24" x2="69.5" y2="1549.05" xlink:href="#linear-gradient-97"/><linearGradient id="linear-gradient-100" x1="140.82" y1="2436.61" x2="140.82" y2="0.61" xlink:href="#linear-gradient"/><linearGradient id="linear-gradient-101" x1="98.64" y1="1620.86" x2="192.96" y2="1457.49" xlink:href="#linear-gradient-97"/><linearGradient id="linear-gradient-102" x1="279.62" y1="2436.61" x2="279.62" y2="0.61" xlink:href="#linear-gradient"/><linearGradient id="linear-gradient-103" x1="238.65" y1="1702.55" x2="333.16" y2="1538.85" xlink:href="#linear-gradient-97"/><linearGradient id="linear-gradient-104" x1="422.11" y1="2436.61" x2="422.11" y2="0.61" xlink:href="#linear-gradient"/><linearGradient id="linear-gradient-105" x1="380.11" y1="1620.62" x2="474.15" y2="1457.73" xlink:href="#linear-gradient-97"/><linearGradient id="linear-gradient-106" x1="561.48" y1="2436.61" x2="561.48" y2="0.61" xlink:href="#linear-gradient"/><linearGradient id="linear-gradient-107" x1="520.82" y1="1702.39" x2="615.05" y2="1539.17" xlink:href="#linear-gradient-97"/><linearGradient id="linear-gradient-108" x1="703.41" y1="2436.61" x2="703.41" y2="0.61" xlink:href="#linear-gradient"/><linearGradient id="linear-gradient-109" x1="661.72" y1="1620.46" x2="755.48" y2="1458.06" xlink:href="#linear-gradient-97"/><linearGradient id="linear-gradient-110" x1="843.34" y1="2436.61" x2="843.34" y2="0.61" xlink:href="#linear-gradient"/><linearGradient id="linear-gradient-111" x1="802.86" y1="1702.14" x2="896.81" y2="1539.42" xlink:href="#linear-gradient-97"/><linearGradient id="linear-gradient-112" x1="1078.12" y1="2436.61" x2="1078.12" y2="0.61" xlink:href="#linear-gradient"/><linearGradient id="linear-gradient-113" x1="1067.22" y1="1691.7" x2="1160.89" y2="1529.46" xlink:href="#linear-gradient-97"/><linearGradient id="linear-gradient-114" x1="984.7" y1="2436.61" x2="984.7" y2="0.61" xlink:href="#linear-gradient"/><linearGradient id="linear-gradient-115" x1="943.19" y1="1620.21" x2="1036.67" y2="1458.3" xlink:href="#linear-gradient-97"/><linearGradient id="linear-gradient-116" x1="-42.52" y1="1538.52" x2="51.62" y2="1375.47" gradientTransform="matrix(1, 0.02, -0.02, 1, 19.12, -8.55)" gradientUnits="userSpaceOnUse"><stop offset="0" stop-color="#b61637"/><stop offset="1" stop-color="#a9152f"/></linearGradient><linearGradient id="linear-gradient-117" x1="48.27" y1="2436.61" x2="48.27" y2="0.61" xlink:href="#linear-gradient"/><linearGradient id="linear-gradient-118" x1="-24.52" y1="1548.91" x2="69.62" y2="1385.86" xlink:href="#linear-gradient-116"/><linearGradient id="linear-gradient-119" x1="145.05" y1="2436.61" x2="145.05" y2="0.61" xlink:href="#linear-gradient"/><linearGradient id="linear-gradient-120" x1="100.65" y1="1458.23" x2="194.32" y2="1295.99" xlink:href="#linear-gradient-116"/><linearGradient id="linear-gradient-121" x1="283.3" y1="2436.61" x2="283.3" y2="0.61" xlink:href="#linear-gradient"/><linearGradient id="linear-gradient-122" x1="240.1" y1="1539.26" x2="333.96" y2="1376.7" xlink:href="#linear-gradient-116"/><linearGradient id="linear-gradient-123" x1="425.22" y1="2436.61" x2="425.22" y2="0.61" xlink:href="#linear-gradient"/><linearGradient id="linear-gradient-124" x1="381" y1="1457.98" x2="474.39" y2="1296.23" xlink:href="#linear-gradient-116"/><linearGradient id="linear-gradient-125" x1="564.04" y1="2436.61" x2="564.04" y2="0.61" xlink:href="#linear-gradient"/><linearGradient id="linear-gradient-126" x1="521.08" y1="1539.06" x2="614.65" y2="1376.98" xlink:href="#linear-gradient-116"/><linearGradient id="linear-gradient-127" x1="705.4" y1="2436.61" x2="705.4" y2="0.61" xlink:href="#linear-gradient"/><linearGradient id="linear-gradient-128" x1="661.48" y1="1457.82" x2="754.59" y2="1296.55" xlink:href="#linear-gradient-116"/><linearGradient id="linear-gradient-129" x1="844.77" y1="2436.61" x2="844.77" y2="0.61" xlink:href="#linear-gradient"/><linearGradient id="linear-gradient-130" x1="802.06" y1="1538.86" x2="895.35" y2="1377.26" xlink:href="#linear-gradient-116"/><linearGradient id="linear-gradient-131" x1="1078.46" y1="2436.61" x2="1078.46" y2="0.61" xlink:href="#linear-gradient"/><linearGradient id="linear-gradient-132" x1="1065.25" y1="1528.39" x2="1158.27" y2="1367.28" xlink:href="#linear-gradient-116"/><linearGradient id="linear-gradient-133" x1="985.57" y1="2436.61" x2="985.57" y2="0.61" xlink:href="#linear-gradient"/><linearGradient id="linear-gradient-134" x1="941.84" y1="1457.58" x2="1034.67" y2="1296.79" xlink:href="#linear-gradient-116"/><linearGradient id="linear-gradient-135" x1="-43.53" y1="1374.46" x2="49.95" y2="1212.55" gradientTransform="matrix(1, 0.02, -0.02, 1, 19.12, -8.55)" gradientUnits="userSpaceOnUse"><stop offset="0" stop-color="#c4193c"/><stop offset="1" stop-color="#b51630"/></linearGradient><linearGradient id="linear-gradient-136" x1="50.47" y1="2436.61" x2="50.47" y2="0.61" xlink:href="#linear-gradient"/><linearGradient id="linear-gradient-137" x1="-23.74" y1="1385.89" x2="69.74" y2="1223.97" xlink:href="#linear-gradient-135"/><linearGradient id="linear-gradient-138" x1="149.24" y1="2436.61" x2="149.24" y2="0.61" xlink:href="#linear-gradient"/><linearGradient id="linear-gradient-139" x1="102.64" y1="1296.88" x2="195.66" y2="1135.76" xlink:href="#linear-gradient-135"/><linearGradient id="linear-gradient-140" x1="286.95" y1="2436.61" x2="286.95" y2="0.61" xlink:href="#linear-gradient"/><linearGradient id="linear-gradient-141" x1="241.54" y1="1377.27" x2="334.75" y2="1215.84" xlink:href="#linear-gradient-135"/><linearGradient id="linear-gradient-142" x1="428.3" y1="2436.61" x2="428.3" y2="0.61" xlink:href="#linear-gradient"/><linearGradient id="linear-gradient-143" x1="381.88" y1="1296.64" x2="474.62" y2="1136" xlink:href="#linear-gradient-135"/><linearGradient id="linear-gradient-144" x1="566.57" y1="2436.61" x2="566.57" y2="0.61" xlink:href="#linear-gradient"/><linearGradient id="linear-gradient-145" x1="521.34" y1="1377.03" x2="614.26" y2="1216.08" xlink:href="#linear-gradient-135"/><linearGradient id="linear-gradient-146" x1="707.37" y1="2436.61" x2="707.37" y2="0.61" xlink:href="#linear-gradient"/><linearGradient id="linear-gradient-147" x1="661.18" y1="1296.44" x2="753.65" y2="1136.28" xlink:href="#linear-gradient-135"/><linearGradient id="linear-gradient-148" x1="846.19" y1="2436.61" x2="846.19" y2="0.61" xlink:href="#linear-gradient"/><linearGradient id="linear-gradient-149" x1="801.27" y1="1376.87" x2="893.91" y2="1216.4" xlink:href="#linear-gradient-135"/><linearGradient id="linear-gradient-150" x1="1078.8" y1="2436.61" x2="1078.8" y2="0.61" xlink:href="#linear-gradient"/><linearGradient id="linear-gradient-151" x1="1063.3" y1="1366.38" x2="1155.67" y2="1206.38" xlink:href="#linear-gradient-135"/><linearGradient id="linear-gradient-152" x1="986.43" y1="2436.61" x2="986.43" y2="0.61" xlink:href="#linear-gradient"/><linearGradient id="linear-gradient-153" x1="940.49" y1="1296.24" x2="1032.68" y2="1136.56" xlink:href="#linear-gradient-135"/><linearGradient id="linear-gradient-154" x1="-44.55" y1="1211.7" x2="48.29" y2="1050.91" gradientTransform="matrix(1, 0.02, -0.02, 1, 19.12, -8.55)" gradientUnits="userSpaceOnUse"><stop offset="0" stop-color="#d0223a"/><stop offset="1" stop-color="#c21a2b"/></linearGradient><linearGradient id="linear-gradient-155" x1="52.65" y1="2436.61" x2="52.65" y2="0.61" xlink:href="#linear-gradient"/><linearGradient id="linear-gradient-156" x1="-22.97" y1="1224.16" x2="69.86" y2="1063.36" xlink:href="#linear-gradient-154"/><linearGradient id="linear-gradient-157" x1="153.4" y1="2436.61" x2="153.4" y2="0.61" xlink:href="#linear-gradient"/><linearGradient id="linear-gradient-158" x1="104.62" y1="1136.81" x2="196.99" y2="976.8" xlink:href="#linear-gradient-154"/><linearGradient id="linear-gradient-159" x1="290.58" y1="2436.61" x2="290.58" y2="0.61" xlink:href="#linear-gradient"/><linearGradient id="linear-gradient-160" x1="242.97" y1="1216.56" x2="335.53" y2="1056.25" xlink:href="#linear-gradient-154"/><linearGradient id="linear-gradient-161" x1="431.36" y1="2436.61" x2="431.36" y2="0.61" xlink:href="#linear-gradient"/><linearGradient id="linear-gradient-162" x1="382.75" y1="1136.57" x2="474.85" y2="977.04" xlink:href="#linear-gradient-154"/><linearGradient id="linear-gradient-163" x1="569.09" y1="2436.61" x2="569.09" y2="0.61" xlink:href="#linear-gradient"/><linearGradient id="linear-gradient-164" x1="521.66" y1="1216.33" x2="613.94" y2="1056.48" xlink:href="#linear-gradient-154"/><linearGradient id="linear-gradient-165" x1="709.32" y1="2436.61" x2="709.32" y2="0.61" xlink:href="#linear-gradient"/><linearGradient id="linear-gradient-166" x1="660.88" y1="1136.33" x2="752.71" y2="977.28" xlink:href="#linear-gradient-154"/><linearGradient id="linear-gradient-167" x1="847.6" y1="2436.61" x2="847.6" y2="0.61" xlink:href="#linear-gradient"/><linearGradient id="linear-gradient-168" x1="800.48" y1="1216.16" x2="892.48" y2="1056.8" xlink:href="#linear-gradient-154"/><linearGradient id="linear-gradient-169" x1="1079.14" y1="2436.61" x2="1079.14" y2="0.61" xlink:href="#linear-gradient"/><linearGradient id="linear-gradient-170" x1="1061.36" y1="1205.65" x2="1153.09" y2="1046.76" xlink:href="#linear-gradient-154"/><linearGradient id="linear-gradient-171" x1="987.28" y1="2436.61" x2="987.28" y2="0.61" xlink:href="#linear-gradient"/><linearGradient id="linear-gradient-172" x1="939.16" y1="1136.17" x2="1030.71" y2="977.6" xlink:href="#linear-gradient-154"/><linearGradient id="linear-gradient-173" x1="-45.55" y1="1050.23" x2="46.65" y2="890.54" gradientTransform="matrix(1, 0.02, -0.02, 1, 19.12, -8.55)" gradientUnits="userSpaceOnUse"><stop offset="0" stop-color="#dc2c37"/><stop offset="1" stop-color="#d01f26"/></linearGradient><linearGradient id="linear-gradient-174" x1="54.81" y1="2436.61" x2="54.81" y2="0.61" xlink:href="#linear-gradient"/><linearGradient id="linear-gradient-175" x1="-22.22" y1="1063.7" x2="69.98" y2="904.01" xlink:href="#linear-gradient-173"/><linearGradient id="linear-gradient-176" x1="157.52" y1="2436.61" x2="157.52" y2="0.61" xlink:href="#linear-gradient"/><linearGradient id="linear-gradient-177" x1="106.57" y1="978" x2="198.32" y2="819.09" xlink:href="#linear-gradient-173"/><linearGradient id="linear-gradient-178" x1="294.17" y1="2436.61" x2="294.17" y2="0.61" xlink:href="#linear-gradient"/><linearGradient id="linear-gradient-179" x1="244.39" y1="1057.13" x2="336.31" y2="897.91" xlink:href="#linear-gradient-173"/><linearGradient id="linear-gradient-180" x1="434.39" y1="2436.61" x2="434.39" y2="0.61" xlink:href="#linear-gradient"/><linearGradient id="linear-gradient-181" x1="383.61" y1="977.76" x2="475.08" y2="819.33" xlink:href="#linear-gradient-173"/><linearGradient id="linear-gradient-182" x1="571.59" y1="2436.61" x2="571.59" y2="0.61" xlink:href="#linear-gradient"/><linearGradient id="linear-gradient-183" x1="521.98" y1="1056.89" x2="613.62" y2="898.15" xlink:href="#linear-gradient-173"/><linearGradient id="linear-gradient-184" x1="711.26" y1="2436.61" x2="711.26" y2="0.61" xlink:href="#linear-gradient"/><linearGradient id="linear-gradient-185" x1="660.65" y1="977.52" x2="751.85" y2="819.56" xlink:href="#linear-gradient-173"/><linearGradient id="linear-gradient-186" x1="849" y1="2436.61" x2="849" y2="0.61" xlink:href="#linear-gradient"/><linearGradient id="linear-gradient-187" x1="799.63" y1="1056.69" x2="891" y2="898.42" xlink:href="#linear-gradient-173"/><linearGradient id="linear-gradient-188" x1="1079.47" y1="2436.61" x2="1079.47" y2="0.61" xlink:href="#linear-gradient"/><linearGradient id="linear-gradient-189" x1="1059.44" y1="1046.19" x2="1150.54" y2="888.4" xlink:href="#linear-gradient-173"/><linearGradient id="linear-gradient-190" x1="988.13" y1="2436.61" x2="988.13" y2="0.61" xlink:href="#linear-gradient"/><linearGradient id="linear-gradient-191" x1="937.83" y1="977.36" x2="1028.75" y2="819.88" xlink:href="#linear-gradient-173"/><linearGradient id="linear-gradient-192" x1="-46.55" y1="890.03" x2="45.02" y2="731.44" gradientTransform="matrix(1, 0.02, -0.02, 1, 19.12, -8.55)" gradientUnits="userSpaceOnUse"><stop offset="0" stop-color="#e3362f"/><stop offset="1" stop-color="#db2728"/></linearGradient><linearGradient id="linear-gradient-193" x1="56.96" y1="2436.61" x2="56.96" y2="0.61" xlink:href="#linear-gradient"/><linearGradient id="linear-gradient-194" x1="-21.47" y1="904.51" x2="70.1" y2="745.92" xlink:href="#linear-gradient-192"/><linearGradient id="linear-gradient-195" x1="161.62" y1="2436.61" x2="161.62" y2="0.61" xlink:href="#linear-gradient"/><linearGradient id="linear-gradient-196" x1="108.52" y1="820.43" x2="199.63" y2="662.62" xlink:href="#linear-gradient-192"/><linearGradient id="linear-gradient-197" x1="297.74" y1="2436.61" x2="297.74" y2="0.61" xlink:href="#linear-gradient"/><linearGradient id="linear-gradient-198" x1="245.8" y1="898.94" x2="337.09" y2="740.82" xlink:href="#linear-gradient-192"/><linearGradient id="linear-gradient-199" x1="437.4" y1="2436.61" x2="437.4" y2="0.61" xlink:href="#linear-gradient"/><linearGradient id="linear-gradient-200" x1="384.47" y1="820.2" x2="475.32" y2="662.85" xlink:href="#linear-gradient-192"/><linearGradient id="linear-gradient-201" x1="574.06" y1="2436.61" x2="574.06" y2="0.61" xlink:href="#linear-gradient"/><linearGradient id="linear-gradient-202" x1="522.29" y1="898.71" x2="613.31" y2="741.05" xlink:href="#linear-gradient-192"/><linearGradient id="linear-gradient-203" x1="713.19" y1="2436.61" x2="713.19" y2="0.61" xlink:href="#linear-gradient"/><linearGradient id="linear-gradient-204" x1="660.42" y1="819.96" x2="751" y2="663.08" xlink:href="#linear-gradient-192"/><linearGradient id="linear-gradient-205" x1="850.39" y1="2436.61" x2="850.39" y2="0.61" xlink:href="#linear-gradient"/><linearGradient id="linear-gradient-206" x1="798.79" y1="898.47" x2="889.54" y2="741.29" xlink:href="#linear-gradient-192"/><linearGradient id="linear-gradient-207" x1="1079.8" y1="2436.61" x2="1079.8" y2="0.61" xlink:href="#linear-gradient"/><linearGradient id="linear-gradient-208" x1="1057.52" y1="887.98" x2="1148" y2="731.27" xlink:href="#linear-gradient-192"/><linearGradient id="linear-gradient-209" x1="988.97" y1="2436.61" x2="988.97" y2="0.61" xlink:href="#linear-gradient"/><linearGradient id="linear-gradient-210" x1="936.44" y1="819.77" x2="1026.75" y2="663.35" xlink:href="#linear-gradient-192"/><linearGradient id="linear-gradient-211" x1="-47.54" y1="731.08" x2="43.4" y2="573.57" gradientTransform="matrix(1, 0.02, -0.02, 1, 19.12, -8.55)" gradientUnits="userSpaceOnUse"><stop offset="0" stop-color="#ea4227"/><stop offset="1" stop-color="#e6302c"/></linearGradient><linearGradient id="linear-gradient-212" x1="59.08" y1="2436.61" x2="59.08" y2="0.61" xlink:href="#linear-gradient"/><linearGradient id="linear-gradient-213" x1="-20.72" y1="746.56" x2="70.22" y2="589.05" xlink:href="#linear-gradient-211"/><linearGradient id="linear-gradient-214" x1="165.68" y1="2436.61" x2="165.68" y2="0.61" xlink:href="#linear-gradient"/><linearGradient id="linear-gradient-215" x1="110.44" y1="664.1" x2="200.94" y2="507.36" xlink:href="#linear-gradient-211"/><linearGradient id="linear-gradient-216" x1="301.27" y1="2436.61" x2="301.27" y2="0.61" xlink:href="#linear-gradient"/><linearGradient id="linear-gradient-217" x1="247.19" y1="742" x2="337.86" y2="584.95" xlink:href="#linear-gradient-211"/><linearGradient id="linear-gradient-218" x1="440.39" y1="2436.61" x2="440.39" y2="0.61" xlink:href="#linear-gradient"/><linearGradient id="linear-gradient-219" x1="385.32" y1="663.87" x2="475.55" y2="507.59" xlink:href="#linear-gradient-211"/><linearGradient id="linear-gradient-220" x1="576.52" y1="2436.61" x2="576.52" y2="0.61" xlink:href="#linear-gradient"/><linearGradient id="linear-gradient-221" x1="522.6" y1="741.76" x2="613" y2="585.19" xlink:href="#linear-gradient-211"/><linearGradient id="linear-gradient-222" x1="715.09" y1="2436.61" x2="715.09" y2="0.61" xlink:href="#linear-gradient"/><linearGradient id="linear-gradient-223" x1="660.19" y1="663.64" x2="750.15" y2="507.82" xlink:href="#linear-gradient-211"/><linearGradient id="linear-gradient-224" x1="851.76" y1="2436.61" x2="851.76" y2="0.61" xlink:href="#linear-gradient"/><linearGradient id="linear-gradient-225" x1="798.02" y1="741.53" x2="888.15" y2="585.42" xlink:href="#linear-gradient-211"/><linearGradient id="linear-gradient-226" x1="1080.13" y1="2436.61" x2="1080.13" y2="0.61" xlink:href="#linear-gradient"/><linearGradient id="linear-gradient-227" x1="1055.62" y1="731.02" x2="1145.49" y2="575.37" xlink:href="#linear-gradient-211"/><linearGradient id="linear-gradient-228" x1="989.8" y1="2436.61" x2="989.8" y2="0.61" xlink:href="#linear-gradient"/><linearGradient id="linear-gradient-229" x1="935.07" y1="663.4" x2="1024.76" y2="508.05" xlink:href="#linear-gradient-211"/><linearGradient id="linear-gradient-230" x1="-48.52" y1="573.37" x2="41.8" y2="416.93" gradientTransform="matrix(1, 0.02, -0.02, 1, 19.12, -8.55)" gradientUnits="userSpaceOnUse"><stop offset="0" stop-color="#ef5127"/><stop offset="1" stop-color="#eb412a"/></linearGradient><linearGradient id="linear-gradient-231" x1="61.2" y1="2436.61" x2="61.2" y2="0.61" xlink:href="#linear-gradient"/><linearGradient id="linear-gradient-232" x1="-19.99" y1="589.85" x2="70.34" y2="433.41" xlink:href="#linear-gradient-230"/><linearGradient id="linear-gradient-233" x1="169.71" y1="2436.61" x2="169.71" y2="0.61" xlink:href="#linear-gradient"/><linearGradient id="linear-gradient-234" x1="112.35" y1="508.99" x2="202.23" y2="353.31" xlink:href="#linear-gradient-230"/><linearGradient id="linear-gradient-235" x1="304.78" y1="2436.61" x2="304.78" y2="0.61" xlink:href="#linear-gradient"/><linearGradient id="linear-gradient-236" x1="248.57" y1="586.28" x2="338.62" y2="430.3" xlink:href="#linear-gradient-230"/><linearGradient id="linear-gradient-237" x1="443.35" y1="2436.61" x2="443.35" y2="0.61" xlink:href="#linear-gradient"/><linearGradient id="linear-gradient-238" x1="386.16" y1="508.75" x2="475.77" y2="353.54" xlink:href="#linear-gradient-230"/><linearGradient id="linear-gradient-239" x1="578.96" y1="2436.61" x2="578.96" y2="0.61" xlink:href="#linear-gradient"/><linearGradient id="linear-gradient-240" x1="522.91" y1="586.04" x2="612.7" y2="430.53" xlink:href="#linear-gradient-230"/><linearGradient id="linear-gradient-241" x1="716.99" y1="2436.61" x2="716.99" y2="0.61" xlink:href="#linear-gradient"/><linearGradient id="linear-gradient-242" x1="659.97" y1="508.52" x2="749.32" y2="353.77" xlink:href="#linear-gradient-230"/><linearGradient id="linear-gradient-243" x1="853.13" y1="2436.61" x2="853.13" y2="0.61" xlink:href="#linear-gradient"/><linearGradient id="linear-gradient-244" x1="797.25" y1="585.81" x2="886.77" y2="430.76" xlink:href="#linear-gradient-230"/><linearGradient id="linear-gradient-245" x1="1080.46" y1="2436.61" x2="1080.46" y2="0.61" xlink:href="#linear-gradient"/><linearGradient id="linear-gradient-246" x1="1053.67" y1="575.24" x2="1142.93" y2="420.65" xlink:href="#linear-gradient-230"/><linearGradient id="linear-gradient-247" x1="990.63" y1="2436.61" x2="990.63" y2="0.61" xlink:href="#linear-gradient"/><linearGradient id="linear-gradient-248" x1="933.77" y1="508.29" x2="1022.86" y2="354" xlink:href="#linear-gradient-230"/><linearGradient id="linear-gradient-249" x1="-49.5" y1="416.89" x2="40.21" y2="261.51" gradientTransform="matrix(1, 0.02, -0.02, 1, 19.12, -8.55)" gradientUnits="userSpaceOnUse"><stop offset="0" stop-color="#f56126"/><stop offset="1" stop-color="#f25527"/></linearGradient><linearGradient id="linear-gradient-250" x1="63.29" y1="2436.61" x2="63.29" y2="0.61" xlink:href="#linear-gradient"/><linearGradient id="linear-gradient-251" x1="-19.26" y1="434.35" x2="70.45" y2="278.97" xlink:href="#linear-gradient-249"/><linearGradient id="linear-gradient-252" x1="173.71" y1="2436.61" x2="173.71" y2="0.61" xlink:href="#linear-gradient"/><linearGradient id="linear-gradient-253" x1="114.25" y1="355.07" x2="203.52" y2="200.45" xlink:href="#linear-gradient-249"/><linearGradient id="linear-gradient-254" x1="308.27" y1="2436.61" x2="308.27" y2="0.61" xlink:href="#linear-gradient"/><linearGradient id="linear-gradient-255" x1="249.94" y1="431.77" x2="339.38" y2="276.84" xlink:href="#linear-gradient-249"/><linearGradient id="linear-gradient-256" x1="446.29" y1="2436.61" x2="446.29" y2="0.61" xlink:href="#linear-gradient"/><linearGradient id="linear-gradient-257" x1="386.99" y1="354.84" x2="476" y2="200.67" xlink:href="#linear-gradient-249"/><linearGradient id="linear-gradient-258" x1="581.38" y1="2436.61" x2="581.38" y2="0.61" xlink:href="#linear-gradient"/><linearGradient id="linear-gradient-259" x1="523.21" y1="431.54" x2="612.39" y2="277.07" xlink:href="#linear-gradient-249"/><linearGradient id="linear-gradient-260" x1="718.87" y1="2436.61" x2="718.87" y2="0.61" xlink:href="#linear-gradient"/><linearGradient id="linear-gradient-261" x1="659.74" y1="354.62" x2="748.48" y2="200.9" xlink:href="#linear-gradient-249"/><linearGradient id="linear-gradient-262" x1="854.49" y1="2436.61" x2="854.49" y2="0.61" xlink:href="#linear-gradient"/><linearGradient id="linear-gradient-263" x1="796.49" y1="431.31" x2="885.4" y2="277.3" xlink:href="#linear-gradient-249"/><linearGradient id="linear-gradient-264" x1="1080.78" y1="2436.61" x2="1080.78" y2="0.61" xlink:href="#linear-gradient"/><linearGradient id="linear-gradient-265" x1="1051.74" y1="420.67" x2="1140.39" y2="267.12" xlink:href="#linear-gradient-249"/><linearGradient id="linear-gradient-266" x1="991.45" y1="2436.61" x2="991.45" y2="0.61" xlink:href="#linear-gradient"/><linearGradient id="linear-gradient-267" x1="932.48" y1="354.39" x2="1020.97" y2="201.13" xlink:href="#linear-gradient-249"/><linearGradient id="linear-gradient-268" x1="-50.47" y1="261.62" x2="38.64" y2="107.29" gradientTransform="matrix(1, 0.02, -0.02, 1, 19.12, -8.55)" gradientUnits="userSpaceOnUse"><stop offset="0" stop-color="#f56c34"/><stop offset="1" stop-color="#f2592b"/></linearGradient><linearGradient id="linear-gradient-269" x1="65.37" y1="2436.61" x2="65.37" y2="0.61" xlink:href="#linear-gradient"/><linearGradient id="linear-gradient-270" x1="-18.53" y1="280.06" x2="70.57" y2="125.72" xlink:href="#linear-gradient-268"/><linearGradient id="linear-gradient-271" x1="177.68" y1="2436.61" x2="177.68" y2="0.61" xlink:href="#linear-gradient"/><linearGradient id="linear-gradient-272" x1="116.12" y1="202.35" x2="204.8" y2="48.76" xlink:href="#linear-gradient-268"/><linearGradient id="linear-gradient-273" x1="311.72" y1="2436.61" x2="311.72" y2="0.61" xlink:href="#linear-gradient"/><linearGradient id="linear-gradient-274" x1="251.3" y1="278.45" x2="340.14" y2="124.57" xlink:href="#linear-gradient-268"/><linearGradient id="linear-gradient-275" x1="449.21" y1="2436.61" x2="449.21" y2="0.61" xlink:href="#linear-gradient"/><linearGradient id="linear-gradient-276" x1="387.82" y1="202.12" x2="476.23" y2="48.99" xlink:href="#linear-gradient-268"/><linearGradient id="linear-gradient-277" x1="583.78" y1="2436.61" x2="583.78" y2="0.61" xlink:href="#linear-gradient"/><linearGradient id="linear-gradient-278" x1="523.52" y1="278.22" x2="612.09" y2="124.8" xlink:href="#linear-gradient-268"/><linearGradient id="linear-gradient-279" x1="720.73" y1="2436.61" x2="720.73" y2="0.61" xlink:href="#linear-gradient"/><linearGradient id="linear-gradient-280" x1="659.51" y1="201.9" x2="747.66" y2="49.22" xlink:href="#linear-gradient-268"/><linearGradient id="linear-gradient-281" x1="855.83" y1="2436.61" x2="855.83" y2="0.61" xlink:href="#linear-gradient"/><linearGradient id="linear-gradient-282" x1="795.73" y1="277.99" x2="884.05" y2="125.03" xlink:href="#linear-gradient-268"/><linearGradient id="linear-gradient-283" x1="1081.1" y1="2436.61" x2="1081.1" y2="0.61" xlink:href="#linear-gradient"/><linearGradient id="linear-gradient-284" x1="1049.82" y1="267.3" x2="1137.87" y2="114.78" xlink:href="#linear-gradient-268"/><linearGradient id="linear-gradient-285" x1="992.26" y1="2436.61" x2="992.26" y2="0.61" xlink:href="#linear-gradient"/><linearGradient id="linear-gradient-286" x1="931.21" y1="201.67" x2="1019.09" y2="49.44" xlink:href="#linear-gradient-268"/><linearGradient id="linear-gradient-287" x1="-28.65" y1="120.7" x2="59.86" y2="-32.6" gradientTransform="matrix(1, 0.02, -0.02, 1, 19.12, -8.55)" gradientUnits="userSpaceOnUse"><stop offset="0.01" stop-color="#f47742"/><stop offset="1" stop-color="#f36030"/></linearGradient><linearGradient id="linear-gradient-288" x1="67.44" y1="2436.61" x2="67.44" y2="0.61" xlink:href="#linear-gradient"/><linearGradient id="linear-gradient-289" x1="-10.02" y1="131.46" x2="78.49" y2="-21.84" xlink:href="#linear-gradient-287"/><linearGradient id="linear-gradient-290" x1="131.94" y1="58.86" x2="220.02" y2="-93.7" xlink:href="#linear-gradient-287"/><linearGradient id="linear-gradient-291" x1="181.44" y1="2436.61" x2="181.44" y2="0.61" xlink:href="#linear-gradient"/><linearGradient id="linear-gradient-292" x1="132.19" y1="59" x2="220.27" y2="-93.56" xlink:href="#linear-gradient-287"/><linearGradient id="linear-gradient-293" x1="232.84" y1="114.88" x2="321.08" y2="-37.96" xlink:href="#linear-gradient-287"/><linearGradient id="linear-gradient-294" x1="315.15" y1="2436.61" x2="315.15" y2="0.61" xlink:href="#linear-gradient"/><linearGradient id="linear-gradient-295" x1="252.64" y1="126.32" x2="340.89" y2="-26.53" xlink:href="#linear-gradient-287"/><linearGradient id="linear-gradient-296" x1="400.93" y1="57.68" x2="488.76" y2="-94.43" xlink:href="#linear-gradient-287"/><linearGradient id="linear-gradient-297" x1="452.25" y1="2436.61" x2="452.25" y2="0.61" xlink:href="#linear-gradient"/><linearGradient id="linear-gradient-298" x1="401.19" y1="57.83" x2="489.01" y2="-94.28" xlink:href="#linear-gradient-287"/><linearGradient id="linear-gradient-299" x1="501.95" y1="113.47" x2="589.93" y2="-38.93" xlink:href="#linear-gradient-287"/><linearGradient id="linear-gradient-300" x1="586.16" y1="2436.61" x2="586.16" y2="0.61" xlink:href="#linear-gradient"/><linearGradient id="linear-gradient-301" x1="523.81" y1="126.09" x2="611.8" y2="-26.3" xlink:href="#linear-gradient-287"/><linearGradient id="linear-gradient-302" x1="669.89" y1="56.48" x2="757.45" y2="-95.18" xlink:href="#linear-gradient-287"/><linearGradient id="linear-gradient-303" x1="723.01" y1="2436.61" x2="723.01" y2="0.61" xlink:href="#linear-gradient"/><linearGradient id="linear-gradient-304" x1="670.15" y1="56.63" x2="757.71" y2="-95.03" xlink:href="#linear-gradient-287"/><linearGradient id="linear-gradient-305" x1="771.02" y1="112.03" x2="858.74" y2="-39.91" xlink:href="#linear-gradient-287"/><linearGradient id="linear-gradient-306" x1="857.17" y1="2436.61" x2="857.17" y2="0.61" xlink:href="#linear-gradient"/><linearGradient id="linear-gradient-307" x1="794.98" y1="125.87" x2="882.71" y2="-26.08" xlink:href="#linear-gradient-287"/><linearGradient id="linear-gradient-308" x1="1018.39" y1="98.06" x2="1105.86" y2="-53.43" xlink:href="#linear-gradient-287"/><linearGradient id="linear-gradient-309" x1="1081.42" y1="2436.61" x2="1081.42" y2="0.61" xlink:href="#linear-gradient"/><linearGradient id="linear-gradient-310" x1="1047.91" y1="115.11" x2="1135.37" y2="-36.38" xlink:href="#linear-gradient-287"/><linearGradient id="linear-gradient-311" x1="938.8" y1="55.25" x2="1026.1" y2="-95.96" xlink:href="#linear-gradient-287"/><linearGradient id="linear-gradient-312" x1="993.7" y1="2436.61" x2="993.7" y2="0.61" xlink:href="#linear-gradient"/><linearGradient id="linear-gradient-313" x1="939.07" y1="55.4" x2="1026.37" y2="-95.81" xlink:href="#linear-gradient-287"/></defs><polygon class="cls-1" points="1125.39 2436.61 1125.39 0.61 1125 0.61 1125 134.25 1125 286.47 1125 439.88 1125 594.48 1125 750.29 1125 907.33 1125 1065.61 1125 1225.14 1125 1385.94 1125 1548.03 1125 1711.42 1125 1876.13 1125 2042.17 1125 2209.55 1125 2378.3 1125 2436 1042.45 2436 918.53 2436 752.39 2436 633.54 2436 462.27 2436 348.5 2436 172.09 2436 63.38 2436 0.39 2436 0.39 2436.61 1125.39 2436.61"/><rect class="cls-2" y="2360.63" width="0.39" height="75.37"/><polygon class="cls-3" points="23.5 2361 0.39 2360.64 0.39 2436 63.38 2436 23.5 2361"/><polygon class="cls-4" points="23.5 2361 0.39 2360.64 0.39 2436 63.38 2436 23.5 2361"/><polygon class="cls-5" points="169.12 2278.74 73.64 2277.24 23.5 2361 63.38 2436 172.09 2436 214.85 2364 169.12 2278.74"/><polygon class="cls-6" points="169.12 2278.74 73.64 2277.24 23.5 2361 63.38 2436 172.09 2436 214.85 2364 169.12 2278.74"/><polygon class="cls-7" points="214.85 2364 172.09 2436 348.5 2436 310.53 2365.51 214.85 2364"/><polygon class="cls-8" points="214.85 2364 172.09 2436 348.5 2436 310.53 2365.51 214.85 2364"/><polygon class="cls-9" points="455.56 2283.24 360.08 2281.74 310.53 2365.51 348.5 2436 462.27 2436 501.88 2368.51 455.56 2283.24"/><polygon class="cls-10" points="455.56 2283.24 360.08 2281.74 310.53 2365.51 348.5 2436 462.27 2436 501.88 2368.51 455.56 2283.24"/><polygon class="cls-11" points="501.88 2368.51 462.27 2436 633.54 2436 597.56 2370.02 501.88 2368.51"/><polygon class="cls-12" points="501.88 2368.51 462.27 2436 633.54 2436 597.56 2370.02 501.88 2368.51"/><polygon class="cls-13" points="742.01 2287.74 646.53 2286.24 597.56 2370.02 633.54 2436 752.39 2436 788.91 2373.02 742.01 2287.74"/><polygon class="cls-14" points="742.01 2287.74 646.53 2286.24 597.56 2370.02 633.54 2436 752.39 2436 788.91 2373.02 742.01 2287.74"/><polygon class="cls-15" points="788.91 2373.02 752.39 2436 918.53 2436 884.59 2374.53 788.91 2373.02"/><polygon class="cls-16" points="788.91 2373.02 752.39 2436 918.53 2436 884.59 2374.53 788.91 2373.02"/><polygon class="cls-17" points="1028.46 2292.24 932.98 2290.74 884.59 2374.53 918.53 2436 1042.45 2436 1075.94 2377.53 1028.46 2292.24"/><polygon class="cls-18" points="1028.46 2292.24 932.98 2290.74 884.59 2374.53 918.53 2436 1042.45 2436 1075.94 2377.53 1028.46 2292.24"/><polygon class="cls-19" points="1042.45 2436 1125 2436 1125 2378.3 1075.94 2377.53 1042.45 2436"/><polygon class="cls-20" points="1042.45 2436 1125 2436 1125 2378.3 1075.94 2377.53 1042.45 2436"/><polygon class="cls-21" points="0.39 2191.88 0 2191.88 0 2360.63 0.39 2360.64 0.39 2191.88"/><polygon class="cls-22" points="28.29 2192.32 0.39 2191.88 0.39 2360.64 23.5 2361 73.64 2277.24 28.29 2192.32"/><polygon class="cls-23" points="28.29 2192.32 0.39 2191.88 0.39 2360.64 23.5 2361 73.64 2277.24 28.29 2192.32"/><polygon class="cls-24" points="173.31 2110.74 78.21 2109.24 28.29 2192.32 73.64 2277.24 169.12 2278.74 218.86 2195.32 173.31 2110.74"/><polygon class="cls-25" points="173.31 2110.74 78.21 2109.24 28.29 2192.32 73.64 2277.24 169.12 2278.74 218.86 2195.32 173.31 2110.74"/><polygon class="cls-26" points="218.86 2195.32 169.12 2278.74 214.85 2364 310.53 2365.51 360.08 2281.74 314.15 2196.81 218.86 2195.32"/><polygon class="cls-27" points="218.86 2195.32 169.12 2278.74 214.85 2364 310.53 2365.51 360.08 2281.74 314.15 2196.81 218.86 2195.32"/><polygon class="cls-28" points="458.59 2115.22 363.5 2113.72 314.15 2196.81 360.08 2281.74 455.56 2283.24 504.73 2199.81 458.59 2115.22"/><polygon class="cls-29" points="458.59 2115.22 363.5 2113.72 314.15 2196.81 360.08 2281.74 455.56 2283.24 504.73 2199.81 458.59 2115.22"/><polygon class="cls-30" points="504.73 2199.81 455.56 2283.24 501.88 2368.51 597.56 2370.02 646.53 2286.24 600.01 2201.3 504.73 2199.81"/><polygon class="cls-31" points="504.73 2199.81 455.56 2283.24 501.88 2368.51 597.56 2370.02 646.53 2286.24 600.01 2201.3 504.73 2199.81"/><polygon class="cls-32" points="743.88 2119.7 648.78 2118.21 600.01 2201.3 646.53 2286.24 742.01 2287.74 790.59 2204.3 743.88 2119.7"/><polygon class="cls-33" points="743.88 2119.7 648.78 2118.21 600.01 2201.3 646.53 2286.24 742.01 2287.74 790.59 2204.3 743.88 2119.7"/><polygon class="cls-34" points="790.59 2204.3 742.01 2287.74 788.91 2373.02 884.59 2374.53 932.98 2290.74 885.88 2205.8 790.59 2204.3"/><polygon class="cls-35" points="790.59 2204.3 742.01 2287.74 788.91 2373.02 884.59 2374.53 932.98 2290.74 885.88 2205.8 790.59 2204.3"/><polygon class="cls-36" points="1028.46 2292.24 1075.94 2377.53 1125 2378.3 1125 2209.55 1076.45 2208.79 1028.46 2292.24"/><polygon class="cls-37" points="1028.46 2292.24 1075.94 2377.53 1125 2378.3 1125 2209.55 1076.45 2208.79 1028.46 2292.24"/><polygon class="cls-38" points="885.88 2205.8 932.98 2290.74 1028.46 2292.24 1076.45 2208.79 1029.16 2124.18 934.07 2122.69 885.88 2205.8"/><polygon class="cls-39" points="885.88 2205.8 932.98 2290.74 1028.46 2292.24 1076.45 2208.79 1029.16 2124.18 934.07 2122.69 885.88 2205.8"/><polygon class="cls-40" points="0.39 2024.5 0 2024.49 0 2191.88 0.39 2191.88 0.39 2024.5"/><polygon class="cls-41" points="78.21 2109.24 33.03 2025.01 0.39 2024.5 0.39 2191.88 28.29 2192.32 78.21 2109.24"/><polygon class="cls-42" points="78.21 2109.24 33.03 2025.01 0.39 2024.5 0.39 2191.88 28.29 2192.32 78.21 2109.24"/><polygon class="cls-43" points="222.84 2027.99 177.46 1944.09 82.75 1942.6 33.03 2025.01 78.21 2109.24 173.31 2110.74 222.84 2027.99"/><polygon class="cls-44" points="222.84 2027.99 177.46 1944.09 82.75 1942.6 33.03 2025.01 78.21 2109.24 173.31 2110.74 222.84 2027.99"/><polygon class="cls-45" points="222.84 2027.99 173.31 2110.74 218.86 2195.32 314.15 2196.81 363.5 2113.72 317.74 2029.48 222.84 2027.99"/><polygon class="cls-46" points="222.84 2027.99 173.31 2110.74 218.86 2195.32 314.15 2196.81 363.5 2113.72 317.74 2029.48 222.84 2027.99"/><polygon class="cls-47" points="461.6 1948.56 366.88 1947.07 317.74 2029.48 363.5 2113.72 458.59 2115.22 507.55 2032.46 461.6 1948.56"/><polygon class="cls-48" points="461.6 1948.56 366.88 1947.07 317.74 2029.48 363.5 2113.72 458.59 2115.22 507.55 2032.46 461.6 1948.56"/><polygon class="cls-49" points="507.55 2032.46 458.59 2115.22 504.73 2199.81 600.01 2201.3 648.78 2118.21 602.45 2033.96 507.55 2032.46"/><polygon class="cls-50" points="507.55 2032.46 458.59 2115.22 504.73 2199.81 600.01 2201.3 648.78 2118.21 602.45 2033.96 507.55 2032.46"/><polygon class="cls-51" points="745.73 1953.02 651.02 1951.53 602.45 2033.96 648.78 2118.21 743.88 2119.7 792.26 2036.94 745.73 1953.02"/><polygon class="cls-52" points="745.73 1953.02 651.02 1951.53 602.45 2033.96 648.78 2118.21 743.88 2119.7 792.26 2036.94 745.73 1953.02"/><polygon class="cls-53" points="743.88 2119.7 790.59 2204.3 885.88 2205.8 934.07 2122.69 887.16 2038.43 792.26 2036.94 743.88 2119.7"/><polygon class="cls-54" points="743.88 2119.7 790.59 2204.3 885.88 2205.8 934.07 2122.69 887.16 2038.43 792.26 2036.94 743.88 2119.7"/><polygon class="cls-55" points="1029.16 2124.18 1076.45 2208.79 1125 2209.55 1125 2042.17 1076.96 2041.41 1029.16 2124.18"/><polygon class="cls-56" points="1029.16 2124.18 1076.45 2208.79 1125 2209.55 1125 2042.17 1076.96 2041.41 1029.16 2124.18"/><polygon class="cls-57" points="887.16 2038.43 934.07 2122.69 1029.16 2124.18 1076.96 2041.41 1029.86 1957.48 935.15 1956 887.16 2038.43"/><polygon class="cls-58" points="887.16 2038.43 934.07 2122.69 1029.16 2124.18 1076.96 2041.41 1029.86 1957.48 935.15 1956 887.16 2038.43"/><polygon class="cls-59" points="0.39 1858.46 0 1858.45 0 2024.49 0.39 2024.5 0.39 1858.46"/><polygon class="cls-60" points="82.75 1942.6 37.75 1859.04 0.39 1858.46 0.39 2024.5 33.03 2025.01 82.75 1942.6"/><polygon class="cls-61" points="82.75 1942.6 37.75 1859.04 0.39 1858.46 0.39 2024.5 33.03 2025.01 82.75 1942.6"/><polygon class="cls-62" points="226.79 1862.02 181.58 1778.79 87.25 1777.3 37.75 1859.04 82.75 1942.6 177.46 1944.09 226.79 1862.02"/><polygon class="cls-63" points="226.79 1862.02 181.58 1778.79 87.25 1777.3 37.75 1859.04 82.75 1942.6 177.46 1944.09 226.79 1862.02"/><polygon class="cls-64" points="366.88 1947.07 321.31 1863.5 226.79 1862.02 177.46 1944.09 222.84 2027.99 317.74 2029.48 366.88 1947.07"/><polygon class="cls-65" points="366.88 1947.07 321.31 1863.5 226.79 1862.02 177.46 1944.09 222.84 2027.99 317.74 2029.48 366.88 1947.07"/><polygon class="cls-66" points="464.57 1783.23 370.24 1781.75 321.31 1863.5 366.88 1947.07 461.6 1948.56 510.35 1866.47 464.57 1783.23"/><polygon class="cls-67" points="464.57 1783.23 370.24 1781.75 321.31 1863.5 366.88 1947.07 461.6 1948.56 510.35 1866.47 464.57 1783.23"/><polygon class="cls-68" points="510.35 1866.47 461.6 1948.56 507.55 2032.46 602.45 2033.96 651.02 1951.53 604.87 1867.95 510.35 1866.47"/><polygon class="cls-69" points="510.35 1866.47 461.6 1948.56 507.55 2032.46 602.45 2033.96 651.02 1951.53 604.87 1867.95 510.35 1866.47"/><polygon class="cls-70" points="604.87 1867.95 651.02 1951.53 745.73 1953.02 793.91 1870.93 747.56 1787.68 653.23 1786.2 604.87 1867.95"/><polygon class="cls-71" points="604.87 1867.95 651.02 1951.53 745.73 1953.02 793.91 1870.93 747.56 1787.68 653.23 1786.2 604.87 1867.95"/><polygon class="cls-72" points="745.73 1953.02 792.26 2036.94 887.16 2038.43 935.15 1956 888.43 1872.41 793.91 1870.93 745.73 1953.02"/><polygon class="cls-73" points="745.73 1953.02 792.26 2036.94 887.16 2038.43 935.15 1956 888.43 1872.41 793.91 1870.93 745.73 1953.02"/><polygon class="cls-74" points="1029.86 1957.48 1076.96 2041.41 1125 2042.17 1125 1876.13 1077.47 1875.38 1029.86 1957.48"/><polygon class="cls-75" points="1029.86 1957.48 1076.96 2041.41 1125 2042.17 1125 1876.13 1077.47 1875.38 1029.86 1957.48"/><polygon class="cls-76" points="888.43 1872.41 935.15 1956 1029.86 1957.48 1077.47 1875.38 1030.56 1792.13 936.23 1790.64 888.43 1872.41"/><polygon class="cls-77" points="888.43 1872.41 935.15 1956 1029.86 1957.48 1077.47 1875.38 1030.56 1792.13 936.23 1790.64 888.43 1872.41"/><polygon class="cls-78" points="0.39 1693.75 0 1693.74 0 1858.45 0.39 1858.46 0.39 1693.75"/><polygon class="cls-79" points="87.25 1777.3 42.42 1694.41 0.39 1693.75 0.39 1858.46 37.75 1859.04 87.25 1777.3"/><polygon class="cls-80" points="87.25 1777.3 42.42 1694.41 0.39 1693.75 0.39 1858.46 37.75 1859.04 87.25 1777.3"/><polygon class="cls-81" points="230.7 1697.37 185.67 1614.81 91.72 1613.33 42.42 1694.41 87.25 1777.3 181.58 1778.79 230.7 1697.37"/><polygon class="cls-82" points="230.7 1697.37 185.67 1614.81 91.72 1613.33 42.42 1694.41 87.25 1777.3 181.58 1778.79 230.7 1697.37"/><polygon class="cls-83" points="370.24 1781.75 324.84 1698.85 230.7 1697.37 181.58 1778.79 226.79 1862.02 321.31 1863.5 370.24 1781.75"/><polygon class="cls-84" points="370.24 1781.75 324.84 1698.85 230.7 1697.37 181.58 1778.79 226.79 1862.02 321.31 1863.5 370.24 1781.75"/><polygon class="cls-85" points="513.12 1701.81 467.53 1619.23 373.58 1617.76 324.84 1698.85 370.24 1781.75 464.57 1783.23 513.12 1701.81"/><polygon class="cls-86" points="513.12 1701.81 467.53 1619.23 373.58 1617.76 324.84 1698.85 370.24 1781.75 464.57 1783.23 513.12 1701.81"/><polygon class="cls-87" points="464.57 1783.23 510.35 1866.47 604.87 1867.95 653.23 1786.2 607.26 1703.29 513.12 1701.81 464.57 1783.23"/><polygon class="cls-88" points="464.57 1783.23 510.35 1866.47 604.87 1867.95 653.23 1786.2 607.26 1703.29 513.12 1701.81 464.57 1783.23"/><polygon class="cls-89" points="607.26 1703.29 653.23 1786.2 747.56 1787.68 795.55 1706.24 749.39 1623.66 655.43 1622.19 607.26 1703.29"/><polygon class="cls-90" points="607.26 1703.29 653.23 1786.2 747.56 1787.68 795.55 1706.24 749.39 1623.66 655.43 1622.19 607.26 1703.29"/><polygon class="cls-91" points="747.56 1787.68 793.91 1870.93 888.43 1872.41 936.23 1790.64 889.69 1707.72 795.55 1706.24 747.56 1787.68"/><polygon class="cls-92" points="747.56 1787.68 793.91 1870.93 888.43 1872.41 936.23 1790.64 889.69 1707.72 795.55 1706.24 747.56 1787.68"/><polygon class="cls-93" points="1030.56 1792.13 1077.47 1875.38 1125 1876.13 1125 1711.42 1077.97 1710.68 1030.56 1792.13"/><polygon class="cls-94" points="1030.56 1792.13 1077.47 1875.38 1125 1876.13 1125 1711.42 1077.97 1710.68 1030.56 1792.13"/><polygon class="cls-95" points="889.69 1707.72 936.23 1790.64 1030.56 1792.13 1077.97 1710.68 1031.24 1628.09 937.29 1626.61 889.69 1707.72"/><polygon class="cls-96" points="889.69 1707.72 936.23 1790.64 1030.56 1792.13 1077.97 1710.68 1031.24 1628.09 937.29 1626.61 889.69 1707.72"/><polygon class="cls-97" points="0.39 1530.36 0 1530.36 0 1693.74 0.39 1693.75 0.39 1530.36"/><polygon class="cls-98" points="91.72 1613.33 47.05 1531.1 0.39 1530.36 0.39 1693.75 42.42 1694.41 91.72 1613.33"/><polygon class="cls-99" points="91.72 1613.33 47.05 1531.1 0.39 1530.36 0.39 1693.75 42.42 1694.41 91.72 1613.33"/><polygon class="cls-100" points="234.58 1534.04 189.73 1452.13 96.15 1450.66 47.05 1531.1 91.72 1613.33 185.67 1614.81 234.58 1534.04"/><polygon class="cls-101" points="234.58 1534.04 189.73 1452.13 96.15 1450.66 47.05 1531.1 91.72 1613.33 185.67 1614.81 234.58 1534.04"/><polygon class="cls-102" points="373.58 1617.76 328.35 1535.52 234.58 1534.04 185.67 1614.81 230.7 1697.37 324.84 1698.85 373.58 1617.76"/><polygon class="cls-103" points="373.58 1617.76 328.35 1535.52 234.58 1534.04 185.67 1614.81 230.7 1697.37 324.84 1698.85 373.58 1617.76"/><polygon class="cls-104" points="515.88 1538.46 470.46 1456.54 376.88 1455.07 328.35 1535.52 373.58 1617.76 467.53 1619.23 515.88 1538.46"/><polygon class="cls-105" points="515.88 1538.46 470.46 1456.54 376.88 1455.07 328.35 1535.52 373.58 1617.76 467.53 1619.23 515.88 1538.46"/><polygon class="cls-106" points="467.53 1619.23 513.12 1701.81 607.26 1703.29 655.43 1622.19 609.64 1539.93 515.88 1538.46 467.53 1619.23"/><polygon class="cls-107" points="467.53 1619.23 513.12 1701.81 607.26 1703.29 655.43 1622.19 609.64 1539.93 515.88 1538.46 467.53 1619.23"/><polygon class="cls-108" points="609.64 1539.93 655.43 1622.19 749.39 1623.66 797.17 1542.88 751.19 1460.95 657.62 1459.48 609.64 1539.93"/><polygon class="cls-109" points="609.64 1539.93 655.43 1622.19 749.39 1623.66 797.17 1542.88 751.19 1460.95 657.62 1459.48 609.64 1539.93"/><polygon class="cls-110" points="749.39 1623.66 795.55 1706.24 889.69 1707.72 937.29 1626.61 890.94 1544.36 797.17 1542.88 749.39 1623.66"/><polygon class="cls-111" points="749.39 1623.66 795.55 1706.24 889.69 1707.72 937.29 1626.61 890.94 1544.36 797.17 1542.88 749.39 1623.66"/><polygon class="cls-112" points="1031.24 1628.09 1077.97 1710.68 1125 1711.42 1125 1548.03 1078.47 1547.3 1031.24 1628.09"/><polygon class="cls-113" points="1031.24 1628.09 1077.97 1710.68 1125 1711.42 1125 1548.03 1078.47 1547.3 1031.24 1628.09"/><polygon class="cls-114" points="890.94 1544.36 937.29 1626.61 1031.24 1628.09 1078.47 1547.3 1031.93 1465.36 938.35 1463.89 890.94 1544.36"/><polygon class="cls-115" points="890.94 1544.36 937.29 1626.61 1031.24 1628.09 1078.47 1547.3 1031.93 1465.36 938.35 1463.89 890.94 1544.36"/><polygon class="cls-116" points="0.39 1368.27 0 1368.27 0 1530.36 0.39 1530.36 0.39 1368.27"/><polygon class="cls-117" points="96.15 1450.66 51.65 1369.08 0.39 1368.27 0.39 1530.36 47.05 1531.1 96.15 1450.66"/><polygon class="cls-118" points="96.15 1450.66 51.65 1369.08 0.39 1368.27 0.39 1530.36 47.05 1531.1 96.15 1450.66"/><polygon class="cls-119" points="238.44 1372.01 193.75 1290.75 100.54 1289.29 51.65 1369.08 96.15 1450.66 189.73 1452.13 238.44 1372.01"/><polygon class="cls-120" points="238.44 1372.01 193.75 1290.75 100.54 1289.29 51.65 1369.08 96.15 1450.66 189.73 1452.13 238.44 1372.01"/><polygon class="cls-121" points="376.88 1455.07 331.83 1373.48 238.44 1372.01 189.73 1452.13 234.58 1534.04 328.35 1535.52 376.88 1455.07"/><polygon class="cls-122" points="376.88 1455.07 331.83 1373.48 238.44 1372.01 189.73 1452.13 234.58 1534.04 328.35 1535.52 376.88 1455.07"/><polygon class="cls-123" points="518.61 1376.42 473.37 1295.14 380.16 1293.68 331.83 1373.48 376.88 1455.07 470.46 1456.54 518.61 1376.42"/><polygon class="cls-124" points="518.61 1376.42 473.37 1295.14 380.16 1293.68 331.83 1373.48 376.88 1455.07 470.46 1456.54 518.61 1376.42"/><polygon class="cls-125" points="470.46 1456.54 515.88 1538.46 609.64 1539.93 657.62 1459.48 612 1377.88 518.61 1376.42 470.46 1456.54"/><polygon class="cls-126" points="470.46 1456.54 515.88 1538.46 609.64 1539.93 657.62 1459.48 612 1377.88 518.61 1376.42 470.46 1456.54"/><polygon class="cls-127" points="612 1377.88 657.62 1459.48 751.19 1460.95 798.79 1380.82 752.99 1299.54 659.78 1298.07 612 1377.88"/><polygon class="cls-128" points="612 1377.88 657.62 1459.48 751.19 1460.95 798.79 1380.82 752.99 1299.54 659.78 1298.07 612 1377.88"/><polygon class="cls-129" points="751.19 1460.95 797.17 1542.88 890.94 1544.36 938.35 1463.89 892.18 1382.29 798.79 1380.82 751.19 1460.95"/><polygon class="cls-130" points="751.19 1460.95 797.17 1542.88 890.94 1544.36 938.35 1463.89 892.18 1382.29 798.79 1380.82 751.19 1460.95"/><polygon class="cls-131" points="1031.93 1465.36 1078.47 1547.3 1125 1548.03 1125 1385.94 1078.96 1385.22 1031.93 1465.36"/><polygon class="cls-132" points="1031.93 1465.36 1078.47 1547.3 1125 1548.03 1125 1385.94 1078.96 1385.22 1031.93 1465.36"/><polygon class="cls-133" points="892.18 1382.29 938.35 1463.89 1031.93 1465.36 1078.96 1385.22 1032.6 1303.93 939.4 1302.47 892.18 1382.29"/><polygon class="cls-134" points="892.18 1382.29 938.35 1463.89 1031.93 1465.36 1078.96 1385.22 1032.6 1303.93 939.4 1302.47 892.18 1382.29"/><polygon class="cls-135" points="0.39 1207.47 0 1207.46 0 1368.27 0.39 1368.27 0.39 1207.47"/><polygon class="cls-136" points="100.54 1289.29 56.22 1208.35 0.39 1207.47 0.39 1368.27 51.65 1369.08 100.54 1289.29"/><polygon class="cls-137" points="100.54 1289.29 56.22 1208.35 0.39 1207.47 0.39 1368.27 51.65 1369.08 100.54 1289.29"/><polygon class="cls-138" points="242.26 1211.27 197.74 1130.65 104.9 1129.19 56.22 1208.35 100.54 1289.29 193.75 1290.75 242.26 1211.27"/><polygon class="cls-139" points="242.26 1211.27 197.74 1130.65 104.9 1129.19 56.22 1208.35 100.54 1289.29 193.75 1290.75 242.26 1211.27"/><polygon class="cls-140" points="380.16 1293.68 335.28 1212.73 242.26 1211.27 193.75 1290.75 238.44 1372.01 331.83 1373.48 380.16 1293.68"/><polygon class="cls-141" points="380.16 1293.68 335.28 1212.73 242.26 1211.27 193.75 1290.75 238.44 1372.01 331.83 1373.48 380.16 1293.68"/><polygon class="cls-142" points="521.32 1215.65 476.25 1135.02 383.42 1133.56 335.28 1212.73 380.16 1293.68 473.37 1295.14 521.32 1215.65"/><polygon class="cls-143" points="521.32 1215.65 476.25 1135.02 383.42 1133.56 335.28 1212.73 380.16 1293.68 473.37 1295.14 521.32 1215.65"/><polygon class="cls-144" points="473.37 1295.14 518.61 1376.42 612 1377.88 659.78 1298.07 614.35 1217.12 521.32 1215.65 473.37 1295.14"/><polygon class="cls-145" points="473.37 1295.14 518.61 1376.42 612 1377.88 659.78 1298.07 614.35 1217.12 521.32 1215.65 473.37 1295.14"/><polygon class="cls-146" points="614.35 1217.12 659.78 1298.07 752.99 1299.54 800.39 1220.04 754.76 1139.4 661.93 1137.94 614.35 1217.12"/><polygon class="cls-147" points="614.35 1217.12 659.78 1298.07 752.99 1299.54 800.39 1220.04 754.76 1139.4 661.93 1137.94 614.35 1217.12"/><polygon class="cls-148" points="752.99 1299.54 798.79 1380.82 892.18 1382.29 939.4 1302.47 893.41 1221.5 800.39 1220.04 752.99 1299.54"/><polygon class="cls-149" points="752.99 1299.54 798.79 1380.82 892.18 1382.29 939.4 1302.47 893.41 1221.5 800.39 1220.04 752.99 1299.54"/><polygon class="cls-150" points="1032.6 1303.93 1078.96 1385.22 1125 1385.94 1125 1225.14 1079.45 1224.42 1032.6 1303.93"/><polygon class="cls-151" points="1032.6 1303.93 1078.96 1385.22 1125 1385.94 1125 1225.14 1079.45 1224.42 1032.6 1303.93"/><polygon class="cls-152" points="893.41 1221.5 939.4 1302.47 1032.6 1303.93 1079.45 1224.42 1033.28 1143.77 940.44 1142.32 893.41 1221.5"/><polygon class="cls-153" points="893.41 1221.5 939.4 1302.47 1032.6 1303.93 1079.45 1224.42 1033.28 1143.77 940.44 1142.32 893.41 1221.5"/><polygon class="cls-154" points="0.39 1047.94 0 1047.93 0 1207.46 0.39 1207.47 0.39 1047.94"/><polygon class="cls-155" points="104.9 1129.19 60.74 1048.88 0.39 1047.94 0.39 1207.47 56.22 1208.35 104.9 1129.19"/><polygon class="cls-156" points="104.9 1129.19 60.74 1048.88 0.39 1047.94 0.39 1207.47 56.22 1208.35 104.9 1129.19"/><polygon class="cls-157" points="246.05 1051.8 201.7 971.8 109.23 970.35 60.74 1048.88 104.9 1129.19 197.74 1130.65 246.05 1051.8"/><polygon class="cls-158" points="246.05 1051.8 201.7 971.8 109.23 970.35 60.74 1048.88 104.9 1129.19 197.74 1130.65 246.05 1051.8"/><polygon class="cls-159" points="383.42 1133.56 338.7 1053.25 246.05 1051.8 197.74 1130.65 242.26 1211.27 335.28 1212.73 383.42 1133.56"/><polygon class="cls-160" points="383.42 1133.56 338.7 1053.25 246.05 1051.8 197.74 1130.65 242.26 1211.27 335.28 1212.73 383.42 1133.56"/><polygon class="cls-161" points="524.01 1056.16 479.11 976.16 386.64 974.71 338.7 1053.25 383.42 1133.56 476.25 1135.02 524.01 1056.16"/><polygon class="cls-162" points="524.01 1056.16 479.11 976.16 386.64 974.71 338.7 1053.25 383.42 1133.56 476.25 1135.02 524.01 1056.16"/><polygon class="cls-163" points="476.25 1135.02 521.32 1215.65 614.35 1217.12 661.93 1137.94 616.67 1057.62 524.01 1056.16 476.25 1135.02"/><polygon class="cls-164" points="476.25 1135.02 521.32 1215.65 614.35 1217.12 661.93 1137.94 616.67 1057.62 524.01 1056.16 476.25 1135.02"/><polygon class="cls-165" points="616.67 1057.62 661.93 1137.94 754.76 1139.4 801.98 1060.53 756.53 980.52 664.06 979.07 616.67 1057.62"/><polygon class="cls-166" points="616.67 1057.62 661.93 1137.94 754.76 1139.4 801.98 1060.53 756.53 980.52 664.06 979.07 616.67 1057.62"/><polygon class="cls-167" points="754.76 1139.4 800.39 1220.04 893.41 1221.5 940.44 1142.32 894.63 1061.99 801.98 1060.53 754.76 1139.4"/><polygon class="cls-168" points="754.76 1139.4 800.39 1220.04 893.41 1221.5 940.44 1142.32 894.63 1061.99 801.98 1060.53 754.76 1139.4"/><polygon class="cls-169" points="1033.28 1143.77 1079.45 1224.42 1125 1225.14 1125 1065.61 1079.94 1064.9 1033.28 1143.77"/><polygon class="cls-170" points="1033.28 1143.77 1079.45 1224.42 1125 1225.14 1125 1065.61 1079.94 1064.9 1033.28 1143.77"/><polygon class="cls-171" points="894.63 1061.99 940.44 1142.32 1033.28 1143.77 1079.94 1064.9 1033.94 984.88 941.47 983.43 894.63 1061.99"/><polygon class="cls-172" points="894.63 1061.99 940.44 1142.32 1033.28 1143.77 1079.94 1064.9 1033.94 984.88 941.47 983.43 894.63 1061.99"/><polygon class="cls-173" points="0.39 889.66 0 889.65 0 1047.93 0.39 1047.94 0.39 889.66"/><polygon class="cls-174" points="109.23 970.35 65.23 890.68 0.39 889.66 0.39 1047.94 60.74 1048.88 109.23 970.35"/><polygon class="cls-175" points="109.23 970.35 65.23 890.68 0.39 889.66 0.39 1047.94 60.74 1048.88 109.23 970.35"/><polygon class="cls-176" points="249.81 893.58 205.63 814.21 113.52 812.76 65.23 890.68 109.23 970.35 201.7 971.8 249.81 893.58"/><polygon class="cls-177" points="249.81 893.58 205.63 814.21 113.52 812.76 65.23 890.68 109.23 970.35 201.7 971.8 249.81 893.58"/><polygon class="cls-178" points="386.64 974.71 342.1 895.03 249.81 893.58 201.7 971.8 246.05 1051.8 338.7 1053.25 386.64 974.71"/><polygon class="cls-179" points="386.64 974.71 342.1 895.03 249.81 893.58 201.7 971.8 246.05 1051.8 338.7 1053.25 386.64 974.71"/><polygon class="cls-180" points="526.68 897.93 481.95 818.55 389.85 817.1 342.1 895.03 386.64 974.71 479.11 976.16 526.68 897.93"/><polygon class="cls-181" points="526.68 897.93 481.95 818.55 389.85 817.1 342.1 895.03 386.64 974.71 479.11 976.16 526.68 897.93"/><polygon class="cls-182" points="479.11 976.16 524.01 1056.16 616.67 1057.62 664.06 979.07 618.97 899.38 526.68 897.93 479.11 976.16"/><polygon class="cls-183" points="479.11 976.16 524.01 1056.16 616.67 1057.62 664.06 979.07 618.97 899.38 526.68 897.93 479.11 976.16"/><polygon class="cls-184" points="618.97 899.38 664.06 979.07 756.53 980.52 803.55 902.28 758.28 822.89 666.17 821.45 618.97 899.38"/><polygon class="cls-185" points="618.97 899.38 664.06 979.07 756.53 980.52 803.55 902.28 758.28 822.89 666.17 821.45 618.97 899.38"/><polygon class="cls-186" points="756.53 980.52 801.98 1060.53 894.63 1061.99 941.47 983.43 895.84 903.73 803.55 902.28 756.53 980.52"/><polygon class="cls-187" points="756.53 980.52 801.98 1060.53 894.63 1061.99 941.47 983.43 895.84 903.73 803.55 902.28 756.53 980.52"/><polygon class="cls-188" points="1033.94 984.88 1079.94 1064.9 1125 1065.61 1125 907.33 1080.42 906.63 1033.94 984.88"/><polygon class="cls-189" points="1033.94 984.88 1079.94 1064.9 1125 1065.61 1125 907.33 1080.42 906.63 1033.94 984.88"/><polygon class="cls-190" points="895.84 903.73 941.47 983.43 1033.94 984.88 1080.42 906.63 1034.61 827.24 942.5 825.79 895.84 903.73"/><polygon class="cls-191" points="895.84 903.73 941.47 983.43 1033.94 984.88 1080.42 906.63 1034.61 827.24 942.5 825.79 895.84 903.73"/><polygon class="cls-192" points="0.39 732.62 0 732.61 0 889.65 0.39 889.66 0.39 732.62"/><polygon class="cls-193" points="113.52 812.76 69.69 733.71 0.39 732.62 0.39 889.66 65.23 890.68 113.52 812.76"/><polygon class="cls-194" points="113.52 812.76 69.69 733.71 0.39 732.62 0.39 889.66 65.23 890.68 113.52 812.76"/><polygon class="cls-195" points="253.54 736.6 209.53 657.85 117.78 656.41 69.69 733.71 113.52 812.76 205.63 814.21 253.54 736.6"/><polygon class="cls-196" points="253.54 736.6 209.53 657.85 117.78 656.41 69.69 733.71 113.52 812.76 205.63 814.21 253.54 736.6"/><polygon class="cls-197" points="389.85 817.1 345.47 738.04 253.54 736.6 205.63 814.21 249.81 893.58 342.1 895.03 389.85 817.1"/><polygon class="cls-198" points="389.85 817.1 345.47 738.04 253.54 736.6 205.63 814.21 249.81 893.58 342.1 895.03 389.85 817.1"/><polygon class="cls-199" points="529.33 740.93 484.77 662.17 393.02 660.73 345.47 738.04 389.85 817.1 481.95 818.55 529.33 740.93"/><polygon class="cls-200" points="529.33 740.93 484.77 662.17 393.02 660.73 345.47 738.04 389.85 817.1 481.95 818.55 529.33 740.93"/><polygon class="cls-201" points="481.95 818.55 526.68 897.93 618.97 899.38 666.17 821.45 621.26 742.38 529.33 740.93 481.95 818.55"/><polygon class="cls-202" points="481.95 818.55 526.68 897.93 618.97 899.38 666.17 821.45 621.26 742.38 529.33 740.93 481.95 818.55"/><polygon class="cls-203" points="621.26 742.38 666.17 821.45 758.28 822.89 805.11 745.26 760.02 666.5 668.27 665.05 621.26 742.38"/><polygon class="cls-204" points="621.26 742.38 666.17 821.45 758.28 822.89 805.11 745.26 760.02 666.5 668.27 665.05 621.26 742.38"/><polygon class="cls-205" points="758.28 822.89 803.55 902.28 895.84 903.73 942.5 825.79 897.04 746.71 805.11 745.26 758.28 822.89"/><polygon class="cls-206" points="758.28 822.89 803.55 902.28 895.84 903.73 942.5 825.79 897.04 746.71 805.11 745.26 758.28 822.89"/><polygon class="cls-207" points="1034.61 827.24 1080.42 906.63 1125 907.33 1125 750.29 1080.9 749.6 1034.61 827.24"/><polygon class="cls-208" points="1034.61 827.24 1080.42 906.63 1125 907.33 1125 750.29 1080.9 749.6 1034.61 827.24"/><polygon class="cls-209" points="897.04 746.71 942.5 825.79 1034.61 827.24 1080.9 749.6 1035.26 670.82 943.51 669.38 897.04 746.71"/><polygon class="cls-210" points="897.04 746.71 942.5 825.79 1034.61 827.24 1080.9 749.6 1035.26 670.82 943.51 669.38 897.04 746.71"/><polygon class="cls-211" points="0.39 576.81 0 576.8 0 732.61 0.39 732.62 0.39 576.81"/><polygon class="cls-212" points="117.78 656.41 74.11 577.97 0.39 576.81 0.39 732.62 69.69 733.71 117.78 656.41"/><polygon class="cls-213" points="117.78 656.41 74.11 577.97 0.39 576.81 0.39 732.62 69.69 733.71 117.78 656.41"/><polygon class="cls-214" points="257.25 580.84 213.39 502.7 122 501.27 74.11 577.97 117.78 656.41 209.53 657.85 257.25 580.84"/><polygon class="cls-215" points="257.25 580.84 213.39 502.7 122 501.27 74.11 577.97 117.78 656.41 209.53 657.85 257.25 580.84"/><polygon class="cls-216" points="393.02 660.73 348.82 582.28 257.25 580.84 209.53 657.85 253.54 736.6 345.47 738.04 393.02 660.73"/><polygon class="cls-217" points="393.02 660.73 348.82 582.28 257.25 580.84 209.53 657.85 253.54 736.6 345.47 738.04 393.02 660.73"/><polygon class="cls-218" points="531.96 585.16 487.57 507.01 396.18 505.57 348.82 582.28 393.02 660.73 484.77 662.17 531.96 585.16"/><polygon class="cls-219" points="531.96 585.16 487.57 507.01 396.18 505.57 348.82 582.28 393.02 660.73 484.77 662.17 531.96 585.16"/><polygon class="cls-220" points="484.77 662.17 529.33 740.93 621.26 742.38 668.27 665.05 623.53 586.6 531.96 585.16 484.77 662.17"/><polygon class="cls-221" points="484.77 662.17 529.33 740.93 621.26 742.38 668.27 665.05 623.53 586.6 531.96 585.16 484.77 662.17"/><polygon class="cls-222" points="623.53 586.6 668.27 665.05 760.02 666.5 806.66 589.48 761.74 511.32 670.35 509.88 623.53 586.6"/><polygon class="cls-223" points="623.53 586.6 668.27 665.05 760.02 666.5 806.66 589.48 761.74 511.32 670.35 509.88 623.53 586.6"/><polygon class="cls-224" points="760.02 666.5 805.11 745.26 897.04 746.71 943.51 669.38 898.23 590.91 806.66 589.48 760.02 666.5"/><polygon class="cls-225" points="760.02 666.5 805.11 745.26 897.04 746.71 943.51 669.38 898.23 590.91 806.66 589.48 760.02 666.5"/><polygon class="cls-226" points="1035.26 670.82 1080.9 749.6 1125 750.29 1125 594.48 1081.37 593.79 1035.26 670.82"/><polygon class="cls-227" points="1035.26 670.82 1080.9 749.6 1125 750.29 1125 594.48 1081.37 593.79 1035.26 670.82"/><polygon class="cls-228" points="898.23 590.91 943.51 669.38 1035.26 670.82 1081.37 593.79 1035.91 515.63 944.52 514.19 898.23 590.91"/><polygon class="cls-229" points="898.23 590.91 943.51 669.38 1035.26 670.82 1081.37 593.79 1035.91 515.63 944.52 514.19 898.23 590.91"/><polygon class="cls-230" points="0.39 422.21 0 422.2 0 576.8 0.39 576.81 0.39 422.21"/><polygon class="cls-231" points="122 501.27 78.5 423.43 0.39 422.21 0.39 576.81 74.11 577.97 122 501.27"/><polygon class="cls-232" points="122 501.27 78.5 423.43 0.39 422.21 0.39 576.81 74.11 577.97 122 501.27"/><polygon class="cls-233" points="260.92 426.3 217.23 348.76 126.19 347.33 78.5 423.43 122 501.27 213.39 502.7 260.92 426.3"/><polygon class="cls-234" points="260.92 426.3 217.23 348.76 126.19 347.33 78.5 423.43 122 501.27 213.39 502.7 260.92 426.3"/><polygon class="cls-235" points="396.18 505.57 352.14 427.73 260.92 426.3 213.39 502.7 257.25 580.84 348.82 582.28 396.18 505.57"/><polygon class="cls-236" points="396.18 505.57 352.14 427.73 260.92 426.3 213.39 502.7 257.25 580.84 348.82 582.28 396.18 505.57"/><polygon class="cls-237" points="534.56 430.6 490.34 353.05 399.3 351.62 352.14 427.73 396.18 505.57 487.57 507.01 534.56 430.6"/><polygon class="cls-238" points="534.56 430.6 490.34 353.05 399.3 351.62 352.14 427.73 396.18 505.57 487.57 507.01 534.56 430.6"/><polygon class="cls-239" points="531.96 585.16 623.53 586.6 670.35 509.88 625.78 432.03 534.56 430.6 487.57 507.01 531.96 585.16"/><polygon class="cls-240" points="531.96 585.16 623.53 586.6 670.35 509.88 625.78 432.03 534.56 430.6 487.57 507.01 531.96 585.16"/><polygon class="cls-241" points="625.78 432.03 670.35 509.88 761.74 511.32 808.2 434.9 763.45 357.35 672.41 355.92 625.78 432.03"/><polygon class="cls-242" points="625.78 432.03 670.35 509.88 761.74 511.32 808.2 434.9 763.45 357.35 672.41 355.92 625.78 432.03"/><polygon class="cls-243" points="761.74 511.32 806.66 589.48 898.23 590.91 944.52 514.19 899.42 436.33 808.2 434.9 761.74 511.32"/><polygon class="cls-244" points="761.74 511.32 806.66 589.48 898.23 590.91 944.52 514.19 899.42 436.33 808.2 434.9 761.74 511.32"/><polygon class="cls-245" points="1035.91 515.63 1081.37 593.79 1125 594.48 1125 439.88 1081.84 439.2 1035.91 515.63"/><polygon class="cls-246" points="1035.91 515.63 1081.37 593.79 1125 594.48 1125 439.88 1081.84 439.2 1035.91 515.63"/><polygon class="cls-247" points="899.42 436.33 944.52 514.19 1035.91 515.63 1081.84 439.2 1036.56 361.64 945.52 360.21 899.42 436.33"/><polygon class="cls-248" points="899.42 436.33 944.52 514.19 1035.91 515.63 1081.84 439.2 1036.56 361.64 945.52 360.21 899.42 436.33"/><polygon class="cls-249" points="0.39 268.8 0 268.8 0 422.2 0.39 422.21 0.39 268.8"/><polygon class="cls-250" points="126.19 347.33 82.85 270.1 0.39 268.8 0.39 422.21 78.5 423.43 126.19 347.33"/><polygon class="cls-251" points="126.19 347.33 82.85 270.1 0.39 268.8 0.39 422.21 78.5 423.43 126.19 347.33"/><polygon class="cls-252" points="264.57 272.95 221.04 196.01 130.35 194.59 82.85 270.1 126.19 347.33 217.23 348.76 264.57 272.95"/><polygon class="cls-253" points="264.57 272.95 221.04 196.01 130.35 194.59 82.85 270.1 126.19 347.33 217.23 348.76 264.57 272.95"/><polygon class="cls-254" points="399.3 351.62 355.43 274.38 264.57 272.95 217.23 348.76 260.92 426.3 352.14 427.73 399.3 351.62"/><polygon class="cls-255" points="399.3 351.62 355.43 274.38 264.57 272.95 217.23 348.76 260.92 426.3 352.14 427.73 399.3 351.62"/><polygon class="cls-256" points="490.34 353.05 537.15 277.24 493.09 200.29 402.41 198.86 355.43 274.38 399.3 351.62 490.34 353.05"/><polygon class="cls-257" points="490.34 353.05 537.15 277.24 493.09 200.29 402.41 198.86 355.43 274.38 399.3 351.62 490.34 353.05"/><polygon class="cls-258" points="534.56 430.6 625.78 432.03 672.41 355.92 628.01 278.66 537.15 277.24 490.34 353.05 534.56 430.6"/><polygon class="cls-259" points="534.56 430.6 625.78 432.03 672.41 355.92 628.01 278.66 537.15 277.24 490.34 353.05 534.56 430.6"/><polygon class="cls-260" points="763.45 357.35 809.73 281.52 765.15 204.56 674.46 203.14 628.01 278.66 672.41 355.92 763.45 357.35"/><polygon class="cls-261" points="763.45 357.35 809.73 281.52 765.15 204.56 674.46 203.14 628.01 278.66 672.41 355.92 763.45 357.35"/><polygon class="cls-262" points="763.45 357.35 808.2 434.9 899.42 436.33 945.52 360.21 900.59 282.95 809.73 281.52 763.45 357.35"/><polygon class="cls-263" points="763.45 357.35 808.2 434.9 899.42 436.33 945.52 360.21 900.59 282.95 809.73 281.52 763.45 357.35"/><polygon class="cls-264" points="1036.56 361.64 1081.84 439.2 1125 439.88 1125 286.47 1082.31 285.8 1036.56 361.64"/><polygon class="cls-265" points="1036.56 361.64 1081.84 439.2 1125 439.88 1125 286.47 1082.31 285.8 1036.56 361.64"/><polygon class="cls-266" points="900.59 282.95 945.52 360.21 1036.56 361.64 1082.31 285.8 1037.2 208.84 946.51 207.41 900.59 282.95"/><polygon class="cls-267" points="900.59 282.95 945.52 360.21 1036.56 361.64 1082.31 285.8 1037.2 208.84 946.51 207.41 900.59 282.95"/><polygon class="cls-268" points="0.39 116.58 0 116.58 0 268.8 0.39 268.8 0.39 116.58"/><polygon class="cls-269" points="130.35 194.59 87.17 117.95 0.39 116.58 0.39 268.8 82.85 270.1 130.35 194.59"/><polygon class="cls-270" points="130.35 194.59 87.17 117.95 0.39 116.58 0.39 268.8 82.85 270.1 130.35 194.59"/><polygon class="cls-271" points="268.19 120.79 224.82 44.44 134.48 43.02 87.17 117.95 130.35 194.59 221.04 196.01 268.19 120.79"/><polygon class="cls-272" points="268.19 120.79 224.82 44.44 134.48 43.02 87.17 117.95 130.35 194.59 221.04 196.01 268.19 120.79"/><polygon class="cls-273" points="264.57 272.95 355.43 274.38 402.41 198.86 358.7 122.21 268.19 120.79 221.04 196.01 264.57 272.95"/><polygon class="cls-274" points="264.57 272.95 355.43 274.38 402.41 198.86 358.7 122.21 268.19 120.79 221.04 196.01 264.57 272.95"/><polygon class="cls-275" points="493.09 200.29 539.72 125.06 495.82 48.7 405.49 47.28 358.7 122.21 402.41 198.86 493.09 200.29"/><polygon class="cls-276" points="493.09 200.29 539.72 125.06 495.82 48.7 405.49 47.28 358.7 122.21 402.41 198.86 493.09 200.29"/><polygon class="cls-277" points="537.15 277.24 628.01 278.66 674.46 203.14 630.23 126.48 539.72 125.06 493.09 200.29 537.15 277.24"/><polygon class="cls-278" points="537.15 277.24 628.01 278.66 674.46 203.14 630.23 126.48 539.72 125.06 493.09 200.29 537.15 277.24"/><polygon class="cls-279" points="765.15 204.56 811.24 129.32 766.83 52.95 676.5 51.53 630.23 126.48 674.46 203.14 765.15 204.56"/><polygon class="cls-280" points="765.15 204.56 811.24 129.32 766.83 52.95 676.5 51.53 630.23 126.48 674.46 203.14 765.15 204.56"/><polygon class="cls-281" points="809.73 281.52 900.59 282.95 946.51 207.41 901.75 130.75 811.24 129.32 765.15 204.56 809.73 281.52"/><polygon class="cls-282" points="809.73 281.52 900.59 282.95 946.51 207.41 901.75 130.75 811.24 129.32 765.15 204.56 809.73 281.52"/><polygon class="cls-283" points="1037.2 208.84 1082.31 285.8 1125 286.47 1125 134.25 1082.77 133.59 1037.2 208.84"/><polygon class="cls-284" points="1037.2 208.84 1082.31 285.8 1125 286.47 1125 134.25 1082.77 133.59 1037.2 208.84"/><polygon class="cls-285" points="901.75 130.75 946.51 207.41 1037.2 208.84 1082.77 133.59 1037.84 57.21 947.5 55.79 901.75 130.75"/><polygon class="cls-286" points="901.75 130.75 946.51 207.41 1037.2 208.84 1082.77 133.59 1037.84 57.21 947.5 55.79 901.75 130.75"/><polygon class="cls-287" points="0.39 0.61 110.49 0.61 110.14 0 0 0 0 116.58 0.39 116.58 0.39 0.61"/><polygon class="cls-288" points="134.48 43.02 110.49 0.61 0.39 0.61 0.39 116.58 87.17 117.95 134.48 43.02"/><polygon class="cls-289" points="134.48 43.02 110.49 0.61 0.39 0.61 0.39 116.58 87.17 117.95 134.48 43.02"/><polygon class="cls-290" points="252.39 0.61 252.78 0 110.14 0 110.49 0.61 252.39 0.61"/><polygon class="cls-291" points="224.82 44.44 252.39 0.61 110.49 0.61 134.48 43.02 224.82 44.44"/><polygon class="cls-292" points="224.82 44.44 252.39 0.61 110.49 0.61 134.48 43.02 224.82 44.44"/><polygon class="cls-293" points="378.77 0.61 378.42 0 252.78 0 252.39 0.61 378.77 0.61"/><polygon class="cls-294" points="268.19 120.79 358.7 122.21 405.49 47.28 378.77 0.61 252.39 0.61 224.82 44.44 268.19 120.79"/><polygon class="cls-295" points="268.19 120.79 358.7 122.21 405.49 47.28 378.77 0.61 252.39 0.61 224.82 44.44 268.19 120.79"/><polygon class="cls-296" points="525.74 0.61 526.12 0 378.42 0 378.77 0.61 525.74 0.61"/><polygon class="cls-297" points="495.82 48.7 525.74 0.61 378.77 0.61 405.49 47.28 495.82 48.7"/><polygon class="cls-298" points="495.82 48.7 525.74 0.61 378.77 0.61 405.49 47.28 495.82 48.7"/><polygon class="cls-299" points="646.99 0.61 646.64 0 526.12 0 525.74 0.61 646.99 0.61"/><polygon class="cls-300" points="539.72 125.06 630.23 126.48 676.5 51.53 646.99 0.61 525.74 0.61 495.82 48.7 539.72 125.06"/><polygon class="cls-301" points="539.72 125.06 630.23 126.48 676.5 51.53 646.99 0.61 525.74 0.61 495.82 48.7 539.72 125.06"/><polygon class="cls-302" points="799.02 0.61 799.4 0 646.64 0 646.99 0.61 799.02 0.61"/><polygon class="cls-303" points="766.83 52.95 799.02 0.61 646.99 0.61 676.5 51.53 766.83 52.95"/><polygon class="cls-304" points="766.83 52.95 799.02 0.61 646.99 0.61 676.5 51.53 766.83 52.95"/><polygon class="cls-305" points="915.16 0.61 914.8 0 799.4 0 799.02 0.61 915.16 0.61"/><polygon class="cls-306" points="811.24 129.32 901.75 130.75 947.5 55.79 915.16 0.61 799.02 0.61 766.83 52.95 811.24 129.32"/><polygon class="cls-307" points="811.24 129.32 901.75 130.75 947.5 55.79 915.16 0.61 799.02 0.61 766.83 52.95 811.24 129.32"/><polygon class="cls-308" points="1125 0.61 1125 0 1072.62 0 1072.25 0.61 1125 0.61"/><polygon class="cls-309" points="1037.84 57.21 1082.77 133.59 1125 134.25 1125 0.61 1072.25 0.61 1037.84 57.21"/><polygon class="cls-310" points="1037.84 57.21 1082.77 133.59 1125 134.25 1125 0.61 1072.25 0.61 1037.84 57.21"/><polygon class="cls-311" points="1072.25 0.61 1072.62 0 914.8 0 915.16 0.61 1072.25 0.61"/><polygon class="cls-312" points="1037.84 57.21 1072.25 0.61 915.16 0.61 947.5 55.79 1037.84 57.21"/><polygon class="cls-313" points="1037.84 57.21 1072.25 0.61 915.16 0.61 947.5 55.79 1037.84 57.21"/></svg>