<svg xmlns="http://www.w3.org/2000/svg" xmlns:xlink="http://www.w3.org/1999/xlink" viewBox="0 0 1342.21 2656.56"><defs><style>.cls-1{fill:none;}.cls-2{fill:url(#linear-gradient);}.cls-3{clip-path:url(#clip-path);}.cls-4{fill:url(#linear-gradient-2);}.cls-5{fill:url(#linear-gradient-3);}.cls-6{fill:url(#linear-gradient-4);}.cls-7{fill:url(#linear-gradient-5);}.cls-8{fill:url(#linear-gradient-6);}.cls-9{fill:url(#linear-gradient-7);}.cls-10{fill:url(#linear-gradient-8);}.cls-11{fill:url(#linear-gradient-9);}.cls-12{fill:url(#linear-gradient-10);}.cls-13{fill:url(#linear-gradient-11);}.cls-14{fill:url(#linear-gradient-12);}.cls-15{fill:url(#linear-gradient-13);}.cls-16{fill:url(#linear-gradient-14);}.cls-17{fill:url(#linear-gradient-15);}.cls-18{fill:url(#linear-gradient-16);}.cls-19{fill:url(#linear-gradient-17);}.cls-20{fill:url(#linear-gradient-18);}.cls-21{fill:url(#linear-gradient-19);}.cls-22{fill:url(#linear-gradient-20);}.cls-23{fill:url(#linear-gradient-21);}.cls-24{fill:url(#linear-gradient-22);}.cls-25{fill:url(#linear-gradient-23);}.cls-26{fill:url(#linear-gradient-24);}.cls-27{fill:url(#linear-gradient-25);}.cls-28{fill:url(#linear-gradient-26);}.cls-29{fill:url(#linear-gradient-27);}.cls-30{fill:url(#linear-gradient-28);}.cls-31{fill:url(#linear-gradient-29);}.cls-32{fill:url(#linear-gradient-30);}.cls-33{fill:url(#linear-gradient-31);}.cls-34{fill:url(#linear-gradient-32);}.cls-35{fill:url(#linear-gradient-33);}.cls-36{fill:url(#linear-gradient-34);}.cls-37{fill:url(#linear-gradient-35);}.cls-38{fill:url(#linear-gradient-36);}.cls-39{fill:url(#linear-gradient-37);}.cls-40{fill:url(#linear-gradient-38);}.cls-41{fill:url(#linear-gradient-39);}.cls-42{fill:url(#linear-gradient-40);}.cls-43{fill:url(#linear-gradient-41);}.cls-44{fill:url(#linear-gradient-42);}.cls-45{fill:url(#linear-gradient-43);}.cls-46{fill:url(#linear-gradient-44);}.cls-47{fill:url(#linear-gradient-45);}.cls-48{fill:url(#linear-gradient-46);}.cls-49{fill:url(#linear-gradient-47);}.cls-50{fill:url(#linear-gradient-48);}.cls-51{fill:url(#linear-gradient-49);}.cls-52{fill:url(#linear-gradient-50);}.cls-53{fill:url(#linear-gradient-51);}.cls-54{fill:url(#linear-gradient-52);}.cls-55{fill:url(#linear-gradient-53);}.cls-56{fill:url(#linear-gradient-54);}.cls-57{fill:url(#linear-gradient-55);}.cls-58{fill:url(#linear-gradient-56);}.cls-59{fill:url(#linear-gradient-57);}.cls-60{fill:url(#linear-gradient-58);}.cls-61{fill:url(#linear-gradient-59);}.cls-62{fill:url(#linear-gradient-60);}.cls-63{fill:url(#linear-gradient-61);}.cls-64{fill:url(#linear-gradient-62);}.cls-65{fill:url(#linear-gradient-63);}.cls-66{fill:url(#linear-gradient-64);}.cls-67{fill:url(#linear-gradient-65);}.cls-68{fill:url(#linear-gradient-66);}.cls-69{fill:url(#linear-gradient-67);}.cls-70{fill:url(#linear-gradient-68);}.cls-71{fill:url(#linear-gradient-69);}.cls-72{fill:url(#linear-gradient-70);}.cls-73{fill:url(#linear-gradient-71);}.cls-74{fill:url(#linear-gradient-72);}.cls-75{fill:url(#linear-gradient-73);}.cls-76{fill:url(#linear-gradient-74);}.cls-77{fill:url(#linear-gradient-75);}.cls-78{fill:url(#linear-gradient-76);}.cls-79{fill:url(#linear-gradient-77);}.cls-80{fill:url(#linear-gradient-78);}.cls-81{fill:url(#linear-gradient-79);}.cls-82{fill:url(#linear-gradient-80);}.cls-83{fill:url(#linear-gradient-81);}.cls-84{fill:url(#linear-gradient-82);}.cls-85{fill:url(#linear-gradient-83);}.cls-86{fill:url(#linear-gradient-84);}.cls-87{fill:url(#linear-gradient-85);}.cls-88{fill:url(#linear-gradient-86);}.cls-89{fill:url(#linear-gradient-87);}.cls-90{fill:url(#linear-gradient-88);}.cls-91{fill:url(#linear-gradient-89);}.cls-92{fill:url(#linear-gradient-90);}.cls-93{fill:url(#linear-gradient-91);}.cls-94{fill:url(#linear-gradient-92);}.cls-95{fill:url(#linear-gradient-93);}.cls-96{fill:url(#linear-gradient-94);}.cls-97{fill:url(#linear-gradient-95);}.cls-98{fill:url(#linear-gradient-96);}.cls-99{fill:url(#linear-gradient-97);}.cls-100{fill:url(#linear-gradient-98);}.cls-101{fill:url(#linear-gradient-99);}.cls-102{fill:url(#linear-gradient-100);}.cls-103{fill:url(#linear-gradient-101);}.cls-104{fill:url(#linear-gradient-102);}.cls-105{fill:url(#linear-gradient-103);}.cls-106{fill:url(#linear-gradient-104);}.cls-107{fill:url(#linear-gradient-105);}.cls-108{fill:url(#linear-gradient-106);}.cls-109{fill:url(#linear-gradient-107);}.cls-110{fill:url(#linear-gradient-108);}.cls-111{fill:url(#linear-gradient-109);}.cls-112{fill:url(#linear-gradient-110);}.cls-113{fill:url(#linear-gradient-111);}.cls-114{fill:url(#linear-gradient-112);}.cls-115{fill:url(#linear-gradient-113);}.cls-116{fill:url(#linear-gradient-114);}.cls-117{fill:url(#linear-gradient-115);}.cls-118{fill:url(#linear-gradient-116);}.cls-119{fill:url(#linear-gradient-117);}.cls-120{fill:url(#linear-gradient-118);}.cls-121{fill:url(#linear-gradient-119);}.cls-122{fill:url(#linear-gradient-120);}.cls-123{fill:url(#linear-gradient-121);}.cls-124{fill:url(#linear-gradient-122);}.cls-125{fill:url(#linear-gradient-123);}.cls-126{fill:url(#linear-gradient-124);}.cls-127{fill:url(#linear-gradient-125);}.cls-128{fill:url(#linear-gradient-126);}.cls-129{fill:url(#linear-gradient-127);}.cls-130{fill:url(#linear-gradient-128);}.cls-131{fill:url(#linear-gradient-129);}.cls-132{fill:url(#linear-gradient-130);}.cls-133{fill:url(#linear-gradient-131);}.cls-134{fill:url(#linear-gradient-132);}.cls-135{fill:url(#linear-gradient-133);}.cls-136{fill:url(#linear-gradient-134);}.cls-137{fill:url(#linear-gradient-135);}.cls-138{fill:url(#linear-gradient-136);}.cls-139{fill:url(#linear-gradient-137);}.cls-140{fill:url(#linear-gradient-138);}.cls-141{fill:url(#linear-gradient-139);}.cls-142{fill:url(#linear-gradient-140);}.cls-143{fill:url(#linear-gradient-141);}.cls-144{fill:url(#linear-gradient-142);}.cls-145{fill:url(#linear-gradient-143);}.cls-146{fill:url(#linear-gradient-144);}.cls-147{fill:url(#linear-gradient-145);}</style><linearGradient id="linear-gradient" x1="685.61" y1="2544" x2="685.61" y2="108" gradientUnits="userSpaceOnUse"><stop offset="0" stop-color="#5f121c"/><stop offset="0.52" stop-color="#bf1838"/><stop offset="1" stop-color="#f36635"/></linearGradient><clipPath id="clip-path" transform="translate(122.61 107.5)"><rect id="SVGID" class="cls-1" x="0.11" y="-0.11" width="1125" height="2436"/></clipPath><linearGradient id="linear-gradient-2" x1="-56.55" y1="2539.34" x2="41.67" y2="2369.22" gradientTransform="matrix(1, 0.02, -0.02, 1, 141.84, 98.84)" gradientUnits="userSpaceOnUse"><stop offset="0" stop-color="#66141e"/><stop offset="1" stop-color="#59101a"/></linearGradient><linearGradient id="linear-gradient-3" x1="88.47" y1="2454.07" x2="186.2" y2="2284.81" xlink:href="#linear-gradient-2"/><linearGradient id="linear-gradient-4" x1="231.32" y1="2539.13" x2="329.25" y2="2369.52" xlink:href="#linear-gradient-2"/><linearGradient id="linear-gradient-5" x1="375.69" y1="2453.82" x2="473.12" y2="2285.06" xlink:href="#linear-gradient-2"/><linearGradient id="linear-gradient-6" x1="519.12" y1="2538.88" x2="616.75" y2="2369.77" xlink:href="#linear-gradient-2"/><linearGradient id="linear-gradient-7" x1="662.9" y1="2453.56" x2="760.04" y2="2285.32" xlink:href="#linear-gradient-2"/><linearGradient id="linear-gradient-8" x1="806.92" y1="2538.62" x2="904.26" y2="2370.03" xlink:href="#linear-gradient-2"/><linearGradient id="linear-gradient-9" x1="950.12" y1="2453.31" x2="1046.96" y2="2285.57" xlink:href="#linear-gradient-2"/><linearGradient id="linear-gradient-10" x1="1094.72" y1="2538.37" x2="1191.77" y2="2370.28" xlink:href="#linear-gradient-2"/><linearGradient id="linear-gradient-11" x1="-53.93" y1="2369.27" x2="43.59" y2="2200.36" xlink:href="#linear-gradient-2"/><linearGradient id="linear-gradient-12" x1="90.5" y1="2284.69" x2="187.52" y2="2116.63" xlink:href="#linear-gradient-2"/><linearGradient id="linear-gradient-13" x1="232.84" y1="2369.1" x2="330.07" y2="2200.7" xlink:href="#linear-gradient-2"/><linearGradient id="linear-gradient-14" x1="376.62" y1="2284.48" x2="473.36" y2="2116.93" xlink:href="#linear-gradient-2"/><linearGradient id="linear-gradient-15" x1="519.47" y1="2368.85" x2="616.41" y2="2200.95" xlink:href="#linear-gradient-2"/><linearGradient id="linear-gradient-16" x1="662.67" y1="2284.23" x2="759.11" y2="2117.18" xlink:href="#linear-gradient-2"/><linearGradient id="linear-gradient-17" x1="806.1" y1="2368.6" x2="902.74" y2="2201.21" xlink:href="#linear-gradient-2"/><linearGradient id="linear-gradient-18" x1="1092.73" y1="2368.35" x2="1189.08" y2="2201.46" xlink:href="#linear-gradient-2"/><linearGradient id="linear-gradient-19" x1="948.71" y1="2283.98" x2="1044.87" y2="2117.43" xlink:href="#linear-gradient-2"/><linearGradient id="linear-gradient-20" x1="-51.26" y1="2200.62" x2="45.57" y2="2032.92" gradientTransform="matrix(1, 0.02, -0.02, 1, 141.84, 98.84)" gradientUnits="userSpaceOnUse"><stop offset="0" stop-color="#741323"/><stop offset="1" stop-color="#68101e"/></linearGradient><linearGradient id="linear-gradient-21" x1="92.51" y1="2116.69" x2="188.85" y2="1949.82" xlink:href="#linear-gradient-20"/><linearGradient id="linear-gradient-22" x1="234.34" y1="2200.45" x2="330.88" y2="2033.25" xlink:href="#linear-gradient-20"/><linearGradient id="linear-gradient-23" x1="377.54" y1="2116.52" x2="473.59" y2="1950.15" xlink:href="#linear-gradient-20"/><linearGradient id="linear-gradient-24" x1="519.81" y1="2200.21" x2="616.06" y2="2033.5" xlink:href="#linear-gradient-20"/><linearGradient id="linear-gradient-25" x1="662.43" y1="2116.27" x2="758.19" y2="1950.4" xlink:href="#linear-gradient-20"/><linearGradient id="linear-gradient-26" x1="805.28" y1="2199.96" x2="901.24" y2="2033.75" xlink:href="#linear-gradient-20"/><linearGradient id="linear-gradient-27" x1="1090.75" y1="2199.71" x2="1186.42" y2="2034" xlink:href="#linear-gradient-20"/><linearGradient id="linear-gradient-28" x1="947.32" y1="2116.02" x2="1042.79" y2="1950.65" xlink:href="#linear-gradient-20"/><linearGradient id="linear-gradient-29" x1="-48.61" y1="2033.34" x2="47.53" y2="1866.82" gradientTransform="matrix(1, 0.02, -0.02, 1, 141.84, 98.84)" gradientUnits="userSpaceOnUse"><stop offset="0" stop-color="#831128"/><stop offset="1" stop-color="#781123"/></linearGradient><linearGradient id="linear-gradient-30" x1="94.57" y1="1950.08" x2="190.23" y2="1784.39" xlink:href="#linear-gradient-29"/><linearGradient id="linear-gradient-31" x1="235.77" y1="2033.13" x2="331.62" y2="1867.1" xlink:href="#linear-gradient-29"/><linearGradient id="linear-gradient-32" x1="378.45" y1="1949.91" x2="473.82" y2="1784.72" xlink:href="#linear-gradient-29"/><linearGradient id="linear-gradient-33" x1="520.15" y1="2032.92" x2="615.72" y2="1867.4" xlink:href="#linear-gradient-29"/><linearGradient id="linear-gradient-34" x1="662.19" y1="1949.67" x2="757.28" y2="1784.97" xlink:href="#linear-gradient-29"/><linearGradient id="linear-gradient-35" x1="804.47" y1="2032.68" x2="899.75" y2="1867.64" xlink:href="#linear-gradient-29"/><linearGradient id="linear-gradient-36" x1="1088.78" y1="2032.43" x2="1183.77" y2="1867.89" xlink:href="#linear-gradient-29"/><linearGradient id="linear-gradient-37" x1="945.93" y1="1949.42" x2="1040.74" y2="1785.22" xlink:href="#linear-gradient-29"/><linearGradient id="linear-gradient-38" x1="-45.99" y1="1867.4" x2="49.48" y2="1702.05" gradientTransform="matrix(1, 0.02, -0.02, 1, 141.84, 98.84)" gradientUnits="userSpaceOnUse"><stop offset="0" stop-color="#96122e"/><stop offset="1" stop-color="#891229"/></linearGradient><linearGradient id="linear-gradient-39" x1="96.61" y1="1784.81" x2="191.6" y2="1620.29" xlink:href="#linear-gradient-38"/><linearGradient id="linear-gradient-40" x1="237.18" y1="1867.15" x2="332.36" y2="1702.3" xlink:href="#linear-gradient-38"/><linearGradient id="linear-gradient-41" x1="379.28" y1="1784.6" x2="473.99" y2="1620.57" xlink:href="#linear-gradient-38"/><linearGradient id="linear-gradient-42" x1="520.49" y1="1866.99" x2="615.39" y2="1702.63" xlink:href="#linear-gradient-38"/><linearGradient id="linear-gradient-43" x1="661.96" y1="1784.4" x2="756.38" y2="1620.86" xlink:href="#linear-gradient-38"/><linearGradient id="linear-gradient-44" x1="803.66" y1="1866.74" x2="898.27" y2="1702.87" xlink:href="#linear-gradient-38"/><linearGradient id="linear-gradient-45" x1="1086.83" y1="1866.5" x2="1181.16" y2="1703.12" xlink:href="#linear-gradient-38"/><linearGradient id="linear-gradient-46" x1="944.56" y1="1784.16" x2="1038.7" y2="1621.1" xlink:href="#linear-gradient-38"/><linearGradient id="linear-gradient-47" x1="-43.39" y1="1702.8" x2="51.41" y2="1538.6" gradientTransform="matrix(1, 0.02, -0.02, 1, 141.84, 98.84)" gradientUnits="userSpaceOnUse"><stop offset="0" stop-color="#a91434"/><stop offset="1" stop-color="#9c142f"/></linearGradient><linearGradient id="linear-gradient-48" x1="98.64" y1="1620.86" x2="192.96" y2="1457.49" xlink:href="#linear-gradient-47"/><linearGradient id="linear-gradient-49" x1="238.65" y1="1702.55" x2="333.16" y2="1538.85" xlink:href="#linear-gradient-47"/><linearGradient id="linear-gradient-50" x1="380.11" y1="1620.62" x2="474.15" y2="1457.73" xlink:href="#linear-gradient-47"/><linearGradient id="linear-gradient-51" x1="520.82" y1="1702.39" x2="615.05" y2="1539.17" xlink:href="#linear-gradient-47"/><linearGradient id="linear-gradient-52" x1="661.72" y1="1620.46" x2="755.48" y2="1458.06" xlink:href="#linear-gradient-47"/><linearGradient id="linear-gradient-53" x1="802.86" y1="1702.14" x2="896.81" y2="1539.42" xlink:href="#linear-gradient-47"/><linearGradient id="linear-gradient-54" x1="1084.89" y1="1701.9" x2="1178.56" y2="1539.66" xlink:href="#linear-gradient-47"/><linearGradient id="linear-gradient-55" x1="943.19" y1="1620.21" x2="1036.67" y2="1458.3" xlink:href="#linear-gradient-47"/><linearGradient id="linear-gradient-56" x1="-40.81" y1="1539.5" x2="53.33" y2="1376.46" gradientTransform="matrix(1, 0.02, -0.02, 1, 141.84, 98.84)" gradientUnits="userSpaceOnUse"><stop offset="0" stop-color="#b61637"/><stop offset="1" stop-color="#a9152f"/></linearGradient><linearGradient id="linear-gradient-57" x1="100.65" y1="1458.23" x2="194.32" y2="1295.99" xlink:href="#linear-gradient-56"/><linearGradient id="linear-gradient-58" x1="240.1" y1="1539.26" x2="333.96" y2="1376.7" xlink:href="#linear-gradient-56"/><linearGradient id="linear-gradient-59" x1="381" y1="1457.98" x2="474.39" y2="1296.23" xlink:href="#linear-gradient-56"/><linearGradient id="linear-gradient-60" x1="521.08" y1="1539.06" x2="614.65" y2="1376.98" xlink:href="#linear-gradient-56"/><linearGradient id="linear-gradient-61" x1="661.48" y1="1457.82" x2="754.59" y2="1296.55" xlink:href="#linear-gradient-56"/><linearGradient id="linear-gradient-62" x1="802.06" y1="1538.86" x2="895.35" y2="1377.26" xlink:href="#linear-gradient-56"/><linearGradient id="linear-gradient-63" x1="1082.97" y1="1538.61" x2="1175.98" y2="1377.51" xlink:href="#linear-gradient-56"/><linearGradient id="linear-gradient-64" x1="941.84" y1="1457.58" x2="1034.67" y2="1296.79" xlink:href="#linear-gradient-56"/><linearGradient id="linear-gradient-65" x1="-38.25" y1="1377.51" x2="55.23" y2="1215.6" gradientTransform="matrix(1, 0.02, -0.02, 1, 141.84, 98.84)" gradientUnits="userSpaceOnUse"><stop offset="0" stop-color="#c4193c"/><stop offset="1" stop-color="#b51630"/></linearGradient><linearGradient id="linear-gradient-66" x1="102.64" y1="1296.88" x2="195.66" y2="1135.76" xlink:href="#linear-gradient-65"/><linearGradient id="linear-gradient-67" x1="241.54" y1="1377.27" x2="334.75" y2="1215.84" xlink:href="#linear-gradient-65"/><linearGradient id="linear-gradient-68" x1="381.88" y1="1296.64" x2="474.62" y2="1136" xlink:href="#linear-gradient-65"/><linearGradient id="linear-gradient-69" x1="521.34" y1="1377.03" x2="614.26" y2="1216.08" xlink:href="#linear-gradient-65"/><linearGradient id="linear-gradient-70" x1="661.18" y1="1296.44" x2="753.65" y2="1136.28" xlink:href="#linear-gradient-65"/><linearGradient id="linear-gradient-71" x1="801.27" y1="1376.87" x2="893.91" y2="1216.4" xlink:href="#linear-gradient-65"/><linearGradient id="linear-gradient-72" x1="1081.06" y1="1376.63" x2="1173.43" y2="1216.64" xlink:href="#linear-gradient-65"/><linearGradient id="linear-gradient-73" x1="940.49" y1="1296.24" x2="1032.68" y2="1136.56" xlink:href="#linear-gradient-65"/><linearGradient id="linear-gradient-74" x1="-35.71" y1="1216.8" x2="57.12" y2="1056.01" gradientTransform="matrix(1, 0.02, -0.02, 1, 141.84, 98.84)" gradientUnits="userSpaceOnUse"><stop offset="0" stop-color="#d0223a"/><stop offset="1" stop-color="#c21a2b"/></linearGradient><linearGradient id="linear-gradient-75" x1="104.62" y1="1136.81" x2="196.99" y2="976.8" xlink:href="#linear-gradient-74"/><linearGradient id="linear-gradient-76" x1="242.97" y1="1216.56" x2="335.53" y2="1056.25" xlink:href="#linear-gradient-74"/><linearGradient id="linear-gradient-77" x1="382.75" y1="1136.57" x2="474.85" y2="977.04" xlink:href="#linear-gradient-74"/><linearGradient id="linear-gradient-78" x1="521.66" y1="1216.33" x2="613.94" y2="1056.48" xlink:href="#linear-gradient-74"/><linearGradient id="linear-gradient-79" x1="660.88" y1="1136.33" x2="752.71" y2="977.28" xlink:href="#linear-gradient-74"/><linearGradient id="linear-gradient-80" x1="800.48" y1="1216.16" x2="892.48" y2="1056.8" xlink:href="#linear-gradient-74"/><linearGradient id="linear-gradient-81" x1="1079.17" y1="1215.93" x2="1170.9" y2="1057.04" xlink:href="#linear-gradient-74"/><linearGradient id="linear-gradient-82" x1="939.16" y1="1136.17" x2="1030.71" y2="977.6" xlink:href="#linear-gradient-74"/><linearGradient id="linear-gradient-83" x1="-33.2" y1="1057.36" x2="59" y2="897.68" gradientTransform="matrix(1, 0.02, -0.02, 1, 141.84, 98.84)" gradientUnits="userSpaceOnUse"><stop offset="0" stop-color="#dc2c37"/><stop offset="1" stop-color="#d01f26"/></linearGradient><linearGradient id="linear-gradient-84" x1="106.57" y1="978" x2="198.32" y2="819.09" xlink:href="#linear-gradient-83"/><linearGradient id="linear-gradient-85" x1="244.39" y1="1057.13" x2="336.31" y2="897.91" xlink:href="#linear-gradient-83"/><linearGradient id="linear-gradient-86" x1="383.61" y1="977.76" x2="475.08" y2="819.33" xlink:href="#linear-gradient-83"/><linearGradient id="linear-gradient-87" x1="521.98" y1="1056.89" x2="613.62" y2="898.15" xlink:href="#linear-gradient-83"/><linearGradient id="linear-gradient-88" x1="660.65" y1="977.52" x2="751.85" y2="819.56" xlink:href="#linear-gradient-83"/><linearGradient id="linear-gradient-89" x1="799.63" y1="1056.69" x2="891" y2="898.42" xlink:href="#linear-gradient-83"/><linearGradient id="linear-gradient-90" x1="1077.28" y1="1056.49" x2="1168.39" y2="898.7" xlink:href="#linear-gradient-83"/><linearGradient id="linear-gradient-91" x1="937.83" y1="977.36" x2="1028.75" y2="819.88" xlink:href="#linear-gradient-83"/><linearGradient id="linear-gradient-92" x1="-30.7" y1="899.18" x2="60.86" y2="740.58" gradientTransform="matrix(1, 0.02, -0.02, 1, 141.84, 98.84)" gradientUnits="userSpaceOnUse"><stop offset="0" stop-color="#e3362f"/><stop offset="1" stop-color="#db2728"/></linearGradient><linearGradient id="linear-gradient-93" x1="108.52" y1="820.43" x2="199.63" y2="662.62" xlink:href="#linear-gradient-92"/><linearGradient id="linear-gradient-94" x1="245.8" y1="898.94" x2="337.09" y2="740.82" xlink:href="#linear-gradient-92"/><linearGradient id="linear-gradient-95" x1="384.47" y1="820.2" x2="475.32" y2="662.85" xlink:href="#linear-gradient-92"/><linearGradient id="linear-gradient-96" x1="522.29" y1="898.71" x2="613.31" y2="741.05" xlink:href="#linear-gradient-92"/><linearGradient id="linear-gradient-97" x1="660.42" y1="819.96" x2="751" y2="663.08" xlink:href="#linear-gradient-92"/><linearGradient id="linear-gradient-98" x1="798.79" y1="898.47" x2="889.54" y2="741.29" xlink:href="#linear-gradient-92"/><linearGradient id="linear-gradient-99" x1="1075.42" y1="898.31" x2="1165.9" y2="741.6" xlink:href="#linear-gradient-92"/><linearGradient id="linear-gradient-100" x1="936.44" y1="819.77" x2="1026.75" y2="663.35" xlink:href="#linear-gradient-92"/><linearGradient id="linear-gradient-101" x1="-28.23" y1="742.23" x2="62.71" y2="584.72" gradientTransform="matrix(1, 0.02, -0.02, 1, 141.84, 98.84)" gradientUnits="userSpaceOnUse"><stop offset="0" stop-color="#ea4227"/><stop offset="1" stop-color="#e6302c"/></linearGradient><linearGradient id="linear-gradient-102" x1="110.44" y1="664.1" x2="200.94" y2="507.36" xlink:href="#linear-gradient-101"/><linearGradient id="linear-gradient-103" x1="247.19" y1="742" x2="337.86" y2="584.95" xlink:href="#linear-gradient-101"/><linearGradient id="linear-gradient-104" x1="385.32" y1="663.87" x2="475.55" y2="507.59" xlink:href="#linear-gradient-101"/><linearGradient id="linear-gradient-105" x1="522.6" y1="741.76" x2="613" y2="585.19" xlink:href="#linear-gradient-101"/><linearGradient id="linear-gradient-106" x1="660.19" y1="663.64" x2="750.15" y2="507.82" xlink:href="#linear-gradient-101"/><linearGradient id="linear-gradient-107" x1="798.02" y1="741.53" x2="888.15" y2="585.42" xlink:href="#linear-gradient-101"/><linearGradient id="linear-gradient-108" x1="1073.56" y1="741.37" x2="1163.42" y2="585.73" xlink:href="#linear-gradient-101"/><linearGradient id="linear-gradient-109" x1="935.07" y1="663.4" x2="1024.76" y2="508.05" xlink:href="#linear-gradient-101"/><linearGradient id="linear-gradient-110" x1="-25.77" y1="586.51" x2="64.55" y2="430.07" gradientTransform="matrix(1, 0.02, -0.02, 1, 141.84, 98.84)" gradientUnits="userSpaceOnUse"><stop offset="0" stop-color="#ef5127"/><stop offset="1" stop-color="#eb412a"/></linearGradient><linearGradient id="linear-gradient-111" x1="112.35" y1="508.99" x2="202.23" y2="353.31" xlink:href="#linear-gradient-110"/><linearGradient id="linear-gradient-112" x1="248.57" y1="586.28" x2="338.62" y2="430.3" xlink:href="#linear-gradient-110"/><linearGradient id="linear-gradient-113" x1="386.16" y1="508.75" x2="475.77" y2="353.54" xlink:href="#linear-gradient-110"/><linearGradient id="linear-gradient-114" x1="522.91" y1="586.04" x2="612.7" y2="430.53" xlink:href="#linear-gradient-110"/><linearGradient id="linear-gradient-115" x1="659.97" y1="508.52" x2="749.32" y2="353.77" xlink:href="#linear-gradient-110"/><linearGradient id="linear-gradient-116" x1="797.25" y1="585.81" x2="886.77" y2="430.76" xlink:href="#linear-gradient-110"/><linearGradient id="linear-gradient-117" x1="1071.65" y1="585.62" x2="1160.91" y2="431.03" xlink:href="#linear-gradient-110"/><linearGradient id="linear-gradient-118" x1="933.77" y1="508.29" x2="1022.86" y2="354" xlink:href="#linear-gradient-110"/><linearGradient id="linear-gradient-119" x1="-23.34" y1="432" x2="66.37" y2="276.61" gradientTransform="matrix(1, 0.02, -0.02, 1, 141.84, 98.84)" gradientUnits="userSpaceOnUse"><stop offset="0" stop-color="#f56126"/><stop offset="1" stop-color="#f25527"/></linearGradient><linearGradient id="linear-gradient-120" x1="114.25" y1="355.07" x2="203.52" y2="200.45" xlink:href="#linear-gradient-119"/><linearGradient id="linear-gradient-121" x1="249.94" y1="431.77" x2="339.38" y2="276.84" xlink:href="#linear-gradient-119"/><linearGradient id="linear-gradient-122" x1="386.99" y1="354.84" x2="476" y2="200.67" xlink:href="#linear-gradient-119"/><linearGradient id="linear-gradient-123" x1="523.21" y1="431.54" x2="612.39" y2="277.07" xlink:href="#linear-gradient-119"/><linearGradient id="linear-gradient-124" x1="659.74" y1="354.62" x2="748.48" y2="200.9" xlink:href="#linear-gradient-119"/><linearGradient id="linear-gradient-125" x1="796.49" y1="431.31" x2="885.4" y2="277.3" xlink:href="#linear-gradient-119"/><linearGradient id="linear-gradient-126" x1="1069.77" y1="431.08" x2="1158.41" y2="277.53" xlink:href="#linear-gradient-119"/><linearGradient id="linear-gradient-127" x1="932.48" y1="354.39" x2="1020.97" y2="201.13" xlink:href="#linear-gradient-119"/><linearGradient id="linear-gradient-128" x1="-20.92" y1="278.68" x2="68.18" y2="124.34" gradientTransform="matrix(1, 0.02, -0.02, 1, 141.84, 98.84)" gradientUnits="userSpaceOnUse"><stop offset="0" stop-color="#f56c34"/><stop offset="1" stop-color="#f2592b"/></linearGradient><linearGradient id="linear-gradient-129" x1="116.12" y1="202.35" x2="204.8" y2="48.76" xlink:href="#linear-gradient-128"/><linearGradient id="linear-gradient-130" x1="251.3" y1="278.45" x2="340.14" y2="124.57" xlink:href="#linear-gradient-128"/><linearGradient id="linear-gradient-131" x1="387.82" y1="202.12" x2="476.23" y2="48.99" xlink:href="#linear-gradient-128"/><linearGradient id="linear-gradient-132" x1="523.52" y1="278.22" x2="612.09" y2="124.8" xlink:href="#linear-gradient-128"/><linearGradient id="linear-gradient-133" x1="659.51" y1="201.9" x2="747.66" y2="49.22" xlink:href="#linear-gradient-128"/><linearGradient id="linear-gradient-134" x1="795.73" y1="277.99" x2="884.05" y2="125.03" xlink:href="#linear-gradient-128"/><linearGradient id="linear-gradient-135" x1="1067.95" y1="277.77" x2="1156.01" y2="125.25" xlink:href="#linear-gradient-128"/><linearGradient id="linear-gradient-136" x1="931.21" y1="201.67" x2="1019.09" y2="49.44" xlink:href="#linear-gradient-128"/><linearGradient id="linear-gradient-137" x1="-18.53" y1="126.54" x2="69.98" y2="-26.75" gradientTransform="matrix(1, 0.02, -0.02, 1, 141.84, 98.84)" gradientUnits="userSpaceOnUse"><stop offset="0.01" stop-color="#f47742"/><stop offset="1" stop-color="#f36030"/></linearGradient><linearGradient id="linear-gradient-138" x1="117.99" y1="50.8" x2="206.07" y2="-101.76" xlink:href="#linear-gradient-137"/><linearGradient id="linear-gradient-139" x1="252.64" y1="126.32" x2="340.89" y2="-26.53" xlink:href="#linear-gradient-137"/><linearGradient id="linear-gradient-140" x1="388.64" y1="50.58" x2="476.46" y2="-101.53" xlink:href="#linear-gradient-137"/><linearGradient id="linear-gradient-141" x1="523.81" y1="126.09" x2="611.8" y2="-26.3" xlink:href="#linear-gradient-137"/><linearGradient id="linear-gradient-142" x1="659.29" y1="50.35" x2="746.85" y2="-101.31" xlink:href="#linear-gradient-137"/><linearGradient id="linear-gradient-143" x1="794.98" y1="125.87" x2="882.71" y2="-26.08" xlink:href="#linear-gradient-137"/><linearGradient id="linear-gradient-144" x1="1066.15" y1="125.64" x2="1153.62" y2="-25.85" xlink:href="#linear-gradient-137"/><linearGradient id="linear-gradient-145" x1="929.93" y1="50.13" x2="1017.24" y2="-101.08" xlink:href="#linear-gradient-137"/></defs><g id="Layer_6" data-name="Layer 6"><rect class="cls-2" x="123.11" y="108" width="1125" height="2436"/></g><g id="Layer_5" data-name="Layer 5"><g class="cls-3"><polygon class="cls-4" points="146.22 2468.39 50.54 2466.88 0 2550.98 45.32 2636.93 141.39 2638.44 191.74 2553.99 146.22 2468.39"/><polygon class="cls-5" points="291.84 2386.13 196.36 2384.63 146.22 2468.39 191.74 2553.99 287.62 2555.5 337.57 2471.39 291.84 2386.13"/><polygon class="cls-6" points="433.25 2472.89 337.57 2471.39 287.62 2555.5 333.53 2641.46 429.6 2642.97 479.36 2558.51 433.25 2472.89"/><polygon class="cls-7" points="578.28 2390.63 482.8 2389.13 433.25 2472.89 479.36 2558.51 575.23 2560.02 624.6 2475.9 578.28 2390.63"/><polygon class="cls-8" points="720.28 2477.41 624.6 2475.9 575.23 2560.02 621.73 2645.99 717.8 2647.5 766.98 2563.03 720.28 2477.41"/><polygon class="cls-9" points="864.73 2395.13 769.25 2393.63 720.28 2477.41 766.98 2563.03 862.85 2564.54 911.63 2480.41 864.73 2395.13"/><polygon class="cls-10" points="1007.31 2481.91 911.63 2480.41 862.85 2564.54 909.94 2650.52 1006 2652.03 1054.59 2567.55 1007.31 2481.91"/><polygon class="cls-11" points="1151.18 2399.63 1055.69 2398.13 1007.31 2481.91 1054.59 2567.55 1150.46 2569.06 1198.66 2484.92 1151.18 2399.63"/><polygon class="cls-12" points="1294.34 2486.43 1198.66 2484.92 1150.46 2569.06 1198.14 2655.05 1294.21 2656.56 1342.21 2572.07 1294.34 2486.43"/><polygon class="cls-13" points="151 2299.71 55.72 2298.21 5.39 2381.62 50.54 2466.88 146.22 2468.39 196.36 2384.63 151 2299.71"/><polygon class="cls-14" points="296.03 2218.12 200.93 2216.63 151 2299.71 196.36 2384.63 291.84 2386.13 341.58 2302.7 296.03 2218.12"/><polygon class="cls-15" points="436.87 2304.2 341.58 2302.7 291.84 2386.13 337.57 2471.39 433.25 2472.89 482.8 2389.13 436.87 2304.2"/><polygon class="cls-16" points="581.31 2222.61 486.22 2221.11 436.87 2304.2 482.8 2389.13 578.28 2390.63 627.45 2307.19 581.31 2222.61"/><polygon class="cls-17" points="722.73 2308.69 627.45 2307.19 578.28 2390.63 624.6 2475.9 720.28 2477.41 769.25 2393.63 722.73 2308.69"/><polygon class="cls-18" points="866.6 2227.09 771.5 2225.59 722.73 2308.69 769.25 2393.63 864.73 2395.13 913.31 2311.69 866.6 2227.09"/><polygon class="cls-19" points="1008.6 2313.18 913.31 2311.69 864.73 2395.13 911.63 2480.41 1007.31 2481.91 1055.69 2398.13 1008.6 2313.18"/><polygon class="cls-20" points="1294.46 2317.68 1199.17 2316.18 1151.18 2399.63 1198.66 2484.92 1294.34 2486.43 1342.14 2402.63 1294.46 2317.68"/><polygon class="cls-21" points="1151.88 2231.57 1056.79 2230.08 1008.6 2313.18 1055.69 2398.13 1151.18 2399.63 1199.17 2316.18 1151.88 2231.57"/><polygon class="cls-22" points="155.75 2132.4 60.85 2130.91 10.74 2213.64 55.72 2298.21 151 2299.71 200.93 2216.63 155.75 2132.4"/><polygon class="cls-23" points="300.18 2051.48 205.47 2049.99 155.75 2132.4 200.93 2216.63 296.03 2218.12 345.56 2135.38 300.18 2051.48"/><polygon class="cls-24" points="440.46 2136.87 345.56 2135.38 296.03 2218.12 341.58 2302.7 436.87 2304.2 486.22 2221.11 440.46 2136.87"/><polygon class="cls-25" points="584.31 2055.94 489.6 2054.45 440.46 2136.87 486.22 2221.11 581.31 2222.61 630.27 2139.85 584.31 2055.94"/><polygon class="cls-26" points="725.17 2141.34 630.27 2139.85 581.31 2222.61 627.45 2307.19 722.73 2308.69 771.5 2225.59 725.17 2141.34"/><polygon class="cls-27" points="868.45 2060.41 773.74 2058.92 725.17 2141.34 771.5 2225.59 866.6 2227.09 914.98 2144.32 868.45 2060.41"/><polygon class="cls-28" points="1009.88 2145.82 914.98 2144.32 866.6 2227.09 913.31 2311.69 1008.6 2313.18 1056.79 2230.08 1009.88 2145.82"/><polygon class="cls-29" points="1294.59 2150.29 1199.68 2148.8 1151.88 2231.57 1199.17 2316.18 1294.46 2317.68 1342.07 2234.56 1294.59 2150.29"/><polygon class="cls-30" points="1152.58 2064.87 1057.87 2063.38 1009.88 2145.82 1056.79 2230.08 1151.88 2231.57 1199.68 2148.8 1152.58 2064.87"/><polygon class="cls-31" points="160.47 1966.43 65.94 1964.95 16.05 2047.01 60.85 2130.91 155.75 2132.4 205.47 2049.99 160.47 1966.43"/><polygon class="cls-32" points="304.3 1886.17 209.97 1884.69 160.47 1966.43 205.47 2049.99 300.18 2051.48 349.51 1969.4 304.3 1886.17"/><polygon class="cls-33" points="444.03 1970.89 349.51 1969.4 300.18 2051.48 345.56 2135.38 440.46 2136.87 489.6 2054.45 444.03 1970.89"/><polygon class="cls-34" points="587.29 1890.62 492.96 1889.14 444.03 1970.89 489.6 2054.45 584.31 2055.94 633.07 1973.86 587.29 1890.62"/><polygon class="cls-35" points="727.59 1975.34 633.07 1973.86 584.31 2055.94 630.27 2139.85 725.17 2141.34 773.74 2058.92 727.59 1975.34"/><polygon class="cls-36" points="870.28 1895.07 775.95 1893.58 727.59 1975.34 773.74 2058.92 868.45 2060.41 916.63 1978.31 870.28 1895.07"/><polygon class="cls-37" points="1011.15 1979.8 916.63 1978.31 868.45 2060.41 914.98 2144.32 1009.88 2145.82 1057.87 2063.38 1011.15 1979.8"/><polygon class="cls-38" points="1294.71 1984.25 1200.19 1982.77 1152.58 2064.87 1199.68 2148.8 1294.59 2150.29 1342 2067.85 1294.71 1984.25"/><polygon class="cls-39" points="1153.28 1899.51 1058.94 1898.03 1011.15 1979.8 1057.87 2063.38 1152.58 2064.87 1200.19 1982.77 1153.28 1899.51"/><polygon class="cls-40" points="165.14 1801.8 71 1800.32 21.31 1881.73 65.94 1964.95 160.47 1966.43 209.97 1884.69 165.14 1801.8"/><polygon class="cls-41" points="308.39 1722.19 214.44 1720.71 165.14 1801.8 209.97 1884.69 304.3 1886.17 353.42 1804.76 308.39 1722.19"/><polygon class="cls-42" points="447.56 1806.24 353.42 1804.76 304.3 1886.17 349.51 1969.4 444.03 1970.89 492.96 1889.14 447.56 1806.24"/><polygon class="cls-43" points="590.25 1726.62 496.3 1725.14 447.56 1806.24 492.96 1889.14 587.29 1890.62 635.84 1809.19 590.25 1726.62"/><polygon class="cls-44" points="729.99 1810.67 635.84 1809.19 587.29 1890.62 633.07 1973.86 727.59 1975.34 775.95 1893.58 729.99 1810.67"/><polygon class="cls-45" points="872.11 1731.05 778.15 1729.57 729.99 1810.67 775.95 1893.58 870.28 1895.07 918.27 1813.63 872.11 1731.05"/><polygon class="cls-46" points="1012.41 1815.11 918.27 1813.63 870.28 1895.07 916.63 1978.31 1011.15 1979.8 1058.94 1898.03 1012.41 1815.11"/><polygon class="cls-47" points="1294.83 1819.55 1200.69 1818.07 1153.28 1899.51 1200.19 1982.77 1294.71 1984.25 1341.94 1902.48 1294.83 1819.55"/><polygon class="cls-48" points="1153.96 1735.48 1060.01 1734 1012.41 1815.11 1058.94 1898.03 1153.28 1899.51 1200.69 1818.07 1153.96 1735.48"/><polygon class="cls-49" points="169.77 1638.48 76.01 1637.01 26.53 1717.76 71 1800.32 165.14 1801.8 214.44 1720.71 169.77 1638.48"/><polygon class="cls-50" points="312.44 1559.52 218.87 1558.05 169.77 1638.48 214.44 1720.71 308.39 1722.19 357.3 1641.43 312.44 1559.52"/><polygon class="cls-51" points="451.07 1642.9 357.3 1641.43 308.39 1722.19 353.42 1804.76 447.56 1806.24 496.3 1725.14 451.07 1642.9"/><polygon class="cls-52" points="593.18 1563.93 499.6 1562.46 451.07 1642.9 496.3 1725.14 590.25 1726.62 638.6 1645.85 593.18 1563.93"/><polygon class="cls-53" points="732.36 1647.32 638.6 1645.85 590.25 1726.62 635.84 1809.19 729.99 1810.67 778.15 1729.57 732.36 1647.32"/><polygon class="cls-54" points="873.91 1568.34 780.34 1566.87 732.36 1647.32 778.15 1729.57 872.11 1731.05 919.89 1650.27 873.91 1568.34"/><polygon class="cls-55" points="1013.66 1651.74 919.89 1650.27 872.11 1731.05 918.27 1813.63 1012.41 1815.11 1060.01 1734 1013.66 1651.74"/><polygon class="cls-56" points="1294.95 1656.16 1201.19 1654.69 1153.96 1735.48 1200.69 1818.07 1294.83 1819.55 1341.87 1738.43 1294.95 1656.16"/><polygon class="cls-57" points="1154.65 1572.75 1061.07 1571.28 1013.66 1651.74 1060.01 1734 1153.96 1735.48 1201.19 1654.69 1154.65 1572.75"/><polygon class="cls-58" points="174.37 1476.47 80.98 1475 31.71 1555.11 76.01 1637.01 169.77 1638.48 218.87 1558.05 174.37 1476.47"/><polygon class="cls-59" points="316.47 1398.14 223.26 1396.67 174.37 1476.47 218.87 1558.05 312.44 1559.52 361.16 1479.4 316.47 1398.14"/><polygon class="cls-60" points="454.55 1480.87 361.16 1479.4 312.44 1559.52 357.3 1641.43 451.07 1642.9 499.6 1562.46 454.55 1480.87"/><polygon class="cls-61" points="596.09 1402.53 502.88 1401.07 454.55 1480.87 499.6 1562.46 593.18 1563.93 641.33 1483.8 596.09 1402.53"/><polygon class="cls-62" points="734.72 1485.27 641.33 1483.8 593.18 1563.93 638.6 1645.85 732.36 1647.32 780.34 1566.87 734.72 1485.27"/><polygon class="cls-63" points="875.71 1406.92 782.5 1405.46 734.72 1485.27 780.34 1566.87 873.91 1568.34 921.51 1488.2 875.71 1406.92"/><polygon class="cls-64" points="1014.9 1489.67 921.51 1488.2 873.91 1568.34 919.89 1650.27 1013.66 1651.74 1061.07 1571.28 1014.9 1489.67"/><polygon class="cls-65" points="1295.07 1494.08 1201.68 1492.61 1154.65 1572.75 1201.19 1654.69 1294.95 1656.16 1341.8 1575.69 1295.07 1494.08"/><polygon class="cls-66" points="1155.32 1411.32 1062.12 1409.85 1014.9 1489.67 1061.07 1571.28 1154.65 1572.75 1201.68 1492.61 1155.32 1411.32"/><polygon class="cls-67" points="178.94 1315.73 85.91 1314.27 36.85 1393.74 80.98 1475 174.37 1476.47 223.26 1396.67 178.94 1315.73"/><polygon class="cls-68" points="320.46 1238.03 227.62 1236.58 178.94 1315.73 223.26 1396.67 316.47 1398.14 364.98 1318.66 320.46 1238.03"/><polygon class="cls-69" points="458 1320.12 364.98 1318.66 316.47 1398.14 361.16 1479.4 454.55 1480.87 502.88 1401.07 458 1320.12"/><polygon class="cls-70" points="598.97 1242.41 506.13 1240.95 458 1320.12 502.88 1401.07 596.09 1402.53 644.04 1323.04 598.97 1242.41"/><polygon class="cls-71" points="737.06 1324.5 644.04 1323.04 596.09 1402.53 641.33 1483.8 734.72 1485.27 782.5 1405.46 737.06 1324.5"/><polygon class="cls-72" points="877.48 1246.79 784.65 1245.33 737.06 1324.5 782.5 1405.46 875.71 1406.92 923.11 1327.43 877.48 1246.79"/><polygon class="cls-73" points="1016.13 1328.89 923.11 1327.43 875.71 1406.92 921.51 1488.2 1014.9 1489.67 1062.12 1409.85 1016.13 1328.89"/><polygon class="cls-74" points="1295.19 1333.27 1202.17 1331.81 1155.32 1411.32 1201.68 1492.61 1295.07 1494.08 1341.74 1414.25 1295.19 1333.27"/><polygon class="cls-75" points="1156 1251.16 1063.16 1249.7 1016.13 1328.89 1062.12 1409.85 1155.32 1411.32 1202.17 1331.81 1156 1251.16"/><polygon class="cls-76" points="183.46 1156.27 90.81 1154.82 41.95 1233.66 85.91 1314.27 178.94 1315.73 227.62 1236.58 183.46 1156.27"/><polygon class="cls-77" points="324.42 1079.19 231.95 1077.74 183.46 1156.27 227.62 1236.58 320.46 1238.03 368.77 1159.18 324.42 1079.19"/><polygon class="cls-78" points="461.42 1160.64 368.77 1159.18 320.46 1238.03 364.98 1318.66 458 1320.12 506.13 1240.95 461.42 1160.64"/><polygon class="cls-79" points="601.83 1083.55 509.36 1082.1 461.42 1160.64 506.13 1240.95 598.97 1242.41 646.73 1163.55 601.83 1083.55"/><polygon class="cls-80" points="739.39 1165.01 646.73 1163.55 598.97 1242.41 644.04 1323.04 737.06 1324.5 784.65 1245.33 739.39 1165.01"/><polygon class="cls-81" points="879.25 1087.91 786.78 1086.46 739.39 1165.01 784.65 1245.33 877.48 1246.79 924.7 1167.92 879.25 1087.91"/><polygon class="cls-82" points="1017.35 1169.37 924.7 1167.92 877.48 1246.79 923.11 1327.43 1016.13 1328.89 1063.16 1249.7 1017.35 1169.37"/><polygon class="cls-83" points="1295.31 1173.74 1202.66 1172.29 1156 1251.16 1202.17 1331.81 1295.19 1333.27 1341.67 1254.08 1295.31 1173.74"/><polygon class="cls-84" points="1156.66 1092.27 1064.19 1090.82 1017.35 1169.37 1063.16 1249.7 1156 1251.16 1202.66 1172.29 1156.66 1092.27"/><polygon class="cls-85" points="187.95 998.06 95.66 996.61 47.01 1074.83 90.81 1154.82 183.46 1156.27 231.95 1077.74 187.95 998.06"/><polygon class="cls-86" points="328.35 921.6 236.24 920.15 187.95 998.06 231.95 1077.74 324.42 1079.19 372.53 1000.96 328.35 921.6"/><polygon class="cls-87" points="464.82 1002.41 372.53 1000.96 324.42 1079.19 368.77 1159.18 461.42 1160.64 509.36 1082.1 464.82 1002.41"/><polygon class="cls-88" points="604.67 925.94 512.57 924.49 464.82 1002.41 509.36 1082.1 601.83 1083.55 649.4 1005.31 604.67 925.94"/><polygon class="cls-89" points="741.69 1006.76 649.4 1005.31 601.83 1083.55 646.73 1163.55 739.39 1165.01 786.78 1086.46 741.69 1006.76"/><polygon class="cls-90" points="881 930.28 788.89 928.83 741.69 1006.76 786.78 1086.46 879.25 1087.91 926.27 1009.66 881 930.28"/><polygon class="cls-91" points="1018.56 1011.12 926.27 1009.66 879.25 1087.91 924.7 1167.92 1017.35 1169.37 1064.19 1090.82 1018.56 1011.12"/><polygon class="cls-92" points="1295.43 1015.47 1203.14 1014.01 1156.66 1092.27 1202.66 1172.29 1295.31 1173.74 1341.61 1095.17 1295.43 1015.47"/><polygon class="cls-93" points="1157.32 934.62 1065.21 933.17 1018.56 1011.12 1064.19 1090.82 1156.66 1092.27 1203.14 1014.01 1157.32 934.62"/><polygon class="cls-94" points="192.41 841.1 100.48 839.65 52.02 917.25 95.66 996.61 187.95 998.06 236.24 920.15 192.41 841.1"/><polygon class="cls-95" points="332.25 765.23 240.5 763.79 192.41 841.1 236.24 920.15 328.35 921.6 376.26 843.99 332.25 765.23"/><polygon class="cls-96" points="468.19 845.43 376.26 843.99 328.35 921.6 372.53 1000.96 464.82 1002.41 512.57 924.49 468.19 845.43"/><polygon class="cls-97" points="607.49 769.56 515.74 768.12 468.19 845.43 512.57 924.49 604.67 925.94 652.05 848.32 607.49 769.56"/><polygon class="cls-98" points="743.98 849.76 652.05 848.32 604.67 925.94 649.4 1005.31 741.69 1006.76 788.89 928.83 743.98 849.76"/><polygon class="cls-99" points="882.74 773.88 790.99 772.44 743.98 849.76 788.89 928.83 881 930.28 927.83 852.65 882.74 773.88"/><polygon class="cls-100" points="1019.76 854.1 927.83 852.65 881 930.28 926.27 1009.66 1018.56 1011.12 1065.21 933.17 1019.76 854.1"/><polygon class="cls-101" points="1295.55 858.43 1203.62 856.98 1157.32 934.62 1203.14 1014.01 1295.43 1015.47 1341.54 937.52 1295.55 858.43"/><polygon class="cls-102" points="1157.98 778.21 1066.23 776.77 1019.76 854.1 1065.21 933.17 1157.32 934.62 1203.62 856.98 1157.98 778.21"/><polygon class="cls-103" points="196.83 685.35 105.26 683.91 57 760.91 100.48 839.65 192.41 841.1 240.5 763.79 196.83 685.35"/><polygon class="cls-104" points="336.11 610.09 244.72 608.65 196.83 685.35 240.5 763.79 332.25 765.23 379.97 688.23 336.11 610.09"/><polygon class="cls-105" points="471.54 689.67 379.97 688.23 332.25 765.23 376.26 843.99 468.19 845.43 515.74 768.12 471.54 689.67"/><polygon class="cls-106" points="610.29 614.4 518.89 612.96 471.54 689.67 515.74 768.12 607.49 769.56 654.68 692.55 610.29 614.4"/><polygon class="cls-107" points="746.25 693.99 654.68 692.55 607.49 769.56 652.05 848.32 743.98 849.76 790.99 772.44 746.25 693.99"/><polygon class="cls-108" points="884.46 618.71 793.07 617.27 746.25 693.99 790.99 772.44 882.74 773.88 929.38 696.86 884.46 618.71"/><polygon class="cls-109" points="1020.95 698.3 929.38 696.86 882.74 773.88 927.83 852.65 1019.76 854.1 1066.23 776.77 1020.95 698.3"/><polygon class="cls-110" points="1295.66 702.62 1204.09 701.18 1157.98 778.21 1203.62 856.98 1295.55 858.43 1341.48 781.09 1295.66 702.62"/><polygon class="cls-111" points="1158.63 623.01 1067.24 621.58 1020.95 698.3 1066.23 776.77 1157.98 778.21 1204.09 701.18 1158.63 623.01"/><polygon class="cls-112" points="201.22 530.82 110 529.39 61.94 605.78 105.26 683.91 196.83 685.35 244.72 608.65 201.22 530.82"/><polygon class="cls-113" points="339.95 456.15 248.91 454.72 201.22 530.82 244.72 608.65 336.11 610.09 383.64 533.69 339.95 456.15"/><polygon class="cls-114" points="474.86 535.12 383.64 533.69 336.11 610.09 379.97 688.23 471.54 689.67 518.89 612.96 474.86 535.12"/><polygon class="cls-115" points="613.06 460.44 522.02 459.01 474.86 535.12 518.89 612.96 610.29 614.4 657.28 537.99 613.06 460.44"/><polygon class="cls-116" points="748.5 539.42 657.28 537.99 610.29 614.4 654.68 692.55 746.25 693.99 793.07 617.27 748.5 539.42"/><polygon class="cls-117" points="886.17 464.73 795.13 463.3 748.5 539.42 793.07 617.27 884.46 618.71 930.92 542.29 886.17 464.73"/><polygon class="cls-118" points="1022.13 543.72 930.92 542.29 884.46 618.71 929.38 696.86 1020.95 698.3 1067.24 621.58 1022.13 543.72"/><polygon class="cls-119" points="1295.78 548.02 1204.56 546.59 1158.63 623.01 1204.09 701.18 1295.66 702.62 1341.41 625.89 1295.78 548.02"/><polygon class="cls-120" points="1159.28 469.02 1068.24 467.59 1022.13 543.72 1067.24 621.58 1158.63 623.01 1204.56 546.59 1159.28 469.02"/><polygon class="cls-121" points="205.57 377.49 114.71 376.06 66.84 451.86 110 529.39 201.22 530.82 248.91 454.72 205.57 377.49"/><polygon class="cls-122" points="343.76 303.4 253.07 301.98 205.57 377.49 248.91 454.72 339.95 456.15 387.29 380.34 343.76 303.4"/><polygon class="cls-123" points="478.15 381.77 387.29 380.34 339.95 456.15 383.64 533.69 474.86 535.12 522.02 459.01 478.15 381.77"/><polygon class="cls-124" points="615.81 307.67 525.13 306.25 478.15 381.77 522.02 459.01 613.06 460.44 659.87 384.62 615.81 307.67"/><polygon class="cls-125" points="750.73 386.05 659.87 384.62 613.06 460.44 657.28 537.99 748.5 539.42 795.13 463.3 750.73 386.05"/><polygon class="cls-126" points="887.87 311.95 797.18 310.52 750.73 386.05 795.13 463.3 886.17 464.73 932.45 388.91 887.87 311.95"/><polygon class="cls-127" points="1023.31 390.33 932.45 388.91 886.17 464.73 930.92 542.29 1022.13 543.72 1068.24 467.59 1023.31 390.33"/><polygon class="cls-128" points="1295.89 394.62 1205.03 393.19 1159.28 469.02 1204.56 546.59 1295.78 548.02 1341.35 471.88 1295.89 394.62"/><polygon class="cls-129" points="1159.92 316.22 1069.23 314.8 1023.31 390.33 1068.24 467.59 1159.28 469.02 1205.03 393.19 1159.92 316.22"/><polygon class="cls-130" points="209.89 225.33 119.38 223.91 71.7 299.13 114.71 376.06 205.57 377.49 253.07 301.98 209.89 225.33"/><polygon class="cls-131" points="347.54 151.82 257.2 150.41 209.89 225.33 253.07 301.98 343.76 303.4 390.91 228.18 347.54 151.82"/><polygon class="cls-132" points="481.42 229.6 390.91 228.18 343.76 303.4 387.29 380.34 478.15 381.77 525.13 306.25 481.42 229.6"/><polygon class="cls-133" points="618.54 156.08 528.21 154.66 481.42 229.6 525.13 306.25 615.81 307.67 662.43 232.44 618.54 156.08"/><polygon class="cls-134" points="752.95 233.87 662.43 232.44 615.81 307.67 659.87 384.62 750.73 386.05 797.18 310.52 752.95 233.87"/><polygon class="cls-135" points="889.55 160.34 799.21 158.92 752.95 233.87 797.18 310.52 887.87 311.95 933.96 236.71 889.55 160.34"/><polygon class="cls-136" points="1024.47 238.13 933.96 236.71 887.87 311.95 932.45 388.91 1023.31 390.33 1069.23 314.8 1024.47 238.13"/><polygon class="cls-137" points="1296 242.4 1205.49 240.98 1159.92 316.22 1205.03 393.19 1295.89 394.62 1341.29 319.07 1296 242.4"/><polygon class="cls-138" points="1160.56 164.6 1070.22 163.18 1024.47 238.13 1069.23 314.8 1159.92 316.22 1205.49 240.98 1160.56 164.6"/><polygon class="cls-139" points="214.17 74.35 124.01 72.93 76.53 147.57 119.38 223.91 209.89 225.33 257.2 150.41 214.17 74.35"/><polygon class="cls-140" points="351.29 1.41 261.3 0 214.17 74.35 257.2 150.41 347.54 151.82 394.5 77.18 351.29 1.41"/><polygon class="cls-141" points="484.66 78.6 394.5 77.18 347.54 151.82 390.91 228.18 481.42 229.6 528.21 154.66 484.66 78.6"/><polygon class="cls-142" points="621.25 5.66 531.26 4.24 484.66 78.6 528.21 154.66 618.54 156.08 664.98 81.43 621.25 5.66"/><polygon class="cls-143" points="755.14 82.85 664.98 81.43 618.54 156.08 662.43 232.44 752.95 233.87 799.21 158.92 755.14 82.85"/><polygon class="cls-144" points="891.22 9.9 801.23 8.48 755.14 82.85 799.21 158.92 889.55 160.34 935.47 85.68 891.22 9.9"/><polygon class="cls-145" points="1025.63 87.1 935.47 85.68 889.55 160.34 933.96 236.71 1024.47 238.13 1070.22 163.18 1025.63 87.1"/><polygon class="cls-146" points="1296.11 91.35 1205.95 89.93 1160.56 164.6 1205.49 240.98 1296 242.4 1341.23 167.44 1296.11 91.35"/><polygon class="cls-147" points="1161.19 14.14 1071.2 12.72 1025.63 87.1 1070.22 163.18 1160.56 164.6 1205.95 89.93 1161.19 14.14"/></g></g></svg>