<svg id="Layer_2" data-name="Layer 2" xmlns="http://www.w3.org/2000/svg" viewBox="0 0 908.32 1015.86"><path d="M912.86,219,565.3,18.35a106.61,106.61,0,0,0-106.6,0L111.14,219a106.57,106.57,0,0,0-53.3,92.31V712.67A106.57,106.57,0,0,0,111.14,805L458.7,1005.65a106.61,106.61,0,0,0,106.6,0L912.86,805a106.57,106.57,0,0,0,53.3-92.31V311.33A106.57,106.57,0,0,0,912.86,219ZM788,567.5H567V789a55,55,0,0,1-110,0V567.5H236a55,55,0,0,1,0-110H457V236a55,55,0,0,1,110,0V457.5H788a55,55,0,0,1,0,110Z" transform="translate(-57.84 -4.07)"/></svg>