<svg id="Réteg_1" data-name="Réteg 1" xmlns="http://www.w3.org/2000/svg" viewBox="0 0 596.88 609.68"><path d="M421.75,287l31-214.28A15,15,0,1,1,482.44,77L452.06,287" transform="translate(-40.91 -59.86)"/><path d="M515.42,287,579.75,76.38a15,15,0,1,1,28.69,8.76L546.79,287" transform="translate(-40.91 -59.86)"/><path d="M581.69,334.32l-12.4,73.49a4,4,0,0,0,4,4.69h60.5a4,4,0,0,0,3.37-6.22L589,332.79A4,4,0,0,0,581.69,334.32Z" transform="translate(-40.91 -59.86)"/><path d="M345.4,473.5a43.31,43.31,0,0,1-40.8,29H115.4l24.5,156.9a11.76,11.76,0,0,0,12.5,10.1H360.8V581.2c.5-7,6.3-12.8,13.3-12.8a12.74,12.74,0,0,1,12.7,12.8v88.3H488.6A12.59,12.59,0,0,0,501.1,659l58.3-346.5H401.3Z" transform="translate(-40.91 -59.86)"/><path d="M41.7,454.6a17.62,17.62,0,0,0,2.6,15.7,17.39,17.39,0,0,0,14.2,7.2v.1H304.7a17.64,17.64,0,0,0,16.6-11.9l52.8-152.1H86.3Z" transform="translate(-40.91 -59.86)"/></svg>