<?xml version="1.0" encoding="utf-8"?>
<!-- Generator: Adobe Illustrator 25.0.0, SVG Export Plug-In . SVG Version: 6.00 Build 0)  -->
<svg version="1.1" id="Layer_1" xmlns="http://www.w3.org/2000/svg" xmlns:xlink="http://www.w3.org/1999/xlink" x="0px" y="0px"
	 viewBox="0 0 700 700" style="enable-background:new 0 0 700 700;" xml:space="preserve">
<g>
	<path d="M207.6,159.3L259,275.7l116.4,51.4c8.3,3.7,12,13.3,8.4,21.6c-1.7,4-4.7,6.8-8.4,8.4L259,408.5L207.6,525
		c-3.7,8.3-13.3,12-21.6,8.4c-4-1.7-6.8-4.7-8.4-8.4l-51.4-116.4L9.8,357.2c-8.3-3.7-12-13.3-8.4-21.6c1.7-4,4.7-6.8,8.4-8.4
		l116.4-51.4l51.4-116.4c3.7-8.3,13.3-12,21.6-8.4C203.1,152.6,205.9,155.7,207.6,159.3L207.6,159.3z M452.7,404.6l30.4,68.7
		l68.7,30.4c8.3,3.7,12,13.3,8.4,21.6c-1.7,4-4.7,6.8-8.4,8.4l-68.7,30.4l-30.4,68.7c-3.7,8.3-13.3,12-21.6,8.4
		c-4-1.7-6.8-4.7-8.4-8.4l-30.4-68.7l-68.7-30.4c-8.3-3.7-12-13.3-8.4-21.6c1.7-4,4.7-6.8,8.4-8.4l68.7-30.4l30.4-68.7
		c3.7-8.3,13.3-12,21.6-8.4C448.3,397.8,451.2,400.9,452.7,404.6L452.7,404.6z M560.2,67.3l39.8,90.2l90.2,39.8
		c8.3,3.7,12,13.3,8.4,21.6c-1.7,4-4.7,6.8-8.4,8.4L600,267.2l-39.8,90.2c-3.7,8.3-13.3,12-21.6,8.4c-4-1.7-6.8-4.7-8.4-8.4
		l-39.9-90.2L400,227.4c-8.3-3.7-12-13.3-8.4-21.6c1.7-4,4.7-6.8,8.4-8.4l90.2-39.8l39.8-90.2c3.7-8.3,13.3-12,21.6-8.4
		C555.6,60.5,558.5,63.6,560.2,67.3L560.2,67.3z"/>
</g>
</svg>
