<svg xmlns="http://www.w3.org/2000/svg" viewBox="0 0 1024 1024"><g id="Layer_3" data-name="Layer 3"><path d="M314.54,816.22q-3.59-5.37-7.66-11.2t-8.21-11.24q-4.14-5.43-8.11-10.21t-7.27-8.06H270.65v69H286V799.3a238.73,238.73,0,0,1,16.52,21.8q7.75,11.53,14.43,23.39h13v-69H314.54Z"/><path d="M386.7,798.3a23.82,23.82,0,0,0-8.11-5.57,26.66,26.66,0,0,0-10.4-2,26.38,26.38,0,0,0-10.3,2,24.26,24.26,0,0,0-8.17,5.57,25.48,25.48,0,0,0-5.37,8.66,31.4,31.4,0,0,0-1.94,11.25,32.44,32.44,0,0,0,1.89,11.3,26,26,0,0,0,5.27,8.76,23.34,23.34,0,0,0,8.12,5.62,26.92,26.92,0,0,0,10.5,2,27.24,27.24,0,0,0,10.6-2,23.39,23.39,0,0,0,8.11-5.62,24.7,24.7,0,0,0,5.17-8.76,33.91,33.91,0,0,0,1.79-11.3A32.07,32.07,0,0,0,392,807,25.42,25.42,0,0,0,386.7,798.3ZM376,829.11a8.88,8.88,0,0,1-7.81,4,9,9,0,0,1-7.87-4q-2.77-4-2.78-10.9t2.78-10.8a9.09,9.09,0,0,1,7.87-3.93,9,9,0,0,1,7.81,3.93q2.73,3.93,2.73,10.8T376,829.11Z"/><path d="M432.83,832.69a28.25,28.25,0,0,1-4.93.45c-3.32,0-5.52-.93-6.62-2.79a14.66,14.66,0,0,1-1.64-7.46V804.48h17.82V792.13H419.64V776.71l-14.83,2.39v44a41.94,41.94,0,0,0,.95,9.25,17.07,17.07,0,0,0,3.33,7.12,15.81,15.81,0,0,0,6.37,4.58,26.64,26.64,0,0,0,10.05,1.64,34.87,34.87,0,0,0,8.07-.8,42,42,0,0,0,6-1.89l-2.09-11.54A25.79,25.79,0,0,1,432.83,832.69Z"/><polygon points="474.38 844.49 489.9 844.49 489.9 816.02 517.17 816.02 517.17 802.98 489.9 802.98 489.9 788.55 520.56 788.55 520.56 775.51 474.38 775.51 474.38 844.49"/><path d="M571.32,798.3a23.82,23.82,0,0,0-8.11-5.57,26.7,26.7,0,0,0-10.4-2,26.43,26.43,0,0,0-10.31,2,24.32,24.32,0,0,0-8.16,5.57A25.48,25.48,0,0,0,529,807,31.19,31.19,0,0,0,527,818.21a32.44,32.44,0,0,0,1.89,11.3,26,26,0,0,0,5.27,8.76,23.34,23.34,0,0,0,8.12,5.62,28.93,28.93,0,0,0,21.09,0,23.34,23.34,0,0,0,8.12-5.62,24.7,24.7,0,0,0,5.17-8.76,33.91,33.91,0,0,0,1.79-11.3A32.07,32.07,0,0,0,576.59,807,25.42,25.42,0,0,0,571.32,798.3Zm-10.7,30.81a8.88,8.88,0,0,1-7.81,4,9,9,0,0,1-7.87-4q-2.79-4-2.78-10.9t2.78-10.8a9.09,9.09,0,0,1,7.87-3.93,9,9,0,0,1,7.81,3.93q2.73,3.93,2.73,10.8T560.62,829.11Z"/><path d="M619.79,832.54c-.93.14-2,.25-3.19.35s-2.32.15-3.38.15q-5.18,0-7.07-3.18t-1.89-10.36V792.13H589.43V821.3a41.5,41.5,0,0,0,1.09,9.85,19.68,19.68,0,0,0,3.69,7.71,16.83,16.83,0,0,0,7,5,29.93,29.93,0,0,0,11.1,1.79,80.16,80.16,0,0,0,12.54-.95,81.13,81.13,0,0,0,9.76-2V792.13H619.79Z"/><path d="M689,797.61a16.75,16.75,0,0,0-7-4.93,30.56,30.56,0,0,0-11.1-1.74,80.16,80.16,0,0,0-12.54.95,82.47,82.47,0,0,0-9.75,2v50.56h14.83V804.08c.93-.13,2-.25,3.18-.35s2.33-.15,3.39-.15q5.17,0,7.06,3t1.89,10.15v27.77h14.83V814.93a40.26,40.26,0,0,0-1.09-9.76A19.22,19.22,0,0,0,689,797.61Z"/><path d="M738.52,793.33a29.07,29.07,0,0,0-4.93-1.69,23.1,23.1,0,0,0-5.52-.6,24.49,24.49,0,0,0-9.9,1.89,19.65,19.65,0,0,0-7.32,5.47,25.08,25.08,0,0,0-4.58,8.71,38.75,38.75,0,0,0-1.59,11.5,32.67,32.67,0,0,0,1.84,11.3,23.4,23.4,0,0,0,5.33,8.55,23.07,23.07,0,0,0,8.56,5.43A32.9,32.9,0,0,0,732,845.78c1.79,0,3.67-.08,5.63-.25s3.88-.38,5.77-.65,3.7-.58,5.42-.94,3.25-.75,4.58-1.15V767.25l-14.83,2.39Zm0,39.31c-.73.14-1.66.25-2.79.35s-2.35.15-3.68.15q-6.07,0-9.16-4.18t-3.08-11.05q0-14.32,10.55-14.33a17.45,17.45,0,0,1,4.53.6,12.89,12.89,0,0,1,3.63,1.49Z"/><ellipse cx="231.65" cy="508.76" rx="7.55" ry="9.43" transform="translate(-326.59 479.22) rotate(-62.49)"/><path d="M441.48,348.53h0Z"/><path d="M835.24,572.07a4.6,4.6,0,0,0,.92-1l3.57-5h.1c6.85,0,11-2.76,13.26-5.23,6.52-7,5.3-18.18,4.91-20.75V525.75c4.85-9-1.68-22.66-2.47-24.26a4.51,4.51,0,0,0-4-2.49h-8.26l49.41-66.89c5.52,4.26,17.44,11.68,32.17,10.54,13.47-1,25.78-8.94,36.58-23.45l26.06-35c1-1.18,5.1-6.4,4.44-13.26-.47-4.93-3.21-9.29-8.15-13l-52.6-39.26c-4.94-3.69-9.9-5.07-14.76-4.12-6.77,1.33-10.6,6.72-11.44,8l-26.14,35c-10.82,14.49-14.87,28.54-12,41.75,3,13.94,12.9,23.1,18.67,27.39L832.05,499H823.5c-1.88,0-6.16,0-9.85,14.29-2.15,1.29-5,3.82-9.48,8.72-8.68,9.54-18.86,23.23-19.28,23.81l-.25.36c-11.79,19.66-59.35,47.07-75.41,55.94-9.9-43.29-49.51-74.11-59.38-81.22.24-8.43-6.19-23.89-11.66-35.47-.66-1.39-1.25-2.61-1.74-3.6l.77-.84c7.53-8.33,12.56-17.29,15-26.63a52,52,0,0,0,1.55-9.9c.74-11.9-2.47-24.11-9.53-36.27l-1.05-1.78a95.27,95.27,0,0,0-11.73-15.34l-.17-.18c-1.34-1.42-2.17-2.17-2.21-2.2s-.23-.2-.33-.28a4.63,4.63,0,0,0-1-.57,78.56,78.56,0,0,1-14-8.26c-.8-.58-1.6-1.19-2.4-1.81a76.34,76.34,0,0,1-15.76-16.35c-.46-.67-1-1.44-1.5-2.26a60,60,0,0,1-5.42-10.6c-.15-.38-.29-.76-.42-1.11a133.14,133.14,0,0,0-12.77-25.91,111.57,111.57,0,0,0-10.08-13.46h0c-2-2.3-3.73-4-4.88-5.07V255.35A36.38,36.38,0,0,0,570.77,257c6.81.48,21.86-4,28.11-10.58h0a39.48,39.48,0,0,0,12.37-24.5h0s0,0,0-.07v0a31.17,31.17,0,0,0,.21-8.32,16.72,16.72,0,0,0-.52-2.59A39.51,39.51,0,0,0,573,178h-.33a39.54,39.54,0,0,0-72.87-10A39.53,39.53,0,1,0,482.53,243h.55c-5.31,17.13-13.66,45.49-14.63,57.37a17.6,17.6,0,0,0-2.62,1.3c-8.44,5-15.79,17.71-21.85,37.64q-.68,2.16-1.32,4.5a4.69,4.69,0,0,0-.06,2.14,6,6,0,0,1,0,2.6,2.9,2.9,0,0,1-.86,0h-.43a4.5,4.5,0,0,0-4.37,2.6c0,.08-.36.8-.77,1.92a30.83,30.83,0,0,0-1.16,3.88c-2,8.39.85,12.64,3.61,14.74.56,11.39,4.32,56.11,29.15,70.2l1.39,15.32c-3.69.8-8.71,2.52-11.82,6.18a11.83,11.83,0,0,0-2.85,7.87,36.38,36.38,0,0,0-3.52,10.53c-14.68,5.8-88.38,35.75-103.63,57.67-14.43,20.74-26.23,48.1-28.92,54.53a7.2,7.2,0,0,1-2.35.85h0c-.32-.67-1.25-3.44.39-12a4.49,4.49,0,0,0-.28-2.61c-1.29-3-32.23-74.79-82.21-97.31-1.27-.62-8.89-4.08-17-.95-4.75,1.83-8.63,5.44-11.57,10.76l-26.46-22.19a4.51,4.51,0,0,0-4.09-.89c-3.63,1-21.68,6.62-20.27,17.9a45,45,0,0,0,1.23,6.28,5.83,5.83,0,0,0-1.93,4.2c-.11,4,4,8,7.47,10.56a4.41,4.41,0,0,0,1.19.64,59.65,59.65,0,0,1,10.73,4.91,3.62,3.62,0,0,1-.44.7,4.3,4.3,0,0,0-1.36,3.44,4.48,4.48,0,0,0,1.88,3.31c19.76,14.82,42.28,33.41,44.41,37.75,1.12,4,5.58,24.39,12.28,56,1,4.64,1.6,7.59,1.61,7.59a1.84,1.84,0,0,0,.05.25c.89,3.3,22.33,81,69.76,87.29,41.08,5.47,63.86-7.53,69.16-11.07l.51,0,.42,24.73a4.5,4.5,0,0,0,4.5,4.42h0a4.5,4.5,0,0,0,4.46-4.5V640a4.5,4.5,0,0,0-9,0v50.29l-2.85.22a4.57,4.57,0,0,0-2.38.92c-.21.15-21.36,15.75-63.68,10.11-40.74-5.43-61.3-77.3-62.21-80.6,0-.23-.16-.73-.31-1.47,3.92.31,9.38.62,15.67.62,18.82,0,44.88-2.77,58-16.54,5.05,1.19,10.24-2.43,10.9-2.92a4.52,4.52,0,0,0,1.51-1.94c.13-.31,13-31.81,28.52-54.12,11.53-16.57,68.16-41.83,95.74-52.93,1.21,13.35,10.16,22.19,16,26.58l-6.09,6.1A4.47,4.47,0,0,0,459,527.5v222a4.5,4.5,0,0,0,9,0V529.36l6.07-6.07c7.91,4.19,22.55,6.92,30,8.1a4.5,4.5,0,0,0,2.4.71,4.45,4.45,0,0,0,1.16-.17l.23,0a2.34,2.34,0,0,0,.38,0c41.3,2.1,59.39-28.95,60.15-30.27a4.57,4.57,0,0,0,.57-2.23c17.77,4,66.89,24,72.48,26.29a4.49,4.49,0,0,0,1,1l.48.33c5.22,3.59,51.26,36.33,58.56,82.53a4.34,4.34,0,0,0,.19.81s0,.09,0,.13a4.46,4.46,0,0,0,.22.5c.08.14.15.27.24.4a1.62,1.62,0,0,0,.1.18c.61.89,5.65,9-6,20.7a4.5,4.5,0,0,0,6.36,6.36c10.86-10.85,11.31-21.25,9.22-27.74,10.24-5.58,38.51-21.52,59.38-38.3,2.54,6.61,8.84,17.33,24.2,32.83l-32.61,47.37c-1.57,2-29.63,37.48-56.94,44.17l-52.43,1H649V638.5a4.5,4.5,0,0,0-9,0v88a4.5,4.5,0,0,0,9,0V707h4.58l53-1a4.94,4.94,0,0,0,.94-.12c31.21-7.28,61.28-46,62.55-47.64l.14-.19,52.6-76.42Zm40.34-174.64c-2.27-10.56,1.24-22.16,10.44-34.47l26.24-35.12c.08-.1.17-.24.24-.34s2.21-3.47,5.67-4.12c2.26-.42,4.8.42,7.59,2.51l52.61,39.27c2.79,2.08,4.33,4.28,4.57,6.56.37,3.51-2.3,6.58-2.3,6.59s-.2.22-.29.34l-26.17,35.17c-9.16,12.31-19.24,19-30,19.85-15.9,1.29-28.45-10.68-28.56-10.8a5,5,0,0,0-.63-.51,4.8,4.8,0,0,0-1-.71C893.91,421.57,878.94,413.11,875.58,397.43ZM201.08,531.88c-7.59-6.16-15.13-12-19.23-15.09a11.55,11.55,0,0,0,.65-3.79c0-2,0-6.06-16.3-12a26.13,26.13,0,0,1-2.46-2.25c1.8-2.23,1.43-4.54.8-6.91a36.07,36.07,0,0,1-1.07-5.41c-.23-1.82,5.3-5.29,11.52-7.42l29.12,24.43a4.5,4.5,0,0,0,7.12-1.91c2.15-5.92,5.13-9.67,8.85-11.14,4.84-1.9,9.8.57,9.81.58l.27.12c18,8.06,33.51,23.47,45.9,39.44C267.7,538.67,257.9,547,254.78,548c-5.46-.6-21.33,2.75-30.61,4.88C221.56,549.57,215.57,543.63,201.08,531.88Zm37,78.4c-3.36-15.84-8.25-38.66-10.65-48.92,11.44-2.57,23.65-4.82,26.15-4.45,1.92.38,6.88,1.36,27.87-19.08a280.45,280.45,0,0,1,25.83,44.72c-.83,4.74-1.39,10.35,0,14.67C293.22,612.25,255.5,612,238.12,610.28Zm268.67-133-28.5-18.85-1.18-12.92a66.63,66.63,0,0,0,26,5.64,51.62,51.62,0,0,0,17-2.8,50.85,50.85,0,0,0,15-8.33c.66,5.9,2.65,16.46,3.51,20.9ZM493.71,239.17a4.5,4.5,0,0,0-5.18-5.77A30.53,30.53,0,1,1,499.3,178a4.49,4.49,0,0,0,6.64-2.07,30.54,30.54,0,0,1,58.23,5.29c.13.67.24,1.31.33,2a4.49,4.49,0,0,0,4.87,3.92c.82-.07,1.67-.11,2.6-.11h.77a30.47,30.47,0,0,1,29.76,30.51,29.75,29.75,0,0,1-.18,3.33c0,.14-.05.28-.08.42s-.09.53-.15.8-.07.28-.1.42-.13.56-.2.83-.07.28-.11.41c-.08.29-.15.57-.24.86,0,.13-.08.26-.13.4l-.27.86-.15.41c-.1.28-.2.57-.31.86l-.15.36c-.12.3-.24.6-.37.9,0,.1-.08.2-.13.3-.14.32-.28.64-.43,1l-.12.26c-.16.33-.32.66-.49,1a1.14,1.14,0,0,1-.1.19c-.18.35-.36.7-.55,1.05a.75.75,0,0,0-.07.12c-.21.37-.42.74-.64,1.1v0a41.87,41.87,0,0,1-4.1,5.71l-.72.82-.21.24c-3.78,4.13-15.43,7.9-20.44,7.94a5.12,5.12,0,0,0-.56,0,28.32,28.32,0,0,1-13.44-3.35,4.5,4.5,0,0,0-6.56,4v49.66c-4.79-2.19-13.28-5.83-18.76-6.75a12.11,12.11,0,0,0-2-.14c-6.62,0-19.31,3.42-26.09,5.4a16.55,16.55,0,0,0-8.88-4.9c-6-1.22-12.5.67-17.45,2.88C480.78,281.93,487.6,258.46,493.71,239.17Zm-46,134.14c23.56-6.59,44.61-32.88,53.15-44.8,10.34,16.44,39.89,39.93,40.23,40.19,3.95,3,24.43,6.51,35.77,8.29a15.52,15.52,0,0,1-3,10.54c-5.72,7.56-17.68,9-17.8,9a4,4,0,0,0-3.32,2.59c-8.28,22.37-20.13,36.39-35.25,41.67-21.16,7.39-42.07-5-42.42-5.2-.13-.08-.28-.13-.42-.2a5.3,5.3,0,0,0-.76-.46C453,425.23,448.62,386.46,447.72,373.31Zm27.81,140.17c-1.36-.74-17.89-10.11-16.09-27.61L463,474.38a19,19,0,0,1,10.21-8.53L502,484.92v37c-11.36-2-22.8-5.08-25.32-7.59A4.25,4.25,0,0,0,475.53,513.48ZM511,523.07V485.25l30.9-15.9c3.47,1.39,12.46,6.5,16.64,22.84a23.36,23.36,0,0,0,.92,4.17c.12.69.25,1.4.36,2.13A57.49,57.49,0,0,1,511,523.07Zm327,34a22.91,22.91,0,0,1-16.32-9.89c5.25-.78,16.73-1.55,27.61-2,0,3.2-.61,7.24-2.84,9.62C844.72,556.67,842,557.41,838,557Zm-16.16-39.52a47.77,47.77,0,0,1,3.18-9.51h23.5c1.38,3.54,2.77,8.66,2.06,12H820.33A4.53,4.53,0,0,0,821.88,517.51ZM849,529v7.16c-8.94.35-24.67,1.15-31.2,2.6a43.6,43.6,0,0,1-1.74-9.76Zm-33.21,47-15.11,22c-17.81-18.28-21.26-28.49-21.92-31.62,5.76-5.22,10.52-10.41,13.48-15.28,1-1.36,8.07-10.77,15-18.88,1.32,11.71,7.12,26.72,22.72,32.17l-.74,1-12.47,9.59A4.47,4.47,0,0,0,815.79,576Z"/><circle cx="482.5" cy="632.5" r="11"/><circle cx="483" cy="545" r="11"/><path d="M1159,803H818a6,6,0,0,0,0,12h341a6,6,0,0,0,0-12Z"/><path d="M206,803H-135a6,6,0,0,0-6,6,6,6,0,0,0,6,6H206a6,6,0,0,0,0-12Z"/><path d="M903.94,410.2a4.5,4.5,0,0,0,6.26-1.14l36-52a4.5,4.5,0,0,0-7.4-5.12l-36,52A4.51,4.51,0,0,0,903.94,410.2Z"/><path d="M919.94,422.2a4.5,4.5,0,0,0,6.26-1.14l36-52a4.5,4.5,0,0,0-7.4-5.12l-36,52A4.51,4.51,0,0,0,919.94,422.2Z"/><path d="M888.94,398.2a4.5,4.5,0,0,0,6.26-1.14l36-52a4.5,4.5,0,0,0-7.4-5.12l-36,52A4.51,4.51,0,0,0,888.94,398.2Z"/><path d="M680,321.23c11.76,5.48,23.06.31,28.24-10.81,5.48-11.75,1.7-23.56-9.41-28.75s-22.91-.62-28.39,11.13C665.24,303.92,668.87,316.05,680,321.23Z"/><path d="M726.44,254.73c6.6-16.65,18.2-28.25,39.87-38.26,23.69-11,43-20.93,53.08-42.53,11.25-24.15,5.24-54.4-31.29-71.42-16.83-7.85-37.31-11.2-51.34-8.46l-1.7,23.56c10.75-2.34,25.23-.22,36.67,5.11,19.86,9.64,25,25.18,17.44,41.38-6.66,14.29-20.37,23-42.51,33.15C721.89,208.92,707.44,225,701.35,243l-3.21,8.56,24.77,11.55Z"/><path d="M208.86,350c10.58.31,15.88,6.1,15.76,14.67-.1,7.56-4.39,14.05-12.06,22.86-8.54,10-11.7,19.84-10.81,28.92l.28,4.37,13.1.18-.11-4.37c-.39-8.58,2.4-15.93,9.91-24.57,8.19-9.47,14.69-17.62,14.84-29,.17-12.77-8.41-24.82-27.73-25.07-8.9-.12-18.52,2.44-24.11,6.4L191.82,355C196.06,351.85,202.81,349.92,208.86,350Z"/><path d="M198,444.3c-.08,5.88,3.89,10.47,9.77,10.55,6.22.08,10.14-4.41,10.22-10.29.08-6.21-3.89-10.63-9.77-10.71S198.1,438.08,198,444.3Z"/><path d="M840.79,254.68c7.58-4,15.42-4.67,26.44-1.59,12.07,3.34,22.21,5.72,32.6.95,11.61-5.32,18.81-18.23,10.76-35.8-3.71-8.09-10.14-15.68-16.12-19l-7.94,8.08c4.65,2.49,9.28,7.76,11.8,13.25,4.26,9.7,1.31,17-6.48,20.54-6.87,3.15-14.58,2.06-25.83-1.1-12.66-3.44-22.94-2.06-30.76,2.64l-3.84,2.12,5.47,11.92Z"/><path d="M808.5,251.18c-5.35,2.45-7.79,8-5.34,13.35,2.59,5.65,8.33,7.27,13.67,4.82,5.65-2.59,7.94-8.07,5.49-13.42S814.15,248.59,808.5,251.18Z"/><path d="M655.56,189.12c-5.78,1.06-9.13,6.11-8,12.22,1.06,5.79,5.84,9.53,11.63,8.47,6.11-1.12,9.1-6.28,8-12.07C666.1,191.63,661.35,188.06,655.56,189.12Z"/><path d="M640,106.73c10.44-1.74,16.76,2.91,18.3,11.34,1.36,7.44-1.59,14.64-7.42,24.76-6.45,11.43-7.64,21.73-5,30.47l1.12,4.24,12.89-2.36-1-4.27c-2-8.34-.73-16.09,5-26,6.21-10.87,11-20.12,8.95-31.36-2.3-12.56-13-22.72-32-19.24-8.76,1.6-17.69,6-22.42,10.93l5.87,9.69C627.77,111,634,107.82,640,106.73Z"/></g></svg>