<svg id="Layer_3" data-name="Layer 3" xmlns="http://www.w3.org/2000/svg" viewBox="0 0 1024 1024"><circle cx="474.95" cy="682.34" r="11.53"/><path d="M743.61,321.84a5.37,5.37,0,0,0-.34-.83,160.55,160.55,0,0,0-137.33-86.47,35,35,0,0,0-38.11-22.76,90.08,90.08,0,0,1,9.27-35.17c.73-1.49,1.54-3,2.38-4.46a44.29,44.29,0,0,0-39-79.4,43.92,43.92,0,0,0-28.63-10.51,42.61,42.61,0,0,0-6.92.56,42.61,42.61,0,0,0-6.92-.56,43.92,43.92,0,0,0-28.63,10.51,44.31,44.31,0,0,0-61.78,40.69,43.92,43.92,0,0,0,1.84,12.61,44.47,44.47,0,0,0,20.94,26.1c.85,1.48,1.66,3,2.39,4.48A90.22,90.22,0,0,1,442,211.78a35,35,0,0,0-38.11,22.76A161.07,161.07,0,0,0,266.59,321a5.37,5.37,0,0,0-.34.83,160.24,160.24,0,0,0-6.18,39.79c-.05,1.57-.07,3.16-.07,4.75A160.95,160.95,0,0,0,359.44,515a215.24,215.24,0,0,0-17.28,20.32c-3.34,4.46-6.54,9.09-9.49,13.74a214.81,214.81,0,0,0-33.46,115.38c0,16.77,2.83,46.23,7.05,63.35a4.5,4.5,0,0,0,4.36,3.43,4.45,4.45,0,0,0,1.08-.14,4.5,4.5,0,0,0,3.3-5.44c-4.07-16.49-6.79-45-6.79-61.2A205.79,205.79,0,0,1,340.27,553.9c2.83-4.45,5.89-8.89,9.09-13.17a207.83,207.83,0,0,1,21.25-24.19,4.49,4.49,0,0,0-1.6-7.46,151.93,151.93,0,0,1-100-142.7c0-1.5,0-3,.07-4.49a151.53,151.53,0,0,1,5.71-37.12A151.51,151.51,0,0,1,402,243.63a2.44,2.44,0,0,0,0,.27c-.06.85-.1,1.7-.1,2.55s0,1.45.06,2.17c0,.24.05.48.07.71,0,.48.07,1,.13,1.44,0,.28.09.56.13.84s.12.86.2,1.28.13.59.19.88.16.81.26,1.2.17.6.25.9.21.76.33,1.14.2.6.3.9.26.74.4,1.1.24.59.36.88.29.72.45,1.07.28.58.42.87.33.68.51,1l.47.85c.19.33.37.65.57,1s.35.55.52.82.42.64.63.94.38.54.58.8l.68.9c.2.26.41.52.63.77s.48.57.73.85.45.49.68.74.52.54.78.8l.73.7c.27.26.55.51.83.76l.78.66.88.7.82.63.34.25-.31.39c-.58.68-1.15,1.38-1.7,2.08l-.52.65q-1,1.29-1.95,2.61c-.09.14-.18.27-.28.4-.55.78-1.08,1.56-1.6,2.36l-.48.73q-.9,1.38-1.74,2.79a4.83,4.83,0,0,0-.39.87c-.25.75-.5,1.51-.74,2.28-.33,1-.62,2.08-.9,3.13-.09.33-.17.66-.26,1-.19.73-.37,1.46-.53,2.2-.09.37-.17.75-.25,1.12-.16.73-.3,1.46-.44,2.19-.06.34-.13.69-.19,1,0,.13,0,.26-.07.39l-1.33.48a161.62,161.62,0,0,0-60.95,39.62,4.53,4.53,0,0,0-1.26,3.14,3.81,3.81,0,0,0,.07.75,159.31,159.31,0,0,0,45.51,87.13,4.43,4.43,0,0,0,2.48,1.25A216.82,216.82,0,0,0,416.25,436c1.69,0,3.39.06,5.08.06a215.1,215.1,0,0,0,56.86-7.58c2.65.35,6.11-.37,9.72-1.83L436,478.51a4.47,4.47,0,0,0-1.32,3.18V732.5a4.5,4.5,0,0,0,9,0V483.56l63.44-63.45q4.25,1.74,8.55,3.29c5.6,3.5,11.81,5.61,16,5.05A215.08,215.08,0,0,0,588.53,436c2.52,0,5,0,7.23-.12a217.8,217.8,0,0,0,25.38-2.33,4.43,4.43,0,0,0,2.48-1.25,159.31,159.31,0,0,0,45.51-87.13,3.94,3.94,0,0,0,.07-.77,4.5,4.5,0,0,0-1.26-3.12A161.66,161.66,0,0,0,607,301.69l-1.34-.48c0-.13,0-.26-.07-.39-.06-.34-.13-.67-.19-1-.14-.74-.28-1.48-.44-2.22l-.24-1.1c-.17-.74-.36-1.49-.55-2.23-.08-.32-.16-.65-.25-1-.28-1.05-.58-2.1-.9-3.14-.24-.76-.49-1.52-.74-2.27a4.83,4.83,0,0,0-.39-.87q-.84-1.41-1.74-2.79l-.48-.74c-.52-.79-1.06-1.58-1.61-2.36l-.27-.38c-.63-.89-1.29-1.76-2-2.63l-.49-.62c-.57-.72-1.15-1.43-1.74-2.12l-.29-.37.34-.25.8-.61.9-.72c.26-.21.51-.43.76-.65s.57-.51.85-.77l.72-.69.79-.81.67-.74c.26-.28.5-.56.74-.85l.63-.77c.23-.3.46-.59.68-.9l.58-.8c.21-.31.42-.62.62-.93s.36-.56.53-.84.38-.64.56-1,.33-.57.48-.86.34-.67.51-1,.29-.58.42-.88.3-.7.45-1.05.25-.59.37-.9.26-.72.38-1.08.21-.61.31-.91.22-.76.33-1.13.17-.61.25-.91.18-.79.26-1.19.13-.59.19-.89.14-.85.2-1.27.09-.57.13-.85c.06-.48.09-1,.13-1.44,0-.24.05-.47.07-.71,0-.72.06-1.44.06-2.17s0-1.28-.06-1.92c0-.16,0-.32,0-.48l0-.42a152.06,152.06,0,0,1,127.17,81.14,151.6,151.6,0,0,1,5.71,37.13c.05,1.46.07,3,.07,4.48a151.93,151.93,0,0,1-100,142.7,4.49,4.49,0,0,0-1.6,7.46,207.83,207.83,0,0,1,21.25,24.19c3.2,4.28,6.26,8.71,9.09,13.17a207,207,0,0,1,23.19,170.6,4.5,4.5,0,1,0,8.61,2.62,216,216,0,0,0-24.2-178c-3-4.66-6.15-9.28-9.49-13.75A216.39,216.39,0,0,0,650.42,515a161,161,0,0,0,99.44-148.64c0-1.6,0-3.2-.07-4.74A160.25,160.25,0,0,0,743.61,321.84ZM598.24,240.06a26.37,26.37,0,0,1,.78,6.39,26,26,0,0,1-11.82,21.83l-.17.1h0l0-.06c-.74-.7-1.49-1.38-2.25-2.05l-.66-.57c-.65-.56-1.3-1.11-2-1.64l-.47-.39c-.68-.54-1.37-1.08-2.07-1.6-.3-.52-.58-1-.87-1.57s-.53-.95-.78-1.43c-.35-.68-.69-1.38-1-2.08-.23-.46-.46-.92-.68-1.39-.36-.76-.69-1.54-1-2.32-.18-.41-.37-.82-.54-1.23-.5-1.2-1-2.41-1.42-3.63h0c-.85-2.32-1.6-4.65-2.23-6.94-.25-.9-.49-1.81-.71-2.73l-.21-.92c-.14-.61-.28-1.22-.41-1.84-.08-.36-.15-.72-.22-1.08l-.33-1.72c-.06-.38-.13-.75-.19-1.12l-.27-1.73-.15-1.1c-.08-.62-.16-1.24-.23-1.87,0-.32-.07-.64-.1-1-.09-.86-.17-1.73-.23-2.6,0-.07,0-.15,0-.23-.06-.88-.11-1.76-.14-2.64a25.77,25.77,0,0,1,5.2-.53A26,26,0,0,1,598.24,240.06Zm-4.34,51.13c.18.54.36,1.09.53,1.64a76.45,76.45,0,0,1,2.25,9.25c.18,1,.34,2.07.48,3.11h0a77,77,0,0,1,.71,10.44c0,.35,0,.69,0,1-9.64,40.94-35.65,21.36-56,8.18-19.6-12.68-20.76,2.31-20.76,2.31-3.46,16.15-16.14,5.77-16.14,5.77s-12.68,10.38-16.14-5.77c0,0-1.16-15-20.76-2.31-20.36,13.18-46.37,32.76-56-8.18,0-.35,0-.69,0-1a77.18,77.18,0,0,1,.71-10.45,74.84,74.84,0,0,1,2.73-12.36c.17-.55.35-1.1.53-1.64.92-1.54,1.91-3,2.94-4.49a77.46,77.46,0,0,1,7.92-9.61,74.69,74.69,0,0,1,9.6-8.35l.21-.17c.25-.19.51-.37.77-.55s.62-.45.94-.66l.83-.56,1-.64.84-.52c.33-.21.66-.43,1-.63l.79-.47,1.08-.63.71-.39c.39-.22.79-.45,1.19-.66l.58-.3,1.35-.7.4-.19c.52-.25,1-.51,1.57-.75l.14-.06a76.66,76.66,0,0,1,18.27-5.79l.85-.15H469a78.35,78.35,0,0,1,12.9-1.08l1.71,0,1.2,0c1,0,1.91.09,2.89.16.79.06,1.57.13,2.36.22h.11c.33,0,.64.06,1,.11h.12l.69.09.13,0,1.22.17,1.35.21c.48.07,1,.17,1.45.26h0l.2,0,1.16.23.13,0,.64.14.35.07c.53.12,1.05.23,1.61.38l.95.23.51.14,0,0a4.89,4.89,0,0,0,.69.42l.24.1a3.84,3.84,0,0,0,.51.19l.29.07a4,4,0,0,0,.5.08l.3,0,.16,0a3.88,3.88,0,0,0,.48,0h.2a3.88,3.88,0,0,0,.48,0h.15l.32,0a4,4,0,0,0,.48-.08l.31-.07a4.09,4.09,0,0,0,.49-.18l.25-.11a4.89,4.89,0,0,0,.69-.42l0,0,.48-.13,1-.25c.52-.14,1-.25,1.53-.36l.39-.08.64-.14.14,0,1.15-.23.21,0c.49-.09,1-.19,1.48-.26l1.3-.21,1.24-.17.13,0,.69-.09h.12c.32,0,.63-.08,1-.11h.11c.78-.09,1.57-.16,2.41-.22s1.88-.13,2.81-.16l1.25,0a80.59,80.59,0,0,1,14.59,1.06H541c.29.05.56.09.83.15l.1,0c.7.13,1.4.26,2.1.41l.65.15c.48.11,1,.21,1.45.33l.84.22,1.24.31,1,.28,1.11.32,1,.32,1,.33,1,.36,1,.35,1,.4,1,.37,1,.43,1,.4,1,.45.94.43,1,.49.93.44,1,.52.9.47,1,.55.9.5,1,.57.87.52,1,.61c.29.18.58.35.86.54s.64.42.95.63.57.37.85.57l.93.65.78.56.21.17a74.07,74.07,0,0,1,9.61,8.37c1,1.06,2,2.15,3,3.27A77.66,77.66,0,0,1,593.9,291.19Zm-89,108.73.41.07c-.15.16-.28.33-.41.49-.13-.16-.26-.33-.41-.49Zm30.85-9.81A107.38,107.38,0,0,0,521,392.43a76.84,76.84,0,0,1-13.34-1.16l-.05,0-.18-.08a4.47,4.47,0,0,0-.64-.25l-.26-.07a4.2,4.2,0,0,0-.71-.11l-.15,0a9.39,9.39,0,0,1-1.5,0l-.13,0a4.55,4.55,0,0,0-.74.11l-.25.07a5.12,5.12,0,0,0-.65.25l-.17.08-.05,0a76.84,76.84,0,0,1-13.34,1.16,107.38,107.38,0,0,0-14.77-2.32s-.11.31-.28.85a77.08,77.08,0,0,1-56.21-46.58c5.2,9.06,14.69,16.12,32,13.93,0,0,39.21-19.61,40.36,1.15,0,0,14,7,15-20,1,26.95,15,20,15,20,1.15-20.76,40.36-1.15,40.36-1.15,17.29,2.19,26.79-4.87,32-13.93A77.08,77.08,0,0,1,536.06,391C535.89,390.42,535.78,390.11,535.78,390.11ZM448.39,240.67c.08-.31.14-.61.21-.92.18-.77.36-1.54.52-2.32.08-.4.15-.79.22-1.19.14-.69.28-1.38.39-2.07.08-.45.14-.9.21-1.35.11-.64.21-1.29.3-1.93.07-.48.12-.95.18-1.43s.16-1.25.22-1.88.09-1,.13-1.49.12-1.22.16-1.83.06-1,.08-1.49.08-1.22.1-1.84,0-1,0-1.49,0-1.19,0-1.79c0-.2,0-.41,0-.6,0-1.85-.05-3.5-.14-5a99.06,99.06,0,0,0-8.28-35.24l.67.12.87.16c.43.08.86.14,1.3.2.28,0,.55.09.83.12l1.44.15c.23,0,.47.05.71.06.72.06,1.44.09,2.16.11a44.12,44.12,0,0,0,21.88,5.78q1.13,0,2.25-.06l.74-.05c.5,0,1-.07,1.49-.12l.91-.11,1.3-.17,1-.17,1.21-.22,1-.23,1.15-.28,1-.29,1.09-.31,1-.35,1.05-.36,1.05-.41c.33-.13.67-.26,1-.4l1.06-.48c.32-.14.64-.28.95-.44l1.05-.53c.31-.16.61-.31.91-.48l1-.59.86-.51c.35-.21.69-.43,1-.65l.84-.56,1-.7q.41-.28.81-.6l1-.74.79-.65.89-.78c.27-.23.53-.48.79-.72l.82-.79.37-.35.86-.13.86.13.39.37.76.74.88.79c.26.24.52.47.79.69l.91.76.82.64,1,.7.84.6,1,.66.87.55,1,.61.89.51,1.06.55c.3.16.6.32.91.46s.72.34,1.09.51l.92.41c.37.16.75.31,1.12.45l.94.37,1.15.4.95.31,1.17.34,1,.27c.4.11.81.2,1.21.29s.63.15,1,.21.84.16,1.26.23l.93.17c.44.07.89.12,1.33.17l.88.11q.75.08,1.5.12l.73.05q1.13.06,2.25.06a44.12,44.12,0,0,0,21.88-5.78c.72,0,1.44-.05,2.16-.11.24,0,.47,0,.7-.06.49,0,1-.09,1.45-.15.28,0,.55-.08.83-.12s.87-.12,1.3-.2l.86-.16.68-.12A98.89,98.89,0,0,0,558.8,212c-.09,1.57-.14,3.22-.14,5.06,0,.19,0,.4,0,.6,0,.49,0,1,0,1.48s0,1.21,0,1.81.06,1.16.09,1.75,0,1.05.09,1.57.11,1.28.16,1.91c0,.47.08.94.13,1.41.07.69.16,1.37.25,2.06,0,.41.09.83.15,1.24.1.74.22,1.48.34,2.22.06.36.1.71.16,1.06.14.78.29,1.56.44,2.34.07.31.12.62.18.92.17.82.36,1.62.54,2.43.07.27.12.54.18.81.26,1.07.54,2.14.83,3.2.52,1.88,1.13,3.79,1.79,5.7.22.65.43,1.29.67,1.94h0c.24.65.49,1.3.74,2l-.49-.23-1.53-.71-.78-.35c-.54-.24-1.08-.48-1.62-.7l-.72-.3-1.76-.7-.6-.23-2-.71-.4-.14q-3.72-1.27-7.52-2.19h0c-.8-.19-1.6-.37-2.41-.54l-.16,0h0a4.8,4.8,0,0,0-.43-.32,4.09,4.09,0,0,0-.46-.25l-.16-.07-.32-.14-.19-.05a2.8,2.8,0,0,0-.31-.09l-.2,0-.31,0h-.74l-.29,0-.23,0-.28.05-.23.07-.21.06c-.35-.06-.69-.09-1-.14-.72-.1-1.45-.2-2.18-.28l-1.28-.13c-.87-.09-1.75-.17-2.62-.23l-.87-.05c-1-.06-1.93-.1-2.89-.13l-.87,0c-.46,0-.93,0-1.4,0s-1.24,0-1.85,0H526l-1.25,0c-1.09,0-2.18.1-3.19.18s-1.79.15-2.67.25c-.46,0-.91.09-1.36.15-.3,0-.6.07-.89.12-.48,0-1,.12-1.47.2l-1.27.2c-.59.09-1.17.2-1.75.31h-.06l-.19,0q-.62.1-1.23.24h-.08l-.88.19-.37.08c-.63.14-1.26.28-1.84.43l-1,.25c-.53.13-1.06.28-1.58.42l-1.6-.43-.95-.23c-.63-.17-1.26-.31-1.93-.45l-.32-.07-.88-.19h0l-1.3-.25-.2,0h-.06c-.58-.11-1.16-.22-1.71-.3l-1.33-.21c-.48-.08-1-.15-1.45-.2-.29-.05-.59-.08-.89-.12s-.9-.11-1.36-.15c-.88-.1-1.77-.18-2.61-.24-1.07-.09-2.16-.15-3.28-.19l-1.22,0h-.12c-.61,0-1.23,0-1.85,0-1.15,0-2.3,0-3.45.08-.38,0-.76,0-1.14.06-.77,0-1.54.08-2.31.14l-1.35.13-2.08.22-1.43.19-1.39.19-.21-.06-.23-.07-.29-.05-.22,0-.3,0H467l-.22,0-.29,0-.22,0-.29.09a1.17,1.17,0,0,0-.2.06l-.31.13-.17.07a4.17,4.17,0,0,0-.46.26l-.43.31-.17,0-1.8.41c-.22.05-.45.09-.67.15q-1.23.3-2.46.63l-.48.14q-1,.27-1.95.57l-.86.27c-.52.17-1,.33-1.56.51l-1,.34-1.44.51-1,.38-1.38.55c-.34.13-.67.27-1,.42s-.89.38-1.34.57l-1,.45-1.33.62-.59.28c.25-.65.5-1.3.74-2,.94-2.56,1.76-5.13,2.45-7.64C447.86,242.81,448.13,241.74,448.39,240.67Zm-30.33-97.18a35.3,35.3,0,0,1,50.05-41.39,4.49,4.49,0,0,0,5.23-.78A35,35,0,0,1,498,91.24a33.84,33.84,0,0,1,6.1.55,4.52,4.52,0,0,0,1.64,0,33.84,33.84,0,0,1,6.1-.55,35,35,0,0,1,24.67,10.08,4.49,4.49,0,0,0,5.23.78A34.88,34.88,0,0,1,558,98.16a35.33,35.33,0,0,1,35.29,35.28,34.89,34.89,0,0,1-1.47,10.06A35.25,35.25,0,0,1,558,168.73h-.12a4.46,4.46,0,0,0-2.34.65,35.07,35.07,0,0,1-18.29,5.11c-.62,0-1.23,0-1.84-.05a35.31,35.31,0,0,1-24.15-11.38c-.39-.43-.78-.87-1.16-1.33l-.06-.08h0a4.5,4.5,0,0,0-3-4.25,4.34,4.34,0,0,0-.62-.16l-.18,0-.46,0h-.19a4,4,0,0,0-.6,0h-.11l-.51,0h-.22l-.42,0-.21,0a4.21,4.21,0,0,0-.61.16,4.52,4.52,0,0,0-3,4.25h0l-.06.07c-.38.47-.77.92-1.18,1.35a35.26,35.26,0,0,1-44.26,6.31,4.46,4.46,0,0,0-2.34-.65h-.12a35.63,35.63,0,0,1-8.08-.93c-1.07-.26-2.14-.58-3.19-.93l-.93-.31-.06,0a35.14,35.14,0,0,1-21.57-23Zm18.83,76.9a25.8,25.8,0,0,1,5.21.53c0,.88-.08,1.76-.14,2.64a2.64,2.64,0,0,0,0,.28c-.07.86-.14,1.71-.23,2.56,0,.31-.07.63-.1.94-.07.63-.15,1.26-.23,1.89l-.15,1.07-.27,1.76c-.06.37-.13.73-.19,1.1l-.33,1.76c-.07.35-.14.69-.22,1-.13.64-.27,1.27-.42,1.9-.07.29-.13.58-.2.87-.23.92-.46,1.84-.71,2.75-.63,2.27-1.38,4.6-2.23,6.93-.45,1.22-.92,2.43-1.42,3.63-.16.4-.35.78-.52,1.18-.34.79-.68,1.59-1.05,2.37-.21.47-.45.92-.67,1.38-.34.7-.68,1.4-1,2.09-.25.48-.51.94-.77,1.42s-.58,1.06-.88,1.58c-.7.52-1.39,1.06-2.07,1.6l-.46.38c-.66.54-1.32,1.09-2,1.64l-.67.58c-.74.66-1.47,1.32-2.19,2l-.12.11h0a2,2,0,0,1-.19-.12,26,26,0,0,1-11.8-21.81c0-.58,0-1.16.06-1.73a24.22,24.22,0,0,1,.38-3.08c.07-.36.15-.7.23-1,0-.17.07-.35.11-.52A26,26,0,0,1,436.89,220.39ZM416.45,427a208,208,0,0,1-24.93-2.07,150.39,150.39,0,0,1-41.52-79,152.55,152.55,0,0,1,53.11-34.71c-.07,1.47-.12,2.94-.12,4.42a86,86,0,0,0,68.49,84c-1.36,6.44-2.35,14.88-.29,21.29A206.51,206.51,0,0,1,421.33,427C419.7,427,418.07,427,416.45,427Zm243.41-81a150.39,150.39,0,0,1-41.52,79,208.79,208.79,0,0,1-22.88,2c-2.18.07-4.51.11-6.93.11A206.57,206.57,0,0,1,538.67,421c2.06-6.41,1.07-14.85-.29-21.29a86,86,0,0,0,68.49-84c0-1.48,0-2.95-.13-4.42A152.5,152.5,0,0,1,659.86,345.93Z"/><circle cx="474.95" cy="492.07" r="11.53" transform="translate(-208.84 479.96) rotate(-45)"/><circle cx="474.95" cy="580.86" r="11.53" transform="translate(-120.75 124.66) rotate(-13.28)"/><path d="M463.42,262.6c-26.53,3.45-45,41.51-45,41.51,21.91-19.61,42.67-11.53,64.58-18.45S496.86,258,496.86,258C492.25,263.75,489.94,259.14,463.42,262.6Z"/><path d="M546.44,262.6c-26.52-3.46-28.83,1.15-33.44-4.62,0,0-8.07,20.76,13.84,27.68s42.67-1.16,64.58,18.45C591.42,304.11,573,266.05,546.44,262.6Z"/><path d="M665.6,155a46.63,46.63,0,0,0-2.18,7.29l15.3,8.83a63.28,63.28,0,0,1,1.39-7.24,32.46,32.46,0,0,1,3.53-8.54,21.24,21.24,0,0,1,7.9-8,50.44,50.44,0,0,1,11-4.63q6-1.77,12.7-3.24a92.82,92.82,0,0,0,13.09-3.92A52,52,0,0,0,740.35,129a35.14,35.14,0,0,0,9.71-11.12,33.7,33.7,0,0,0,4.76-14.61,30.8,30.8,0,0,0-2.16-13.72,38.57,38.57,0,0,0-7.9-12.09,54.54,54.54,0,0,0-12.49-9.74q-15.59-9-35.39-8.26l-9.64,16.72q19.07-5.83,35.13,3.43a34.11,34.11,0,0,1,7.77,6.07,24.24,24.24,0,0,1,5,7.62,19.59,19.59,0,0,1,1.4,8.66,20.49,20.49,0,0,1-2.9,9.09,23,23,0,0,1-8,8.34,52.72,52.72,0,0,1-10.91,5q-6,2-12.5,3.44a105.24,105.24,0,0,0-12.62,3.66,52.27,52.27,0,0,0-11.33,5.69,28.08,28.08,0,0,0-8.75,9.58A54.18,54.18,0,0,0,665.6,155Z"/><path d="M661.28,185.73a11.74,11.74,0,0,0-9.22-1.14,11.22,11.22,0,0,0-7.41,5.61,11.39,11.39,0,0,0-1.14,9.22A12.18,12.18,0,0,0,658.33,208a11.47,11.47,0,0,0,7.41-5.6,11.22,11.22,0,0,0,1.14-9.22A11.7,11.7,0,0,0,661.28,185.73Z"/><path d="M724.2,187.27a7,7,0,0,0-5.48,1.77,7.14,7.14,0,0,0-2.56,5.16,7.55,7.55,0,0,0,6.93,8,7.11,7.11,0,0,0,5.49-1.76,6.92,6.92,0,0,0,2.55-5.17,7.4,7.4,0,0,0-6.93-8Z"/><path d="M802.54,152.22a23.67,23.67,0,0,0-2.15-8.7,33.83,33.83,0,0,0-5.32-8.26,40,40,0,0,0-19-12.07L767,131q12.36.48,19.87,9.19a21.31,21.31,0,0,1,3.31,5.14,15.16,15.16,0,0,1,1.35,5.48,12.27,12.27,0,0,1-1,5.36,12.8,12.8,0,0,1-3.56,4.73,14.3,14.3,0,0,1-6.41,3.23,32.49,32.49,0,0,1-7.41.69q-3.88-.08-8-.55a64.2,64.2,0,0,0-8.14-.43,32.2,32.2,0,0,0-7.8,1,17.45,17.45,0,0,0-7.08,3.82,33.3,33.3,0,0,0-3.94,4,29.57,29.57,0,0,0-2.77,3.83l7.15,8.29a41.73,41.73,0,0,1,2.3-3.95,20,20,0,0,1,3.81-4.28,13.24,13.24,0,0,1,6.26-3.06,31.09,31.09,0,0,1,7.37-.46q3.88.19,8.1.69a56.81,56.81,0,0,0,8.46.39,32.19,32.19,0,0,0,8.4-1.36,21.78,21.78,0,0,0,8-4.52,20.92,20.92,0,0,0,5.77-7.58A19,19,0,0,0,802.54,152.22Z"/><path d="M649.4,57.82A21.12,21.12,0,0,1,655.1,60a15.06,15.06,0,0,1,4.33,3.62,12.27,12.27,0,0,1,2.38,4.89,12.77,12.77,0,0,1-.08,5.92,14.23,14.23,0,0,1-3.28,6.4,32.52,32.52,0,0,1-5.58,4.92c-2.12,1.48-4.38,2.91-6.8,4.28a65.19,65.19,0,0,0-6.83,4.45,32.55,32.55,0,0,0-5.7,5.41,17.4,17.4,0,0,0-3.47,7.26,33.06,33.06,0,0,0-.82,5.58,30.3,30.3,0,0,0,0,4.72L639.94,120a39.94,39.94,0,0,1-.48-4.54,20.35,20.35,0,0,1,.56-5.71,13.23,13.23,0,0,1,3.26-6.16A30.86,30.86,0,0,1,649,98.84c2.18-1.43,4.49-2.84,7-4.22A57.87,57.87,0,0,0,663,90a32.38,32.38,0,0,0,6-6,21.73,21.73,0,0,0,3.76-8.34,21,21,0,0,0,.2-9.53,19.18,19.18,0,0,0-3.75-7.75,24,24,0,0,0-6.87-5.76A33.89,33.89,0,0,0,653.14,49a40,40,0,0,0-22.49,1.47l-2.72,11.66Q638.19,55.21,649.4,57.82Z"/><path d="M628.81,146.43a7.5,7.5,0,0,0,5.66-.91,7.11,7.11,0,0,0,3.39-4.66,7,7,0,0,0-1-5.68,7.4,7.4,0,0,0-10.34-2.41,7,7,0,0,0-3.39,4.66,7.17,7.17,0,0,0,1,5.68A7.53,7.53,0,0,0,628.81,146.43Z"/></svg>