<svg id="Layer_1" data-name="Layer 1" xmlns="http://www.w3.org/2000/svg" viewBox="0 0 820.25 1323"><defs><style>.cls-1{fill:#fff3f6;}</style></defs><path class="cls-1" d="M273.53,506.61v150.6h522V506.61c85-16.76,149.13-90.39,149.13-178.59,0-100.24-83.51-182.24-186.43-182.24a190.13,190.13,0,0,0-40.26,4.73C702.66,65.24,626.22,0,534.51,0S366.73,65.24,351.07,150.52a189.35,189.35,0,0,0-40.27-4.73c-102.54,0-186.43,82-186.43,182.24C124.39,416.22,188.52,489.84,273.53,506.61Z" transform="translate(-124.37)"/><path class="cls-1" d="M847,829.88a35.57,35.57,0,0,0-9.32-1.46,458.69,458.69,0,0,0-29.36-98.33H261a477.86,477.86,0,0,0-29.55,98,77.21,77.21,0,0,0-9,1.46c-17.89,4-33.19,15.3-43.63,32.44-19.38,31-22.35,80.9-8.56,133.39,17.15,62.69,52.57,107.87,91,120.63a449.51,449.51,0,0,0,38.41,70.7c59.28,86.77,145,136.33,234.88,136.33s175.61-49.56,235.26-136.67A441.75,441.75,0,0,0,807.44,1116c39.15-12,74.19-56.86,91.34-120.64,13.8-52.48,10.81-102.42-8.57-133.39C879.77,844.82,864.84,833.88,847,829.88Z" transform="translate(-124.37)"/></svg>