<?xml version="1.0" encoding="utf-8"?>
<!-- Generator: Adobe Illustrator 25.0.0, SVG Export Plug-In . SVG Version: 6.00 Build 0)  -->
<svg version="1.1" id="Layer_1" xmlns="http://www.w3.org/2000/svg" xmlns:xlink="http://www.w3.org/1999/xlink" x="0px" y="0px"
	 viewBox="0 0 700 700" style="enable-background:new 0 0 700 700;" xml:space="preserve">
<g>
	<path d="M428.8,336c-48.8-28.1-108.7-28.1-157.5,0s-78.8,80.1-78.8,136.4v105c0.1,13.9,5.6,27.2,15.4,37.1
		c9.9,9.9,23.2,15.4,37.1,15.4H455c13.9,0,27.3-5.6,37.1-15.3c9.9-9.9,15.4-23.2,15.4-37.1l0-105.1
		C507.5,416.1,477.5,364.1,428.8,336z"/>
	<path d="M624.4,163.2c-14.8-14.8-34.8-23.1-55.6-23.1c-20.9,0-40.9,8.3-55.6,23.1c-14.8,14.8-23.1,34.8-23.1,55.6
		c0,20.9,8.3,40.9,23.1,55.6c14.8,14.8,34.8,23.1,55.6,23.1s40.9-8.3,55.6-23.1c14.8-14.8,23.1-34.8,23.1-55.6
		S639.1,177.9,624.4,163.2z"/>
	<path d="M540.7,595h106.7c13.9-0.1,27.2-5.6,37.1-15.4c9.9-9.9,15.4-23.2,15.4-37.1l-0.1-78.8c0-34.8-13.8-68.1-38.4-92.7
		c-24.5-24.5-58-38.4-92.7-38.4c-24.3,0-48.1,6.8-68.8,19.5c27.5,34.1,42.5,76.6,42.5,120.4v105C542.5,583.4,541.9,589.3,540.7,595z
		"/>
	<path d="M131.3,140.1c-20.9,0-40.9,8.3-55.6,23.1c-14.8,14.8-23.1,34.8-23.1,55.6c0,20.9,8.3,40.9,23.1,55.6
		c14.8,14.8,34.8,23.1,55.6,23.1c20.9,0,40.9-8.3,55.6-23.1c14.8-14.8,23.1-34.8,23.1-55.6c0-21-8.3-41-23.1-55.6
		C172.2,148.4,152.2,140.1,131.3,140.1z"/>
	<path d="M31.4,378.3C11.1,402.1,0,432.3,0,463.6v78.8c0.1,13.9,5.6,27.2,15.4,37.1c9.9,9.9,23.2,15.4,37.1,15.4l106.6,0
		c-1.2-5.8-1.8-11.7-1.8-17.5v-105c0-43.9,15-86.3,42.5-120.4c-26.5-16.4-58.2-22.8-89.1-18S51.8,354.6,31.4,378.3z"/>
	<path d="M350,70.1c-27.9,0-54.5,11.1-74.2,30.8c-19.7,19.7-30.8,46.3-30.8,74.2c0,27.8,11.1,54.5,30.8,74.2
		c19.7,19.7,46.3,30.8,74.2,30.8s54.5-11.1,74.2-30.8c19.7-19.7,30.8-46.4,30.8-74.2c0-27.8-11.1-54.5-30.8-74.2
		C404.5,81.2,377.9,70.1,350,70.1z"/>
</g>
</svg>
