<svg id="Layer_2" data-name="Layer 2" xmlns="http://www.w3.org/2000/svg" viewBox="0 0 632.85 700"><path d="M647.23,302.19,639.12,297l8.11-6.62c9.58-7.37,15.47-19.9,15.47-32.42V184.32A40.51,40.51,0,0,0,642.81,149L405.6,6.05C390.87-2.79,371.71-2,358.45,9L49.05,258.73a42.94,42.94,0,0,0-15.47,33.15v74.4c0,14,8.1,28,19.89,35.36l8.1,5.16-8.1,6.63A42.73,42.73,0,0,0,38,445.85v73.66a42.6,42.6,0,0,0,19.89,36.1L284.78,691.9c9.58,5.16,19.15,8.1,29.47,8.1a59.68,59.68,0,0,0,36.1-12.52L650.91,444.37A40.45,40.45,0,0,0,666.38,412V337.55c.74-14-7.37-28-19.16-35.36Zm-171.65-168a8,8,0,0,1,0,11.05L426.23,191a5.79,5.79,0,0,0,0,8.11l3.68,3.68a5.78,5.78,0,0,0,8.1,0l48.63-45.67a7.81,7.81,0,0,1,11,11.05l-49.35,45.67a5.78,5.78,0,0,0,0,8.1l3.68,4.42a5.78,5.78,0,0,0,8.1,0l48.63-45.67a8,8,0,0,1,11,0,7.42,7.42,0,0,1-.73,11.05l-57.46,53.77c-8.1,7.37-20.63,7.37-28-.73L429.91,241,323.09,354.49c-4.42,5.16-11,7.37-17.68,7.37a25.68,25.68,0,0,1-17.68-7.37l-.73-.73a26.4,26.4,0,0,1-6.63-17.68,25.55,25.55,0,0,1,8.83-16.94l120.08-98.72.74-.73L406.33,216a20.5,20.5,0,0,1,.74-28l57.46-53.78a8,8,0,0,1,11.05,0ZM192,280.83a23.19,23.19,0,0,1,10.32-16.94l84-56.73-6.63-6.63a18.26,18.26,0,0,1-5.16-14.73c0-5.89,2.94-10.31,6.63-14l50.83-44.2a79.63,79.63,0,0,1,40.52-19.15,82.62,82.62,0,0,1,44.2,5.16c.74.73,2.21.73,2.21,2.21a15.65,15.65,0,0,1,2.21,3.68,5.93,5.93,0,0,1-2.21,6.63L231.75,300.72a24.26,24.26,0,0,1-33.89-.73A25,25,0,0,1,192,280.83ZM67.46,366.29l-.71-37L289.22,463.34a44.43,44.43,0,0,0,21.36,5.89,40.57,40.57,0,0,0,26.52-9.58l291-235,.72,34.08a9,9,0,0,1-2.95,6.63L325.3,508.46a25.74,25.74,0,0,1-28,1.47l-226.15-137c-3-1.47-3.69-3.68-3.69-6.63ZM633.23,412c0,2.94-.73,5.16-2.94,6.63L330.46,661c-7.37,6.63-18.42,7.37-27.26,2.21L76.31,526.88a9.08,9.08,0,0,1-3.69-7.37l-.71-35L295.12,618.54a44.32,44.32,0,0,0,21.36,5.89c9.58,0,18.42-3.68,25.79-9.57l291-235L634,412Z" transform="translate(-33.58 0)"/></svg>