<?xml version="1.0" encoding="utf-8"?>
<!-- Generator: Adobe Illustrator 25.0.0, SVG Export Plug-In . SVG Version: 6.00 Build 0)  -->
<svg version="1.1" id="Layer_1" xmlns="http://www.w3.org/2000/svg" xmlns:xlink="http://www.w3.org/1999/xlink" x="0px" y="0px"
	 viewBox="0 0 700 700" style="enable-background:new 0 0 700 700;" xml:space="preserve">
<style type="text/css">
	.st0{fill-rule:evenodd;clip-rule:evenodd;}
</style>
<path class="st0" d="M602,584.7l-0.5-517c0-11.3-6-21.6-15.6-27.2c-9.7-5.6-21.7-5.6-31.4-0.1L497.9,90l-50.4-49.4c0,0,0,0,0,0
	c-10.4-6-23.2-5.5-33.1,1.1l-62.5,48.7c0,0-57.3-49.7-57.3-49.8c-9.7-5.5-21.5-5.5-31.2,0c0,0-62,49.4-62,49.4l-55.6-49.8
	c-9.8-5.5-21.7-5.5-31.4,0.1c-9.7,5.6-15.6,16-15.6,27.2l0,38.5c-0.2,1.3-0.3,2.7-0.3,4l0.1,512.6c0,11.3,6,21.6,15.6,27.2
	c9.7,5.6,21.6,5.6,31.4,0.1l55.6-49.8c0,0,62,49.4,62,49.4c9.7,5.5,21.5,5.5,31.2,0c0,0,57.3-49.7,57.3-49.8l62.5,48.7
	c9.9,6.6,22.7,7.1,33.1,1.1c0,0,0,0,0,0l50.4-49.4l56.6,49.6c9.7,5.5,21.7,5.5,31.4-0.1c9.7-5.6,15.6-16,15.6-27.2l0-31.9
	C601.8,588.7,602,586.7,602,584.7z M237.5,319.6c0.2-0.2,0.4-0.3,0.7-0.4c5-3.3,10.9-5.2,17.3-5.2h188.7c17.6,0,31.9,14.5,31.4,32.3
	c-0.3,10.2-5.5,19-13.3,24.6c0,0,0,0,0,0c-0.2,0.2-0.4,0.3-0.7,0.4c-5,3.3-10.9,5.2-17.3,5.2H255.6c-17.6,0-31.9-14.5-31.4-32.3
	C224.5,334,229.7,325.1,237.5,319.6C237.5,319.6,237.5,319.6,237.5,319.6z M475.3,225.2c0.5,17.7-13.8,32.3-31.4,32.3H255.2
	c-4.7,0-9.2-1.1-13.2-2.9c-9.8-5.1-16.7-15.1-17-26.9c-0.5-17.7,13.8-32.3,31.4-32.3H445c4.7,0,9.2,1.1,13.2,2.9
	C468,203.5,474.9,213.5,475.3,225.2z M444.9,494.9H256.2c-17.6,0-31.9-14.5-31.4-32.3c0.3-10.9,6.3-20.3,15.1-25.7
	c4.6-2.6,9.8-4.1,15.4-4.1H444c17.6,0,31.9,14.5,31.4,32.3c-0.3,10.9-6.3,20.3-15.1,25.7C455.8,493.4,450.5,494.9,444.9,494.9z"/>
</svg>
