<?xml version="1.0" encoding="utf-8"?>
<!-- Generator: Adobe Illustrator 25.0.0, SVG Export Plug-In . SVG Version: 6.00 Build 0)  -->
<svg version="1.1" id="Layer_1" xmlns="http://www.w3.org/2000/svg" xmlns:xlink="http://www.w3.org/1999/xlink" x="0px" y="0px"
	 viewBox="0 0 700 700" style="enable-background:new 0 0 700 700;" xml:space="preserve">
<g>
	<path d="M483.6,620.3H216.2c0,0.3,0,0.3,0,0.4h-31.5c-10.7,0-19.4,8.7-19.4,19.4v40.6c0,10.7,8.7,19.4,19.4,19.4h330.3
		c10.7,0,19.4-8.7,19.4-19.4V640c0-10.7-8.7-19.4-19.4-19.4h-31.5C483.6,620.6,483.6,620.4,483.6,620.3z"/>
	<path d="M681.9,74.3c0-10.7-8.7-19.4-19.4-19.4H537.2l0,0h0V19.4c0-10.7-8.7-19.4-19.4-19.4H182.1c-10.7,0-19.4,8.7-19.4,19.4v16.3
		c0,10.7-8.7,19.4-19.4,19.4h-106c-10.7,0-19.4,8.7-19.4,19.4V175c0,84,64.2,153.2,146,161.5c6.8,0.7,12.8,4.9,15.6,11.2
		c22.5,49.2,65.7,87.2,118.3,102.5c8.2,2.4,13.8,10,13.8,18.5v29.5c0,7.8-4.7,15-11.9,17.9c-18.7,7.5-35.3,19-48.8,33.5
		c-11.5,12.3-2.6,32.5,14.2,32.5h169.3c16.9,0,25.7-20.1,14.2-32.5c-13.5-14.5-30.1-26-48.8-33.5c-7.3-2.9-11.9-10.1-11.9-17.9
		v-29.5c0-8.6,5.6-16.2,13.8-18.5c52.6-15.3,95.9-53.3,118.3-102.5c2.8-6.2,8.8-10.5,15.6-11.2c81.8-8.3,146-77.4,146-161.5v0l0,0
		V74.3z M162.9,237.2c0,14.9-16.2,24.3-29,16.8c-27-16-45.1-45.4-45.1-79v-30.1c0-10.7,8.7-19.4,19.4-19.4h35.5
		c10.7,0,19.4,8.7,19.4,19.4V237.2z M611.4,175c0,33.6-18.1,63-45.1,79c-12.8,7.6-29-1.8-29-16.8v-92.3c0-10.7,8.7-19.4,19.4-19.4
		H592c10.7,0,19.4,8.7,19.4,19.4V175z"/>
</g>
</svg>
