<svg id="Layer_1" data-name="Layer 1" xmlns="http://www.w3.org/2000/svg" viewBox="0 0 463.19 699.99"><defs><style>.cls-1{fill-rule:evenodd;}</style></defs><path class="cls-1" d="M282.25,541.35c-29.52-15.06-52.68-38.21-69.47-67.16-2.32-4.64-4.64-9.27-6.95-13.32-18,5.79-33.58,15.64-46.9,27.21-24.9,22.59-40.53,53.85-40.53,88V683.78A15.83,15.83,0,0,0,134.62,700H239.41V581.88a16,16,0,0,1,7.53-13.32ZM444.38,62.53a103.08,103.08,0,0,1,13.31-1.16A102.8,102.8,0,0,1,560.17,163.85c0,50.37-37.06,93.22-86.27,101.32v41.69c0,7.53-5.79,13.9-12.74,15.64-37.05,11-74.11,16.79-111.16,16.21-37.64,0-74.69-5.79-112.32-16.79a15.49,15.49,0,0,1-11.59-15.06V265.17A102.44,102.44,0,0,1,169.93,91.48a102,102,0,0,1,72.37-30.1,104.87,104.87,0,0,1,13.32,1.15,105.57,105.57,0,0,1,31.84-41.11A102.1,102.1,0,0,1,350,0a100.83,100.83,0,0,1,62.53,21.42,105.5,105.5,0,0,1,31.85,41.11Zm38.21,286a140.89,140.89,0,0,1,.58,15.64c0,33.57-8.11,66.58-23.74,93.79-16.21,28.37-39.95,50.37-70.63,60.22-12.16,4.63-24.9,6.36-38.8,6.36s-26.63-1.73-38.79-6.36c-30.69-9.85-54.42-31.85-70.63-60.22-15.64-27.21-23.74-60.21-23.74-93.79a156.9,156.9,0,0,1,.58-16.21,38.59,38.59,0,0,0,11,5.21c40,11.58,80.48,17.94,121.58,17.94a416.06,416.06,0,0,0,119.27-17.36,53.27,53.27,0,0,0,13.32-5.21ZM350,557a197,197,0,0,1-31.84-2.9L271.84,590V700H565.38a15.83,15.83,0,0,0,16.22-16.21V576.1c0-34.16-15.64-65.43-40.53-88-13.32-11.58-29-21.42-46.9-27.21-2.31,4.05-4.63,8.69-6.95,13.31-19.69,34.74-49.79,62-88,74.69C383.58,554.67,366.79,557,350,557ZM317.58,592.3a16.19,16.19,0,0,1,16.21,16.21,15.83,15.83,0,0,1-16.21,16.21,16.18,16.18,0,0,1-16.21-16.21A16.57,16.57,0,0,1,317.58,592.3Zm0,49.8a15.83,15.83,0,0,1,16.21,16.21,16.19,16.19,0,0,1-16.21,16.21,16.57,16.57,0,0,1-16.21-16.21A16.19,16.19,0,0,1,317.58,642.1Z" transform="translate(-118.4 0)"/></svg>