<svg width="25" height="25" viewBox="0 0 25 25" fill="none" xmlns="http://www.w3.org/2000/svg">
<path d="M23.7844 4.18577C24.7414 3.2288 24.7414 1.67469 23.7844 0.717724C22.8275 -0.239241 21.2733 -0.239241 20.3164 0.717724L12.2549 8.78686L4.18577 0.72538C3.2288 -0.231586 1.67469 -0.231586 0.717724 0.72538C-0.239241 1.68235 -0.239241 3.23646 0.717724 4.19342L8.78686 12.2549L0.72538 20.324C-0.231586 21.281 -0.231586 22.8351 0.72538 23.7921C1.68235 24.749 3.23646 24.749 4.19342 23.7921L12.2549 15.7229L20.324 23.7844C21.281 24.7414 22.8351 24.7414 23.7921 23.7844C24.749 22.8275 24.749 21.2733 23.7921 20.3164L15.7229 12.2549L23.7844 4.18577Z" fill="#912808"/>
</svg>
