<svg width="66" height="70" viewBox="0 0 66 70" fill="none" xmlns="http://www.w3.org/2000/svg">
<g clip-path="url(#clip0_52238_6611)" filter="url(#filter0_d_52238_6611)">
<path d="M56.8313 15.4829L36.1687 3.82937C35.2053 3.28604 34.1124 3 33 3C31.8876 3 30.7947 3.28604 29.8313 3.82937L9.16871 15.4829C8.20525 16.0261 7.40518 16.8076 6.84894 17.7487C6.2927 18.6898 5.99991 19.7574 6 20.8442V44.1547C5.9997 45.2416 6.29239 46.3095 6.84864 47.2508C7.40489 48.1922 8.20507 48.9738 9.16871 49.5171L29.8313 61.1706C30.7947 61.714 31.8876 62 33 62C34.1124 62 35.2053 61.714 36.1687 61.1706L56.8313 49.5171C57.7948 48.9739 58.5948 48.1924 59.1511 47.2513C59.7073 46.3102 60.0001 45.2426 60 44.1558V20.8453C60.0003 19.7584 59.7076 18.6905 59.1514 17.7492C58.5951 16.8079 57.7949 16.0262 56.8313 15.4829ZM49.4083 35.7234H36.2698V48.5878C36.2698 49.435 35.9253 50.2475 35.3121 50.8466C34.6989 51.4456 33.8672 51.7822 33 51.7822C32.1328 51.7822 31.3011 51.4456 30.6879 50.8466C30.0747 50.2475 29.7302 49.435 29.7302 48.5878V35.7234H16.5917C15.7245 35.7234 14.8928 35.3868 14.2796 34.7878C13.6664 34.1887 13.3219 33.3762 13.3219 32.529C13.3219 31.6819 13.6664 30.8694 14.2796 30.2703C14.8928 29.6713 15.7245 29.3347 16.5917 29.3347H29.7302V16.4702C29.7302 15.623 30.0747 14.8106 30.6879 14.2115C31.3011 13.6124 32.1328 13.2759 33 13.2759C33.8672 13.2759 34.6989 13.6124 35.3121 14.2115C35.9253 14.8106 36.2698 15.623 36.2698 16.4702V29.3347H49.4083C50.2755 29.3347 51.1072 29.6713 51.7204 30.2703C52.3336 30.8694 52.6781 31.6819 52.6781 32.529C52.6781 33.3762 52.3336 34.1887 51.7204 34.7878C51.1072 35.3868 50.2755 35.7234 49.4083 35.7234Z" fill="#D12C5F"/>
</g>
<defs>
<filter id="filter0_d_52238_6611" x="0" y="-1" width="66" height="71" filterUnits="userSpaceOnUse" color-interpolation-filters="sRGB">
<feFlood flood-opacity="0" result="BackgroundImageFix"/>
<feColorMatrix in="SourceAlpha" type="matrix" values="0 0 0 0 0 0 0 0 0 0 0 0 0 0 0 0 0 0 127 0" result="hardAlpha"/>
<feOffset dy="2"/>
<feGaussianBlur stdDeviation="3"/>
<feColorMatrix type="matrix" values="0 0 0 0 0.819608 0 0 0 0 0.172549 0 0 0 0 0.372549 0 0 0 0.4 0"/>
<feBlend mode="normal" in2="BackgroundImageFix" result="effect1_dropShadow_52238_6611"/>
<feBlend mode="normal" in="SourceGraphic" in2="effect1_dropShadow_52238_6611" result="shape"/>
</filter>
<clipPath id="clip0_52238_6611">
<rect width="154" height="159" fill="white" transform="translate(6 3)"/>
</clipPath>
</defs>
</svg>
