<svg id="Layer_1" data-name="Layer 1" xmlns="http://www.w3.org/2000/svg" xmlns:xlink="http://www.w3.org/1999/xlink" viewBox="0 0 1012.38 928.23"><defs><style>.cls-1{fill:#fff3f6;}.cls-2{stroke:#fff3f6;stroke-miterlimit:10;stroke-width:5.06px;fill:url(#radial-gradient);}.cls-3{fill:#bf2e5b;}.cls-4{fill:#d12c5f;}</style><radialGradient id="radial-gradient" cx="523.17" cy="305.65" fx="474.9878138259079" fy="372.0865297523145" r="205.37" gradientUnits="userSpaceOnUse"><stop offset="0.16" stop-color="#ebcdd3"/><stop offset="1" stop-color="#fbfafc"/></radialGradient></defs><path class="cls-1" d="M81.18,861.6a86.86,86.86,0,0,1-47.43-28.31C21.56,818.85,15,800.85,12.94,783.23a190.05,190.05,0,0,1-1.32-22.69A202.33,202.33,0,0,1,12.75,739a321.08,321.08,0,0,1,9.94-49.87c8.81-29.62,20.43-58.68,38.24-86.05,17.81-27,41.62-53.81,75.75-69.93A118.38,118.38,0,0,1,186,521.88c19.87.75,37.49,4.31,53.62,16.31,14.06,10.87,23.81,25.68,26.43,43.87a57.93,57.93,0,0,1,.75,9.94c0,2.43-.19,5.06-.37,7.5a92.52,92.52,0,0,1-10.32,32.62,16.35,16.35,0,0,1-14.43,9A14.37,14.37,0,0,1,236,640a12.6,12.6,0,0,1-7.68-12v-1.5a13.64,13.64,0,0,1,.93-3.75v-.18a56.57,56.57,0,0,0,3-12.75,38.72,38.72,0,0,0,.19-4.69c0-14.25-7.12-25.5-18.75-30.18-4.68-2.07-10.5-3-16.87-3a64.22,64.22,0,0,0-10.31.75,61.18,61.18,0,0,0-24.94,11.81c-30,25.31-57.74,71.62-72.55,117.92-4.88,15.94-8.82,32.81-10.5,48a102.31,102.31,0,0,0-.75,12.94l.18,6c1.32,17.62,8.63,29.81,23.44,34.87a44,44,0,0,0,14.44,2.44c26.06,0,60.18-19.13,78-48.19-3.75.94-7.69,1.31-11.44,2.63-7.87,2.62-17.62,6.56-22.68,9.75a29.91,29.91,0,0,1-15.38,4.31,24.59,24.59,0,0,1-21.93-12.75,25.45,25.45,0,0,1-2.81-11.81l.18-2.81A31.35,31.35,0,0,1,135,724.55a22.92,22.92,0,0,1,4.31-2.25h.19c13.87-5.63,24-7.88,35.81-10.13A197,197,0,0,1,209.8,709c23.06,0,44.62,3.93,65.24,12.56a16.39,16.39,0,0,1,10.31,15.18l-.18,2.25a23.93,23.93,0,0,1-1.88,6.94c-3.94,7.5-11.25,12-18.75,12a17.23,17.23,0,0,1-4.31-.56,141.86,141.86,0,0,0-25.5-3.75c-6.56,30-26.62,60.18-52.49,80-21.57,17.07-50.25,30-80.44,30A96.24,96.24,0,0,1,81.18,861.6Z" transform="translate(-11.62 -54.3)"/><path class="cls-1" d="M419.2,853.35a48.78,48.78,0,0,1-10.31-30.93c0-15.38,2.44-27.38,4.88-38.81-14.63,20.62-29.81,41.06-51.56,61.49-8.25,6-15.19,14.62-35.06,17.81-24.19,0-29.63-14.81-33-25.31a85.46,85.46,0,0,1-2.06-18.75c0-12.75,2.62-23.62,4.68-34.68,7.5-32.06,18.19-60.93,31.13-91.49,6.37-15,21.93-25.31,36.56-25.31,14.43,0,26.06,9.93,26.06,25.31A35.49,35.49,0,0,1,387.71,706c-19.32,36-39.38,70.3-46.69,108.18,34.12-26.44,72.93-78,102.74-119.24l1.13-2.25c2.62-6.57,7.5-11.63,12.75-15.94a15.28,15.28,0,0,1,9.93-5.81A36.19,36.19,0,0,1,482,667.55a25,25,0,0,1,25.31,25.31c0,6.94-1.5,10.69-4.87,17.44l-.57.56c-17.62,30.75-34.31,65.06-42,92.62C458,811,458,815.67,457.64,819c7.5-3,19.87-13.69,28.68-22.5,17.25-16.68,33.94-36.18,49.12-55.87l.38-.19a14.17,14.17,0,0,1,10.87-5.81c5.25,0,9.19,3.75,9.19,8.81-.38,3-.19,3.57-1.88,6.38-13.12,22.68-26.81,44.25-43.87,66-8.62,10.69-17.62,21.38-30.37,31.88-6.56,5.06-14.06,10.68-25.87,14.06a31.77,31.77,0,0,1-10.5,1.5C434,863.29,424.26,859.91,419.2,853.35Z" transform="translate(-11.62 -54.3)"/><path class="cls-1" d="M505.62,845.66a23.63,23.63,0,0,1,.56-5.06l.19-.37a707.69,707.69,0,0,1,21.56-75.37c4.31-12.56,9.19-24.94,14.44-37.5a400.9,400.9,0,0,1,17.81-38.43c7.12-13.5,21.56-22.31,35.06-22.31a31.56,31.56,0,0,1,9.37,1.5c10.5,3.37,16.12,12.56,16.12,23.24a28.77,28.77,0,0,1-.75,6.94,51.71,51.71,0,0,1-1.5,5.25c10.32-11.06,13.13-15.19,27.56-25.87A77.34,77.34,0,0,1,660.86,670a47.6,47.6,0,0,1,6.18-1.87,55.62,55.62,0,0,1,8.06-.57,25.5,25.5,0,0,1,16.5,6.94c7.13,8.25,7.32,14.81,8.07,20.06l.18,5.25a59.1,59.1,0,0,1-.56,8.44,19.14,19.14,0,0,1-.37,3.18c3.18-3.75,6.18-7.31,9.74-10.87,7.69-7.87,15.75-16.12,27-23.81l9.75-5.25a37.47,37.47,0,0,1,15.38-3.56,32.71,32.71,0,0,1,5.81.37c11.81,2.07,17.25,14.44,17.25,19.31v.19a40.34,40.34,0,0,1,.56,6.19,71,71,0,0,1-.56,7.12c-5.07,26.44-11.63,39.94-19.31,59.81C758,776.29,750.47,791.29,744.85,805c24-18.37,48.93-42.37,73.31-64.12a6.68,6.68,0,0,1,5.25-2.25,4.8,4.8,0,0,1,3.75,1.5,4.25,4.25,0,0,1,1.12,3l-.19,1.5a5.45,5.45,0,0,1-.93,2.44c-22.13,34.31-43.5,66-77.25,97.86A70.11,70.11,0,0,1,731,857.1a36.67,36.67,0,0,1-14.07,2.81,25.69,25.69,0,0,1-5.43-.56c-7.13-1.31-13.31-6.75-16.13-12.37A35,35,0,0,1,692,831.79c0-3.19.37-6,.56-8.81.38-3.19.94-6.19,1.5-8.81,6.19-26.44,12.38-42.75,21.75-64.31l9-19.87a449.36,449.36,0,0,0-40.12,34.49c-.75,2.25-1.32,4.5-2.07,6.56-10.68,25.88-23.62,51-35.81,74.81-4.68,9.56-14.43,15.56-23.81,15.56a19.63,19.63,0,0,1-5.81-.94,16.08,16.08,0,0,1-11.25-15.74,18.26,18.26,0,0,1,.57-4.5l.75-2.82c24-69.37,13.12-38.24,38.24-110l1.13-4.31a301.2,301.2,0,0,0-29.44,23.62c-13.68,12-27,24.94-39.75,38.06C569,804,561.49,823.35,554.93,843v.19c-4.13,12.74-16.69,22.12-29.25,22.12C513.31,864.6,505.62,857.47,505.62,845.66Z" transform="translate(-11.62 -54.3)"/><path class="cls-1" d="M735.09,957.4a25.77,25.77,0,0,1,.75-6.56l.75-3.37C752.15,898.16,768.83,850,787,801.42c18.37-48.37,38.06-96.75,63-145.3,5.44-10.69,16.69-17.63,27.19-17.63a21.52,21.52,0,0,1,6.94,1.13c8.43,2.62,13.12,9.93,13.12,18.37a25.32,25.32,0,0,1-.56,5.25,23.29,23.29,0,0,1-1.88,5.81c-1.31,2.63-1.68,4.5-3,7.31,1.88-.93,3.38-2.24,5.25-3.18,10.88-5.06,23.25-8.44,35.44-8.44a43.62,43.62,0,0,1,7.12.38c14.06,1.31,27.56,6.37,37.5,17.62,11.44,13.12,15.37,29.25,15.37,45.18,0,2.44,0,4.88-.18,7.31,8.81.19,17.43.75,26.06,1.69a6.19,6.19,0,0,1,5.62,6.38l-.19,1.68a10.31,10.31,0,0,1-9.75,7.88h-1.31c-7.5-1.31-15-1.5-22.87-1.88l-2.06,9.38a163.75,163.75,0,0,1-41.44,70.49c-10.69,10.31-23.81,20.81-41.06,26.44a54.45,54.45,0,0,1-16.5,2.62,41.54,41.54,0,0,1-10.68-1.31,31.25,31.25,0,0,1-20.25-15.75,49.5,49.5,0,0,1-3.75-19.12,54,54,0,0,1,1.12-11.06c3.94-18.56,17.25-35.06,30.38-46.5a124.45,124.45,0,0,1,51.55-26.06,64.45,64.45,0,0,0,.57-8.25c0-5.62-.94-10.31-2.82-13.69-1.68-3.56-6.37-7.12-12-9.37a38,38,0,0,0-12.75-2.06,51.63,51.63,0,0,0-7.5.56c-8.44,1.31-18,4.69-27.56,9.37-30.75,76.69-54.56,156.74-75.93,235.3-3.57,17.43-22.32,30.56-38.25,30.56C745.4,982.53,735.09,971.28,735.09,957.4ZM898,817.17c3.94-2.25,9.19-7.32,14.25-14.07,9.19-12.37,16.5-28.12,21-43.31-12.75,5.07-24.38,12-32.81,21.57a43.42,43.42,0,0,0-12,21.93,32,32,0,0,0-.75,7.13c0,4.31,1.12,7.87,3.19,9.18l1.5.38C893.89,820,894.26,818.85,898,817.17Z" transform="translate(-11.62 -54.3)"/><path class="cls-2" d="M508.47,64.05,349.05,156.1a53.9,53.9,0,0,0-27,46.69V386.88a53.9,53.9,0,0,0,27,46.69l159.42,92a53.88,53.88,0,0,0,53.92,0l159.42-92a53.92,53.92,0,0,0,27-46.69V202.79a53.92,53.92,0,0,0-27-46.69l-159.42-92A53.93,53.93,0,0,0,508.47,64.05Z" transform="translate(-11.62 -54.3)"/><circle class="cls-3" cx="483.59" cy="144.18" r="40.46"/><circle class="cls-3" cx="483.59" cy="234.21" r="40.46"/><circle class="cls-3" cx="483.09" cy="324.24" r="40.46"/><circle class="cls-3" cx="564.52" cy="188.18" r="40.46"/><circle class="cls-3" cx="564.52" cy="278.22" r="40.46"/><circle class="cls-3" cx="564.52" cy="368.25" r="40.46"/><path class="cls-3" d="M454.75,241.71a40.47,40.47,0,0,1-41.23,41.23c-29.58,0-29.59,0-29.58-39.69,0-41.23,0-41.22,31.12-41.22A40.6,40.6,0,0,1,454.75,241.71Z" transform="translate(-11.62 -54.3)"/><path class="cls-3" d="M616.55,289.28a40.47,40.47,0,0,1,41.22-41.23c29.58,0,29.59,0,29.58,39.69,0,41.23,0,41.23-31.12,41.23A40.61,40.61,0,0,1,616.55,289.28Z" transform="translate(-11.62 -54.3)"/><circle class="cls-4" cx="485" cy="149.38" r="38.59"/><path class="cls-4" d="M535.21,289.53A38.59,38.59,0,1,1,496.62,251,38.59,38.59,0,0,1,535.21,289.53Z" transform="translate(-11.62 -54.3)"/><circle class="cls-4" cx="485" cy="321.08" r="38.59"/><circle class="cls-4" cx="562.17" cy="191.34" r="38.59"/><circle class="cls-4" cx="562.17" cy="277.19" r="38.59"/><circle class="cls-4" cx="562.17" cy="363.05" r="38.59"/><path class="cls-4" d="M458,244.91a38.58,38.58,0,0,1-39.31,39.31c-28.2,0-28.21,0-28.2-37.84,0-39.32,0-39.32,29.67-39.32A38.72,38.72,0,0,1,458,244.91Z" transform="translate(-11.62 -54.3)"/><path class="cls-4" d="M612.32,290.26A38.59,38.59,0,0,1,651.63,251c28.21,0,28.21,0,28.21,37.85,0,39.32,0,39.31-29.67,39.31A38.72,38.72,0,0,1,612.32,290.26Z" transform="translate(-11.62 -54.3)"/></svg>