<svg width="62" height="55" viewBox="0 0 62 55" fill="none" xmlns="http://www.w3.org/2000/svg">
<g clip-path="url(#clip0_52238_6621)" filter="url(#filter0_d_52238_6621)">
<path d="M54.4941 10.1785C53.6604 8.80809 52.518 7.64302 51.1545 6.77249C49.791 5.90196 48.2426 5.34907 46.6277 5.15614C46.152 5.10428 45.6733 5.08245 45.1948 5.09077C44.8473 5.09499 44.5013 5.11397 44.1588 5.15122C44.123 5.15543 44.0872 5.15754 44.0521 5.16176C43.2413 5.25905 42.4446 5.44772 41.6778 5.72401H41.6714C41.3062 5.85854 40.9486 6.01221 40.6003 6.18436C40.568 6.19982 40.5358 6.21458 40.5036 6.23075C39.0282 6.96565 37.747 8.02667 36.7609 9.33019C36.6752 9.44614 36.5668 9.54428 36.4422 9.61894C36.3176 9.6936 36.1791 9.74329 36.0348 9.76515C35.8905 9.787 35.7432 9.7806 35.6014 9.74629C35.4596 9.71199 35.3262 9.65046 35.2088 9.56528C35.0913 9.48009 34.9923 9.37293 34.9174 9.24999C34.8424 9.12704 34.793 8.99074 34.7721 8.84897C34.7511 8.7072 34.759 8.56276 34.7953 8.424C34.8316 8.28523 34.8955 8.1549 34.9834 8.04051C35.5811 7.24729 36.272 6.52591 37.0417 5.89129C34.9167 4.40225 32.2964 3.75629 29.7062 4.08293C29.5966 4.09558 29.4877 4.11104 29.378 4.12791C29.0277 4.17914 28.6803 4.24787 28.3371 4.33383C28.2726 4.3507 28.206 4.36195 28.1422 4.37952C27.7529 4.48604 27.3702 4.6144 26.9959 4.76396C26.8827 4.80824 26.7724 4.85884 26.6613 4.90453C26.3977 5.01979 26.139 5.14536 25.8854 5.28124C25.7593 5.35152 25.6311 5.41337 25.5071 5.48646C25.1926 5.66982 24.888 5.86898 24.5944 6.08316C24.4418 6.1949 24.2985 6.3193 24.1517 6.43949C23.1821 7.22065 22.3613 8.16412 21.7272 9.22617C21.5762 9.4665 21.3355 9.63956 21.0564 9.70854C20.7773 9.77753 20.4818 9.737 20.2326 9.59559C19.9835 9.45417 19.8004 9.22301 19.7223 8.95126C19.6442 8.6795 19.6772 8.38857 19.8144 8.14031C20.245 7.42866 20.7463 6.76054 21.311 6.14571C19.8696 5.44777 18.2838 5.08442 16.6764 5.08374C16.2319 5.08385 15.7879 5.11037 15.3467 5.16316C12.9202 5.45927 10.6712 6.56461 8.97671 8.29391C7.28219 10.0232 6.24511 12.2714 6.03931 14.6616C5.8335 17.0518 6.47148 19.4387 7.8463 21.4223C9.22112 23.406 11.2492 24.8657 13.5907 25.5569C13.8185 25.624 14.0182 25.7614 14.1602 25.9486C14.3021 26.1359 14.3788 26.363 14.3788 26.5964V38.3223H32.5418C32.6894 38.3186 32.8363 38.3439 32.9737 38.3968C33.1112 38.4496 33.2364 38.5289 33.3421 38.63C33.4479 38.7311 33.5319 38.852 33.5892 38.9854C33.6466 39.1189 33.6761 39.2622 33.6761 39.4071C33.6761 39.5519 33.6466 39.6953 33.5892 39.8287C33.5319 39.9622 33.4479 40.083 33.3421 40.1841C33.2364 40.2852 33.1112 40.3645 32.9737 40.4174C32.8363 40.4702 32.6894 40.4956 32.5418 40.4919H14.3788V45.9155C14.3791 46.2032 14.4958 46.4789 14.7032 46.6822C14.9106 46.8855 15.1917 46.9998 15.4849 47H46.4421C46.7355 47.0002 47.017 46.8861 47.2247 46.6827C47.4324 46.4793 47.5493 46.2034 47.5497 45.9155V40.4919H42.3362C42.1886 40.4956 42.0418 40.4702 41.9043 40.4174C41.7669 40.3645 41.6416 40.2852 41.5359 40.1841C41.4302 40.083 41.3462 39.9622 41.2888 39.8287C41.2314 39.6953 41.2019 39.5519 41.2019 39.4071C41.2019 39.2622 41.2314 39.1189 41.2888 38.9854C41.3462 38.852 41.4302 38.7311 41.5359 38.63C41.6416 38.5289 41.7669 38.4496 41.9043 38.3968C42.0418 38.3439 42.1886 38.3186 42.3362 38.3223H47.5497V26.6154C47.5499 26.3809 47.6273 26.1528 47.7705 25.965C47.9137 25.7773 48.115 25.6401 48.3442 25.5738C49.905 25.1243 51.3401 24.3303 52.5398 23.2528C53.7395 22.1752 54.6719 20.8426 55.2656 19.357C55.8594 17.8714 56.0986 16.2722 55.9652 14.6819C55.8317 13.0916 55.329 11.5523 54.4955 10.182L54.4941 10.1785ZM26.0653 34.1377C26.069 34.2824 26.0432 34.4265 25.9893 34.5613C25.9354 34.6962 25.8546 34.8191 25.7515 34.9228C25.6485 35.0265 25.5253 35.1089 25.3892 35.1652C25.2532 35.2214 25.1071 35.2504 24.9594 35.2504C24.8118 35.2504 24.6657 35.2214 24.5296 35.1652C24.3936 35.1089 24.2704 35.0265 24.1674 34.9228C24.0643 34.8191 23.9834 34.6962 23.9296 34.5613C23.8757 34.4265 23.8499 34.2824 23.8536 34.1377V27.5522C23.8499 27.4075 23.8757 27.2634 23.9296 27.1286C23.9834 26.9937 24.0643 26.8708 24.1674 26.7671C24.2704 26.6634 24.3936 26.581 24.5296 26.5247C24.6657 26.4685 24.8118 26.4395 24.9594 26.4395C25.1071 26.4395 25.2532 26.4685 25.3892 26.5247C25.5253 26.581 25.6485 26.6634 25.7515 26.7671C25.8546 26.8708 25.9354 26.9937 25.9893 27.1286C26.0432 27.2634 26.069 27.4075 26.0653 27.5522V34.1377ZM32.0675 34.1377C32.0675 34.4253 31.9511 34.7011 31.7438 34.9045C31.5364 35.1079 31.2553 35.2221 30.9621 35.2221C30.6689 35.2221 30.3877 35.1079 30.1804 34.9045C29.9731 34.7011 29.8566 34.4253 29.8566 34.1377V27.5522C29.8566 27.2646 29.9731 26.9888 30.1804 26.7854C30.3877 26.582 30.6689 26.4678 30.9621 26.4678C31.2553 26.4678 31.5364 26.582 31.7438 26.7854C31.9511 26.9888 32.0675 27.2646 32.0675 27.5522V34.1377ZM35.8589 27.5515C35.8589 27.2639 35.9754 26.9881 36.1827 26.7847C36.39 26.5813 36.6712 26.4671 36.9644 26.4671C37.2576 26.4671 37.5387 26.5813 37.7461 26.7847C37.9534 26.9881 38.0698 27.2639 38.0698 27.5515V34.137C38.0698 34.4246 37.9534 34.7004 37.7461 34.9038C37.5387 35.1072 37.2576 35.2214 36.9644 35.2214C36.6712 35.2214 36.39 35.1072 36.1827 34.9038C35.9754 34.7004 35.8589 34.4246 35.8589 34.137V27.5515ZM38.6659 40.4919H36.4887C36.2003 40.4847 35.9261 40.3672 35.7247 40.1646C35.5233 39.9619 35.4106 39.6901 35.4106 39.4071C35.4106 39.124 35.5233 38.8522 35.7247 38.6496C35.9261 38.4469 36.2003 38.3295 36.4887 38.3223H38.6659C38.9543 38.3295 39.2284 38.4469 39.4298 38.6496C39.6312 38.8522 39.7439 39.124 39.7439 39.4071C39.7439 39.6901 39.6312 39.9619 39.4298 40.1646C39.2284 40.3672 38.9543 40.4847 38.6659 40.4919Z" fill="#D12C5F"/>
</g>
<defs>
<filter id="filter0_d_52238_6621" x="0" y="0" width="62" height="55" filterUnits="userSpaceOnUse" color-interpolation-filters="sRGB">
<feFlood flood-opacity="0" result="BackgroundImageFix"/>
<feColorMatrix in="SourceAlpha" type="matrix" values="0 0 0 0 0 0 0 0 0 0 0 0 0 0 0 0 0 0 127 0" result="hardAlpha"/>
<feOffset dy="2"/>
<feGaussianBlur stdDeviation="3"/>
<feColorMatrix type="matrix" values="0 0 0 0 0.819608 0 0 0 0 0.172549 0 0 0 0 0.372549 0 0 0 0.4 0"/>
<feBlend mode="normal" in2="BackgroundImageFix" result="effect1_dropShadow_52238_6621"/>
<feBlend mode="normal" in="SourceGraphic" in2="effect1_dropShadow_52238_6621" result="shape"/>
</filter>
<clipPath id="clip0_52238_6621">
<rect width="50" height="43" fill="white" transform="translate(6 4)"/>
</clipPath>
</defs>
</svg>
