<svg width="46" height="45" viewBox="0 0 46 45" fill="none" xmlns="http://www.w3.org/2000/svg">
<path d="M19.7277 0C9.12843 0 0.5 8.62531 0.5 19.225C0.5 29.8247 9.12757 38.4534 19.7277 38.4534C30.327 38.4534 38.952 29.8255 38.952 19.225C38.952 8.62531 30.327 0 19.7277 0V0ZM19.7277 6.94483C26.4921 6.94483 32.0081 12.461 32.0081 19.2257C32.0081 25.99 26.4921 31.5091 19.7277 31.5091C12.9633 31.5091 7.44475 25.9899 7.44475 19.2257C7.44475 12.4614 12.9634 6.94483 19.7277 6.94483V6.94483Z" fill="#D12C5F"/>
<path d="M38.2843 31.7693C36.5834 34.2779 34.3807 36.4098 31.8323 38.0547L37.9209 43.7893C39.7181 45.4801 42.6004 45.3874 44.2908 43.59C45.9813 41.7927 45.8861 38.9251 44.0886 37.2342L38.2843 31.7693Z" fill="#D12C5F"/>
</svg>
